ISO-10303-21;
HEADER;
/* Generated by software containing ST-Developer
 * from STEP Tools, Inc. (www.steptools.com) 
 */
/* OPTION: using custom renumber hook */

FILE_DESCRIPTION(
/* description */ ('STEP AP242 Edition 2',
'CAx-IF Rec.Pracs.---Representation and Presentation of Product Manufa
cturing Information (PMI)---4.0---2014-10-13',
'CAx-IF Rec.Pracs.---3D Tessellated Geometry---0.4---2014-09-14','2;1',
'CAx-IF Rec.Pracs.---User Defined Attributes---1.5---2016-08-15'),
/* implementation_level */ '2;1');

FILE_NAME(
/* name */ 'Full Assembly - Part 1 (2)',
/* time_stamp */ '2026-08-15T05:10:10Z',
/* author */ (''),
/* organization */ (''),
/* preprocessor_version */ 'ST-DEVELOPER v20',
/* originating_system */ 'ONSHAPE BY PTC INC, 1.219',
/* authorisation */ '  ');

FILE_SCHEMA (('AP242_MANAGED_MODEL_BASED_3D_ENGINEERING_MIM_LF { 1 0 10303 442 3 1 4 }'));
ENDSEC;

DATA;
#10=SHAPE_REPRESENTATION_RELATIONSHIP('','',#832,#11);
#11=ADVANCED_BREP_SHAPE_REPRESENTATION('',(#830),#1358);
#12=PLANE('',#852);
#13=PLANE('',#853);
#14=PLANE('',#854);
#15=PLANE('',#855);
#16=PLANE('',#860);
#17=PLANE('',#861);
#18=PLANE('',#862);
#19=PLANE('',#863);
#20=PLANE('',#866);
#21=PLANE('',#867);
#22=PLANE('',#868);
#23=PLANE('',#869);
#24=PLANE('',#878);
#25=PLANE('',#879);
#26=PLANE('',#882);
#27=PLANE('',#884);
#28=PLANE('',#886);
#29=PLANE('',#889);
#30=PLANE('',#892);
#31=PLANE('',#893);
#32=PLANE('',#894);
#33=PLANE('',#895);
#34=PLANE('',#896);
#35=PLANE('',#899);
#36=PLANE('',#902);
#37=PLANE('',#903);
#38=LINE('',#1136,#111);
#39=LINE('',#1140,#112);
#40=LINE('',#1167,#113);
#41=LINE('',#1170,#114);
#42=LINE('',#1172,#115);
#43=LINE('',#1174,#116);
#44=LINE('',#1176,#117);
#45=LINE('',#1179,#118);
#46=LINE('',#1181,#119);
#47=LINE('',#1183,#120);
#48=LINE('',#1185,#121);
#49=LINE('',#1187,#122);
#50=LINE('',#1189,#123);
#51=LINE('',#1191,#124);
#52=LINE('',#1193,#125);
#53=LINE('',#1196,#126);
#54=LINE('',#1198,#127);
#55=LINE('',#1200,#128);
#56=LINE('',#1202,#129);
#57=LINE('',#1204,#130);
#58=LINE('',#1206,#131);
#59=LINE('',#1208,#132);
#60=LINE('',#1209,#133);
#61=LINE('',#1211,#134);
#62=LINE('',#1221,#135);
#63=LINE('',#1223,#136);
#64=LINE('',#1225,#137);
#65=LINE('',#1227,#138);
#66=LINE('',#1229,#139);
#67=LINE('',#1231,#140);
#68=LINE('',#1233,#141);
#69=LINE('',#1235,#142);
#70=LINE('',#1238,#143);
#71=LINE('',#1239,#144);
#72=LINE('',#1241,#145);
#73=LINE('',#1243,#146);
#74=LINE('',#1245,#147);
#75=LINE('',#1247,#148);
#76=LINE('',#1251,#149);
#77=LINE('',#1253,#150);
#78=LINE('',#1255,#151);
#79=LINE('',#1259,#152);
#80=LINE('',#1262,#153);
#81=LINE('',#1263,#154);
#82=LINE('',#1265,#155);
#83=LINE('',#1266,#156);
#84=LINE('',#1268,#157);
#85=LINE('',#1270,#158);
#86=LINE('',#1276,#159);
#87=LINE('',#1287,#160);
#88=LINE('',#1290,#161);
#89=LINE('',#1292,#162);
#90=LINE('',#1294,#163);
#91=LINE('',#1300,#164);
#92=LINE('',#1304,#165);
#93=LINE('',#1314,#166);
#94=LINE('',#1315,#167);
#95=LINE('',#1317,#168);
#96=LINE('',#1319,#169);
#97=LINE('',#1321,#170);
#98=LINE('',#1322,#171);
#99=LINE('',#1323,#172);
#100=LINE('',#1325,#173);
#101=LINE('',#1327,#174);
#102=LINE('',#1328,#175);
#103=LINE('',#1330,#176);
#104=LINE('',#1331,#177);
#105=LINE('',#1332,#178);
#106=LINE('',#1334,#179);
#107=LINE('',#1336,#180);
#108=LINE('',#1338,#181);
#109=LINE('',#1340,#182);
#110=LINE('',#1350,#183);
#111=VECTOR('',#914,1.);
#112=VECTOR('',#917,1.);
#113=VECTOR('',#950,1.);
#114=VECTOR('',#951,1.);
#115=VECTOR('',#952,1.);
#116=VECTOR('',#953,1.);
#117=VECTOR('',#956,1.);
#118=VECTOR('',#957,1.);
#119=VECTOR('',#958,1.);
#120=VECTOR('',#959,1.);
#121=VECTOR('',#960,1.);
#122=VECTOR('',#961,1.);
#123=VECTOR('',#962,1.);
#124=VECTOR('',#963,1.);
#125=VECTOR('',#966,1.);
#126=VECTOR('',#967,1.);
#127=VECTOR('',#968,1.);
#128=VECTOR('',#969,1.);
#129=VECTOR('',#972,1.);
#130=VECTOR('',#973,1.);
#131=VECTOR('',#974,1.);
#132=VECTOR('',#975,1.);
#133=VECTOR('',#976,1.);
#134=VECTOR('',#977,1.);
#135=VECTOR('',#988,1.);
#136=VECTOR('',#989,1.);
#137=VECTOR('',#992,1.);
#138=VECTOR('',#993,1.);
#139=VECTOR('',#994,1.);
#140=VECTOR('',#995,1.);
#141=VECTOR('',#996,1.);
#142=VECTOR('',#999,1.);
#143=VECTOR('',#1000,1.);
#144=VECTOR('',#1001,1.);
#145=VECTOR('',#1004,1.);
#146=VECTOR('',#1005,1.);
#147=VECTOR('',#1006,1.);
#148=VECTOR('',#1007,1.);
#149=VECTOR('',#1010,1.);
#150=VECTOR('',#1011,1.);
#151=VECTOR('',#1012,1.);
#152=VECTOR('',#1017,1.);
#153=VECTOR('',#1018,1.);
#154=VECTOR('',#1019,1.);
#155=VECTOR('',#1022,1.);
#156=VECTOR('',#1023,1.);
#157=VECTOR('',#1024,1.);
#158=VECTOR('',#1027,1.);
#159=VECTOR('',#1034,1.);
#160=VECTOR('',#1051,1.);
#161=VECTOR('',#1054,1.);
#162=VECTOR('',#1055,1.);
#163=VECTOR('',#1056,1.);
#164=VECTOR('',#1063,1.);
#165=VECTOR('',#1068,1.);
#166=VECTOR('',#1083,1.);
#167=VECTOR('',#1084,1.);
#168=VECTOR('',#1085,1.);
#169=VECTOR('',#1086,1.);
#170=VECTOR('',#1087,1.);
#171=VECTOR('',#1088,1.);
#172=VECTOR('',#1089,1.);
#173=VECTOR('',#1090,1.);
#174=VECTOR('',#1093,1.);
#175=VECTOR('',#1094,1.);
#176=VECTOR('',#1095,1.);
#177=VECTOR('',#1096,1.);
#178=VECTOR('',#1097,1.);
#179=VECTOR('',#1098,1.);
#180=VECTOR('',#1099,1.);
#181=VECTOR('',#1100,1.);
#182=VECTOR('',#1103,1.);
#183=VECTOR('',#1118,1.);
#184=ORIENTED_EDGE('',*,*,#394,.T.);
#185=ORIENTED_EDGE('',*,*,#395,.F.);
#186=ORIENTED_EDGE('',*,*,#396,.F.);
#187=ORIENTED_EDGE('',*,*,#397,.T.);
#188=ORIENTED_EDGE('',*,*,#398,.F.);
#189=ORIENTED_EDGE('',*,*,#399,.F.);
#190=ORIENTED_EDGE('',*,*,#400,.T.);
#191=ORIENTED_EDGE('',*,*,#401,.F.);
#192=ORIENTED_EDGE('',*,*,#402,.F.);
#193=ORIENTED_EDGE('',*,*,#403,.F.);
#194=ORIENTED_EDGE('',*,*,#404,.F.);
#195=ORIENTED_EDGE('',*,*,#405,.T.);
#196=ORIENTED_EDGE('',*,*,#406,.F.);
#197=ORIENTED_EDGE('',*,*,#407,.T.);
#198=ORIENTED_EDGE('',*,*,#408,.F.);
#199=ORIENTED_EDGE('',*,*,#409,.T.);
#200=ORIENTED_EDGE('',*,*,#410,.T.);
#201=ORIENTED_EDGE('',*,*,#411,.F.);
#202=ORIENTED_EDGE('',*,*,#412,.T.);
#203=ORIENTED_EDGE('',*,*,#413,.T.);
#204=ORIENTED_EDGE('',*,*,#414,.F.);
#205=ORIENTED_EDGE('',*,*,#415,.F.);
#206=ORIENTED_EDGE('',*,*,#416,.T.);
#207=ORIENTED_EDGE('',*,*,#417,.T.);
#208=ORIENTED_EDGE('',*,*,#418,.T.);
#209=ORIENTED_EDGE('',*,*,#419,.F.);
#210=ORIENTED_EDGE('',*,*,#420,.F.);
#211=ORIENTED_EDGE('',*,*,#421,.F.);
#212=ORIENTED_EDGE('',*,*,#422,.F.);
#213=ORIENTED_EDGE('',*,*,#423,.T.);
#214=ORIENTED_EDGE('',*,*,#421,.T.);
#215=ORIENTED_EDGE('',*,*,#424,.F.);
#216=ORIENTED_EDGE('',*,*,#425,.F.);
#217=ORIENTED_EDGE('',*,*,#426,.F.);
#218=ORIENTED_EDGE('',*,*,#427,.T.);
#219=ORIENTED_EDGE('',*,*,#419,.T.);
#220=ORIENTED_EDGE('',*,*,#428,.F.);
#221=ORIENTED_EDGE('',*,*,#429,.F.);
#222=ORIENTED_EDGE('',*,*,#430,.T.);
#223=ORIENTED_EDGE('',*,*,#431,.T.);
#224=ORIENTED_EDGE('',*,*,#432,.T.);
#225=ORIENTED_EDGE('',*,*,#433,.T.);
#226=ORIENTED_EDGE('',*,*,#418,.F.);
#227=ORIENTED_EDGE('',*,*,#434,.F.);
#228=ORIENTED_EDGE('',*,*,#435,.T.);
#229=ORIENTED_EDGE('',*,*,#428,.T.);
#230=ORIENTED_EDGE('',*,*,#436,.F.);
#231=ORIENTED_EDGE('',*,*,#422,.T.);
#232=ORIENTED_EDGE('',*,*,#429,.T.);
#233=ORIENTED_EDGE('',*,*,#435,.F.);
#234=ORIENTED_EDGE('',*,*,#437,.F.);
#235=ORIENTED_EDGE('',*,*,#438,.F.);
#236=ORIENTED_EDGE('',*,*,#439,.T.);
#237=ORIENTED_EDGE('',*,*,#440,.T.);
#238=ORIENTED_EDGE('',*,*,#441,.F.);
#239=ORIENTED_EDGE('',*,*,#442,.F.);
#240=ORIENTED_EDGE('',*,*,#426,.T.);
#241=ORIENTED_EDGE('',*,*,#443,.F.);
#242=ORIENTED_EDGE('',*,*,#442,.T.);
#243=ORIENTED_EDGE('',*,*,#444,.T.);
#244=ORIENTED_EDGE('',*,*,#445,.T.);
#245=ORIENTED_EDGE('',*,*,#446,.T.);
#246=ORIENTED_EDGE('',*,*,#447,.F.);
#247=ORIENTED_EDGE('',*,*,#448,.T.);
#248=ORIENTED_EDGE('',*,*,#449,.F.);
#249=ORIENTED_EDGE('',*,*,#450,.T.);
#250=ORIENTED_EDGE('',*,*,#451,.T.);
#251=ORIENTED_EDGE('',*,*,#452,.T.);
#252=ORIENTED_EDGE('',*,*,#412,.F.);
#253=ORIENTED_EDGE('',*,*,#427,.F.);
#254=ORIENTED_EDGE('',*,*,#453,.F.);
#255=ORIENTED_EDGE('',*,*,#454,.T.);
#256=ORIENTED_EDGE('',*,*,#447,.T.);
#257=ORIENTED_EDGE('',*,*,#455,.T.);
#258=ORIENTED_EDGE('',*,*,#456,.F.);
#259=ORIENTED_EDGE('',*,*,#445,.F.);
#260=ORIENTED_EDGE('',*,*,#457,.T.);
#261=ORIENTED_EDGE('',*,*,#458,.F.);
#262=ORIENTED_EDGE('',*,*,#424,.T.);
#263=ORIENTED_EDGE('',*,*,#420,.T.);
#264=ORIENTED_EDGE('',*,*,#459,.F.);
#265=ORIENTED_EDGE('',*,*,#443,.T.);
#266=ORIENTED_EDGE('',*,*,#425,.T.);
#267=ORIENTED_EDGE('',*,*,#458,.T.);
#268=ORIENTED_EDGE('',*,*,#460,.T.);
#269=ORIENTED_EDGE('',*,*,#461,.T.);
#270=ORIENTED_EDGE('',*,*,#446,.F.);
#271=ORIENTED_EDGE('',*,*,#456,.T.);
#272=ORIENTED_EDGE('',*,*,#423,.F.);
#273=ORIENTED_EDGE('',*,*,#436,.T.);
#274=ORIENTED_EDGE('',*,*,#462,.T.);
#275=ORIENTED_EDGE('',*,*,#455,.F.);
#276=ORIENTED_EDGE('',*,*,#463,.F.);
#277=ORIENTED_EDGE('',*,*,#433,.F.);
#278=ORIENTED_EDGE('',*,*,#464,.F.);
#279=ORIENTED_EDGE('',*,*,#432,.F.);
#280=ORIENTED_EDGE('',*,*,#431,.F.);
#281=ORIENTED_EDGE('',*,*,#461,.F.);
#282=ORIENTED_EDGE('',*,*,#430,.F.);
#283=ORIENTED_EDGE('',*,*,#460,.F.);
#284=ORIENTED_EDGE('',*,*,#463,.T.);
#285=ORIENTED_EDGE('',*,*,#464,.T.);
#286=ORIENTED_EDGE('',*,*,#441,.T.);
#287=ORIENTED_EDGE('',*,*,#459,.T.);
#288=ORIENTED_EDGE('',*,*,#457,.F.);
#289=ORIENTED_EDGE('',*,*,#444,.F.);
#290=ORIENTED_EDGE('',*,*,#462,.F.);
#291=ORIENTED_EDGE('',*,*,#440,.F.);
#292=ORIENTED_EDGE('',*,*,#465,.T.);
#293=ORIENTED_EDGE('',*,*,#414,.T.);
#294=ORIENTED_EDGE('',*,*,#466,.T.);
#295=ORIENTED_EDGE('',*,*,#467,.F.);
#296=ORIENTED_EDGE('',*,*,#468,.T.);
#297=ORIENTED_EDGE('',*,*,#469,.T.);
#298=ORIENTED_EDGE('',*,*,#470,.T.);
#299=ORIENTED_EDGE('',*,*,#453,.T.);
#300=ORIENTED_EDGE('',*,*,#471,.T.);
#301=ORIENTED_EDGE('',*,*,#439,.F.);
#302=ORIENTED_EDGE('',*,*,#472,.T.);
#303=ORIENTED_EDGE('',*,*,#415,.T.);
#304=ORIENTED_EDGE('',*,*,#465,.F.);
#305=ORIENTED_EDGE('',*,*,#473,.F.);
#306=ORIENTED_EDGE('',*,*,#434,.T.);
#307=ORIENTED_EDGE('',*,*,#417,.F.);
#308=ORIENTED_EDGE('',*,*,#474,.F.);
#309=ORIENTED_EDGE('',*,*,#437,.T.);
#310=ORIENTED_EDGE('',*,*,#438,.T.);
#311=ORIENTED_EDGE('',*,*,#474,.T.);
#312=ORIENTED_EDGE('',*,*,#416,.F.);
#313=ORIENTED_EDGE('',*,*,#472,.F.);
#314=ORIENTED_EDGE('',*,*,#471,.F.);
#315=ORIENTED_EDGE('',*,*,#475,.F.);
#316=ORIENTED_EDGE('',*,*,#476,.T.);
#317=ORIENTED_EDGE('',*,*,#475,.T.);
#318=ORIENTED_EDGE('',*,*,#476,.F.);
#319=ORIENTED_EDGE('',*,*,#473,.T.);
#320=ORIENTED_EDGE('',*,*,#449,.T.);
#321=ORIENTED_EDGE('',*,*,#477,.T.);
#322=ORIENTED_EDGE('',*,*,#469,.F.);
#323=ORIENTED_EDGE('',*,*,#478,.T.);
#324=ORIENTED_EDGE('',*,*,#479,.F.);
#325=ORIENTED_EDGE('',*,*,#480,.F.);
#326=ORIENTED_EDGE('',*,*,#481,.T.);
#327=ORIENTED_EDGE('',*,*,#408,.T.);
#328=ORIENTED_EDGE('',*,*,#482,.F.);
#329=ORIENTED_EDGE('',*,*,#397,.F.);
#330=ORIENTED_EDGE('',*,*,#483,.T.);
#331=ORIENTED_EDGE('',*,*,#484,.T.);
#332=ORIENTED_EDGE('',*,*,#467,.T.);
#333=ORIENTED_EDGE('',*,*,#485,.T.);
#334=ORIENTED_EDGE('',*,*,#451,.F.);
#335=ORIENTED_EDGE('',*,*,#486,.T.);
#336=ORIENTED_EDGE('',*,*,#487,.F.);
#337=ORIENTED_EDGE('',*,*,#395,.T.);
#338=ORIENTED_EDGE('',*,*,#488,.T.);
#339=ORIENTED_EDGE('',*,*,#410,.F.);
#340=ORIENTED_EDGE('',*,*,#489,.F.);
#341=ORIENTED_EDGE('',*,*,#490,.T.);
#342=ORIENTED_EDGE('',*,*,#491,.T.);
#343=ORIENTED_EDGE('',*,*,#492,.T.);
#344=ORIENTED_EDGE('',*,*,#399,.T.);
#345=ORIENTED_EDGE('',*,*,#404,.T.);
#346=ORIENTED_EDGE('',*,*,#400,.F.);
#347=ORIENTED_EDGE('',*,*,#396,.T.);
#348=ORIENTED_EDGE('',*,*,#487,.T.);
#349=ORIENTED_EDGE('',*,*,#493,.T.);
#350=ORIENTED_EDGE('',*,*,#483,.F.);
#351=ORIENTED_EDGE('',*,*,#488,.F.);
#352=ORIENTED_EDGE('',*,*,#394,.F.);
#353=ORIENTED_EDGE('',*,*,#482,.T.);
#354=ORIENTED_EDGE('',*,*,#411,.T.);
#355=ORIENTED_EDGE('',*,*,#405,.F.);
#356=ORIENTED_EDGE('',*,*,#401,.T.);
#357=ORIENTED_EDGE('',*,*,#398,.T.);
#358=ORIENTED_EDGE('',*,*,#481,.F.);
#359=ORIENTED_EDGE('',*,*,#494,.F.);
#360=ORIENTED_EDGE('',*,*,#489,.T.);
#361=ORIENTED_EDGE('',*,*,#409,.F.);
#362=ORIENTED_EDGE('',*,*,#407,.F.);
#363=ORIENTED_EDGE('',*,*,#403,.T.);
#364=ORIENTED_EDGE('',*,*,#495,.T.);
#365=ORIENTED_EDGE('',*,*,#496,.T.);
#366=ORIENTED_EDGE('',*,*,#406,.T.);
#367=ORIENTED_EDGE('',*,*,#402,.T.);
#368=ORIENTED_EDGE('',*,*,#497,.F.);
#369=ORIENTED_EDGE('',*,*,#479,.T.);
#370=ORIENTED_EDGE('',*,*,#498,.T.);
#371=ORIENTED_EDGE('',*,*,#491,.F.);
#372=ORIENTED_EDGE('',*,*,#484,.F.);
#373=ORIENTED_EDGE('',*,*,#493,.F.);
#374=ORIENTED_EDGE('',*,*,#486,.F.);
#375=ORIENTED_EDGE('',*,*,#450,.F.);
#376=ORIENTED_EDGE('',*,*,#492,.F.);
#377=ORIENTED_EDGE('',*,*,#498,.F.);
#378=ORIENTED_EDGE('',*,*,#478,.F.);
#379=ORIENTED_EDGE('',*,*,#468,.F.);
#380=ORIENTED_EDGE('',*,*,#490,.F.);
#381=ORIENTED_EDGE('',*,*,#494,.T.);
#382=ORIENTED_EDGE('',*,*,#480,.T.);
#383=ORIENTED_EDGE('',*,*,#497,.T.);
#384=ORIENTED_EDGE('',*,*,#495,.F.);
#385=ORIENTED_EDGE('',*,*,#496,.F.);
#386=ORIENTED_EDGE('',*,*,#470,.F.);
#387=ORIENTED_EDGE('',*,*,#477,.F.);
#388=ORIENTED_EDGE('',*,*,#448,.F.);
#389=ORIENTED_EDGE('',*,*,#454,.F.);
#390=ORIENTED_EDGE('',*,*,#466,.F.);
#391=ORIENTED_EDGE('',*,*,#413,.F.);
#392=ORIENTED_EDGE('',*,*,#452,.F.);
#393=ORIENTED_EDGE('',*,*,#485,.F.);
#394=EDGE_CURVE('',#499,#500,#577,.F.);
#395=EDGE_CURVE('',#501,#500,#38,.F.);
#396=EDGE_CURVE('',#502,#501,#578,.T.);
#397=EDGE_CURVE('',#502,#499,#39,.F.);
#398=EDGE_CURVE('',#503,#503,#579,.T.);
#399=EDGE_CURVE('',#504,#504,#580,.T.);
#400=EDGE_CURVE('',#505,#505,#581,.T.);
#401=EDGE_CURVE('',#506,#506,#582,.F.);
#402=EDGE_CURVE('',#507,#507,#583,.F.);
#403=EDGE_CURVE('',#508,#508,#584,.F.);
#404=EDGE_CURVE('',#509,#509,#585,.T.);
#405=EDGE_CURVE('',#510,#510,#586,.T.);
#406=EDGE_CURVE('',#511,#511,#587,.F.);
#407=EDGE_CURVE('',#512,#512,#588,.T.);
#408=EDGE_CURVE('',#513,#514,#40,.T.);
#409=EDGE_CURVE('',#513,#515,#41,.T.);
#410=EDGE_CURVE('',#515,#516,#42,.T.);
#411=EDGE_CURVE('',#514,#516,#43,.T.);
#412=EDGE_CURVE('',#517,#518,#44,.T.);
#413=EDGE_CURVE('',#518,#519,#45,.F.);
#414=EDGE_CURVE('',#520,#519,#46,.T.);
#415=EDGE_CURVE('',#521,#520,#47,.T.);
#416=EDGE_CURVE('',#521,#522,#48,.T.);
#417=EDGE_CURVE('',#522,#523,#49,.T.);
#418=EDGE_CURVE('',#523,#524,#50,.T.);
#419=EDGE_CURVE('',#517,#524,#51,.T.);
#420=EDGE_CURVE('',#525,#526,#52,.T.);
#421=EDGE_CURVE('',#527,#525,#53,.T.);
#422=EDGE_CURVE('',#528,#527,#54,.T.);
#423=EDGE_CURVE('',#528,#526,#55,.T.);
#424=EDGE_CURVE('',#529,#525,#56,.T.);
#425=EDGE_CURVE('',#530,#529,#57,.T.);
#426=EDGE_CURVE('',#531,#530,#58,.T.);
#427=EDGE_CURVE('',#531,#517,#59,.T.);
#428=EDGE_CURVE('',#532,#524,#60,.T.);
#429=EDGE_CURVE('',#527,#532,#61,.T.);
#430=EDGE_CURVE('',#533,#533,#589,.F.);
#431=EDGE_CURVE('',#534,#534,#590,.F.);
#432=EDGE_CURVE('',#535,#535,#591,.F.);
#433=EDGE_CURVE('',#536,#536,#592,.F.);
#434=EDGE_CURVE('',#537,#523,#62,.T.);
#435=EDGE_CURVE('',#537,#532,#63,.T.);
#436=EDGE_CURVE('',#528,#538,#64,.T.);
#437=EDGE_CURVE('',#539,#537,#65,.T.);
#438=EDGE_CURVE('',#540,#539,#66,.T.);
#439=EDGE_CURVE('',#540,#541,#67,.T.);
#440=EDGE_CURVE('',#541,#538,#68,.T.);
#441=EDGE_CURVE('',#542,#543,#69,.T.);
#442=EDGE_CURVE('',#531,#542,#70,.T.);
#443=EDGE_CURVE('',#543,#530,#71,.T.);
#444=EDGE_CURVE('',#542,#544,#72,.T.);
#445=EDGE_CURVE('',#544,#545,#73,.T.);
#446=EDGE_CURVE('',#545,#546,#74,.T.);
#447=EDGE_CURVE('',#547,#546,#75,.T.);
#448=EDGE_CURVE('',#547,#548,#593,.T.);
#449=EDGE_CURVE('',#549,#548,#76,.T.);
#450=EDGE_CURVE('',#549,#550,#77,.T.);
#451=EDGE_CURVE('',#550,#551,#78,.T.);
#452=EDGE_CURVE('',#551,#518,#594,.T.);
#453=EDGE_CURVE('',#552,#553,#79,.T.);
#454=EDGE_CURVE('',#552,#547,#80,.T.);
#455=EDGE_CURVE('',#546,#553,#81,.T.);
#456=EDGE_CURVE('',#545,#526,#82,.T.);
#457=EDGE_CURVE('',#544,#554,#83,.T.);
#458=EDGE_CURVE('',#529,#554,#84,.T.);
#459=EDGE_CURVE('',#543,#554,#85,.T.);
#460=EDGE_CURVE('',#555,#555,#595,.T.);
#461=EDGE_CURVE('',#556,#556,#596,.T.);
#462=EDGE_CURVE('',#538,#553,#86,.T.);
#463=EDGE_CURVE('',#557,#557,#597,.T.);
#464=EDGE_CURVE('',#558,#558,#598,.T.);
#465=EDGE_CURVE('',#541,#520,#87,.T.);
#466=EDGE_CURVE('',#519,#559,#599,.F.);
#467=EDGE_CURVE('',#560,#559,#88,.T.);
#468=EDGE_CURVE('',#560,#561,#89,.T.);
#469=EDGE_CURVE('',#561,#562,#90,.T.);
#470=EDGE_CURVE('',#562,#552,#600,.F.);
#471=EDGE_CURVE('',#563,#563,#601,.F.);
#472=EDGE_CURVE('',#540,#521,#91,.T.);
#473=EDGE_CURVE('',#564,#564,#602,.T.);
#474=EDGE_CURVE('',#539,#522,#92,.T.);
#475=EDGE_CURVE('',#565,#565,#603,.T.);
#476=EDGE_CURVE('',#566,#566,#604,.F.);
#477=EDGE_CURVE('',#548,#562,#93,.F.);
#478=EDGE_CURVE('',#561,#567,#94,.T.);
#479=EDGE_CURVE('',#568,#567,#95,.T.);
#480=EDGE_CURVE('',#569,#568,#96,.F.);
#481=EDGE_CURVE('',#569,#513,#97,.T.);
#482=EDGE_CURVE('',#499,#514,#98,.T.);
#483=EDGE_CURVE('',#502,#570,#99,.T.);
#484=EDGE_CURVE('',#570,#549,#100,.T.);
#485=EDGE_CURVE('',#559,#551,#101,.T.);
#486=EDGE_CURVE('',#550,#571,#102,.T.);
#487=EDGE_CURVE('',#501,#571,#103,.T.);
#488=EDGE_CURVE('',#500,#516,#104,.T.);
#489=EDGE_CURVE('',#572,#515,#105,.T.);
#490=EDGE_CURVE('',#572,#573,#106,.F.);
#491=EDGE_CURVE('',#573,#574,#107,.T.);
#492=EDGE_CURVE('',#574,#560,#108,.T.);
#493=EDGE_CURVE('',#571,#570,#109,.T.);
#494=EDGE_CURVE('',#572,#569,#605,.F.);
#495=EDGE_CURVE('',#575,#575,#606,.T.);
#496=EDGE_CURVE('',#576,#576,#607,.F.);
#497=EDGE_CURVE('',#568,#573,#608,.F.);
#498=EDGE_CURVE('',#567,#574,#110,.T.);
#499=VERTEX_POINT('',#1134);
#500=VERTEX_POINT('',#1135);
#501=VERTEX_POINT('',#1137);
#502=VERTEX_POINT('',#1139);
#503=VERTEX_POINT('',#1143);
#504=VERTEX_POINT('',#1145);
#505=VERTEX_POINT('',#1148);
#506=VERTEX_POINT('',#1150);
#507=VERTEX_POINT('',#1153);
#508=VERTEX_POINT('',#1155);
#509=VERTEX_POINT('',#1158);
#510=VERTEX_POINT('',#1160);
#511=VERTEX_POINT('',#1163);
#512=VERTEX_POINT('',#1165);
#513=VERTEX_POINT('',#1168);
#514=VERTEX_POINT('',#1169);
#515=VERTEX_POINT('',#1171);
#516=VERTEX_POINT('',#1173);
#517=VERTEX_POINT('',#1177);
#518=VERTEX_POINT('',#1178);
#519=VERTEX_POINT('',#1180);
#520=VERTEX_POINT('',#1182);
#521=VERTEX_POINT('',#1184);
#522=VERTEX_POINT('',#1186);
#523=VERTEX_POINT('',#1188);
#524=VERTEX_POINT('',#1190);
#525=VERTEX_POINT('',#1194);
#526=VERTEX_POINT('',#1195);
#527=VERTEX_POINT('',#1197);
#528=VERTEX_POINT('',#1199);
#529=VERTEX_POINT('',#1203);
#530=VERTEX_POINT('',#1205);
#531=VERTEX_POINT('',#1207);
#532=VERTEX_POINT('',#1210);
#533=VERTEX_POINT('',#1213);
#534=VERTEX_POINT('',#1215);
#535=VERTEX_POINT('',#1217);
#536=VERTEX_POINT('',#1219);
#537=VERTEX_POINT('',#1222);
#538=VERTEX_POINT('',#1226);
#539=VERTEX_POINT('',#1228);
#540=VERTEX_POINT('',#1230);
#541=VERTEX_POINT('',#1232);
#542=VERTEX_POINT('',#1236);
#543=VERTEX_POINT('',#1237);
#544=VERTEX_POINT('',#1242);
#545=VERTEX_POINT('',#1244);
#546=VERTEX_POINT('',#1246);
#547=VERTEX_POINT('',#1248);
#548=VERTEX_POINT('',#1250);
#549=VERTEX_POINT('',#1252);
#550=VERTEX_POINT('',#1254);
#551=VERTEX_POINT('',#1256);
#552=VERTEX_POINT('',#1260);
#553=VERTEX_POINT('',#1261);
#554=VERTEX_POINT('',#1267);
#555=VERTEX_POINT('',#1273);
#556=VERTEX_POINT('',#1275);
#557=VERTEX_POINT('',#1279);
#558=VERTEX_POINT('',#1282);
#559=VERTEX_POINT('',#1289);
#560=VERTEX_POINT('',#1291);
#561=VERTEX_POINT('',#1293);
#562=VERTEX_POINT('',#1295);
#563=VERTEX_POINT('',#1299);
#564=VERTEX_POINT('',#1303);
#565=VERTEX_POINT('',#1308);
#566=VERTEX_POINT('',#1311);
#567=VERTEX_POINT('',#1316);
#568=VERTEX_POINT('',#1318);
#569=VERTEX_POINT('',#1320);
#570=VERTEX_POINT('',#1324);
#571=VERTEX_POINT('',#1329);
#572=VERTEX_POINT('',#1333);
#573=VERTEX_POINT('',#1335);
#574=VERTEX_POINT('',#1337);
#575=VERTEX_POINT('',#1345);
#576=VERTEX_POINT('',#1348);
#577=CIRCLE('',#835,0.01);
#578=CIRCLE('',#836,0.01);
#579=CIRCLE('',#838,0.0015);
#580=CIRCLE('',#839,0.0015);
#581=CIRCLE('',#841,0.003175);
#582=CIRCLE('',#842,0.003175);
#583=CIRCLE('',#844,0.003175);
#584=CIRCLE('',#845,0.003175);
#585=CIRCLE('',#847,0.0015);
#586=CIRCLE('',#848,0.0015);
#587=CIRCLE('',#850,0.0015);
#588=CIRCLE('',#851,0.0015);
#589=CIRCLE('',#856,0.0014);
#590=CIRCLE('',#857,0.0014);
#591=CIRCLE('',#858,0.0014);
#592=CIRCLE('',#859,0.0014);
#593=CIRCLE('',#864,0.003175);
#594=CIRCLE('',#865,0.003175);
#595=CIRCLE('',#870,0.0014);
#596=CIRCLE('',#871,0.0014);
#597=CIRCLE('',#873,0.0014);
#598=CIRCLE('',#875,0.0014);
#599=CIRCLE('',#880,0.003175);
#600=CIRCLE('',#881,0.003175);
#601=CIRCLE('',#883,0.003175);
#602=CIRCLE('',#885,0.00135);
#603=CIRCLE('',#888,0.003175);
#604=CIRCLE('',#890,0.00135);
#605=CIRCLE('',#897,0.01);
#606=CIRCLE('',#898,0.0015);
#607=CIRCLE('',#900,0.0015);
#608=CIRCLE('',#901,0.01);
#609=EDGE_LOOP('',(#184,#185,#186,#187));
#610=EDGE_LOOP('',(#188));
#611=EDGE_LOOP('',(#189));
#612=EDGE_LOOP('',(#190));
#613=EDGE_LOOP('',(#191));
#614=EDGE_LOOP('',(#192));
#615=EDGE_LOOP('',(#193));
#616=EDGE_LOOP('',(#194));
#617=EDGE_LOOP('',(#195));
#618=EDGE_LOOP('',(#196));
#619=EDGE_LOOP('',(#197));
#620=EDGE_LOOP('',(#198,#199,#200,#201));
#621=EDGE_LOOP('',(#202,#203,#204,#205,#206,#207,#208,#209));
#622=EDGE_LOOP('',(#210,#211,#212,#213));
#623=EDGE_LOOP('',(#214,#215,#216,#217,#218,#219,#220,#221));
#624=EDGE_LOOP('',(#222));
#625=EDGE_LOOP('',(#223));
#626=EDGE_LOOP('',(#224));
#627=EDGE_LOOP('',(#225));
#628=EDGE_LOOP('',(#226,#227,#228,#229));
#629=EDGE_LOOP('',(#230,#231,#232,#233,#234,#235,#236,#237));
#630=EDGE_LOOP('',(#238,#239,#240,#241));
#631=EDGE_LOOP('',(#242,#243,#244,#245,#246,#247,#248,#249,#250,#251,#252,
#253));
#632=EDGE_LOOP('',(#254,#255,#256,#257));
#633=EDGE_LOOP('',(#258,#259,#260,#261,#262,#263));
#634=EDGE_LOOP('',(#264,#265,#266,#267));
#635=EDGE_LOOP('',(#268));
#636=EDGE_LOOP('',(#269));
#637=EDGE_LOOP('',(#270,#271,#272,#273,#274,#275));
#638=EDGE_LOOP('',(#276));
#639=EDGE_LOOP('',(#277));
#640=EDGE_LOOP('',(#278));
#641=EDGE_LOOP('',(#279));
#642=EDGE_LOOP('',(#280));
#643=EDGE_LOOP('',(#281));
#644=EDGE_LOOP('',(#282));
#645=EDGE_LOOP('',(#283));
#646=EDGE_LOOP('',(#284));
#647=EDGE_LOOP('',(#285));
#648=EDGE_LOOP('',(#286,#287,#288,#289));
#649=EDGE_LOOP('',(#290,#291,#292,#293,#294,#295,#296,#297,#298,#299));
#650=EDGE_LOOP('',(#300));
#651=EDGE_LOOP('',(#301,#302,#303,#304));
#652=EDGE_LOOP('',(#305));
#653=EDGE_LOOP('',(#306,#307,#308,#309));
#654=EDGE_LOOP('',(#310,#311,#312,#313));
#655=EDGE_LOOP('',(#314));
#656=EDGE_LOOP('',(#315));
#657=EDGE_LOOP('',(#316));
#658=EDGE_LOOP('',(#317));
#659=EDGE_LOOP('',(#318));
#660=EDGE_LOOP('',(#319));
#661=EDGE_LOOP('',(#320,#321,#322,#323,#324,#325,#326,#327,#328,#329,#330,
#331));
#662=EDGE_LOOP('',(#332,#333,#334,#335,#336,#337,#338,#339,#340,#341,#342,
#343));
#663=EDGE_LOOP('',(#344));
#664=EDGE_LOOP('',(#345));
#665=EDGE_LOOP('',(#346));
#666=EDGE_LOOP('',(#347,#348,#349,#350));
#667=EDGE_LOOP('',(#351,#352,#353,#354));
#668=EDGE_LOOP('',(#355));
#669=EDGE_LOOP('',(#356));
#670=EDGE_LOOP('',(#357));
#671=EDGE_LOOP('',(#358,#359,#360,#361));
#672=EDGE_LOOP('',(#362));
#673=EDGE_LOOP('',(#363));
#674=EDGE_LOOP('',(#364));
#675=EDGE_LOOP('',(#365));
#676=EDGE_LOOP('',(#366));
#677=EDGE_LOOP('',(#367));
#678=EDGE_LOOP('',(#368,#369,#370,#371));
#679=EDGE_LOOP('',(#372,#373,#374,#375));
#680=EDGE_LOOP('',(#376,#377,#378,#379));
#681=EDGE_LOOP('',(#380,#381,#382,#383));
#682=EDGE_LOOP('',(#384));
#683=EDGE_LOOP('',(#385));
#684=EDGE_LOOP('',(#386,#387,#388,#389));
#685=EDGE_LOOP('',(#390,#391,#392,#393));
#686=FACE_BOUND('',#609,.T.);
#687=FACE_BOUND('',#610,.T.);
#688=FACE_BOUND('',#611,.T.);
#689=FACE_BOUND('',#612,.T.);
#690=FACE_BOUND('',#613,.T.);
#691=FACE_BOUND('',#614,.T.);
#692=FACE_BOUND('',#615,.T.);
#693=FACE_BOUND('',#616,.T.);
#694=FACE_BOUND('',#617,.T.);
#695=FACE_BOUND('',#618,.T.);
#696=FACE_BOUND('',#619,.T.);
#697=FACE_BOUND('',#620,.T.);
#698=FACE_BOUND('',#621,.T.);
#699=FACE_BOUND('',#622,.T.);
#700=FACE_BOUND('',#623,.T.);
#701=FACE_BOUND('',#624,.T.);
#702=FACE_BOUND('',#625,.T.);
#703=FACE_BOUND('',#626,.T.);
#704=FACE_BOUND('',#627,.T.);
#705=FACE_BOUND('',#628,.T.);
#706=FACE_BOUND('',#629,.T.);
#707=FACE_BOUND('',#630,.T.);
#708=FACE_BOUND('',#631,.T.);
#709=FACE_BOUND('',#632,.T.);
#710=FACE_BOUND('',#633,.T.);
#711=FACE_BOUND('',#634,.T.);
#712=FACE_BOUND('',#635,.T.);
#713=FACE_BOUND('',#636,.T.);
#714=FACE_BOUND('',#637,.T.);
#715=FACE_BOUND('',#638,.T.);
#716=FACE_BOUND('',#639,.T.);
#717=FACE_BOUND('',#640,.T.);
#718=FACE_BOUND('',#641,.T.);
#719=FACE_BOUND('',#642,.T.);
#720=FACE_BOUND('',#643,.T.);
#721=FACE_BOUND('',#644,.T.);
#722=FACE_BOUND('',#645,.T.);
#723=FACE_BOUND('',#646,.T.);
#724=FACE_BOUND('',#647,.T.);
#725=FACE_BOUND('',#648,.T.);
#726=FACE_BOUND('',#649,.T.);
#727=FACE_BOUND('',#650,.T.);
#728=FACE_BOUND('',#651,.T.);
#729=FACE_BOUND('',#652,.T.);
#730=FACE_BOUND('',#653,.T.);
#731=FACE_BOUND('',#654,.T.);
#732=FACE_BOUND('',#655,.T.);
#733=FACE_BOUND('',#656,.T.);
#734=FACE_BOUND('',#657,.T.);
#735=FACE_BOUND('',#658,.T.);
#736=FACE_BOUND('',#659,.T.);
#737=FACE_BOUND('',#660,.T.);
#738=FACE_BOUND('',#661,.T.);
#739=FACE_BOUND('',#662,.T.);
#740=FACE_BOUND('',#663,.T.);
#741=FACE_BOUND('',#664,.T.);
#742=FACE_BOUND('',#665,.T.);
#743=FACE_BOUND('',#666,.T.);
#744=FACE_BOUND('',#667,.T.);
#745=FACE_BOUND('',#668,.T.);
#746=FACE_BOUND('',#669,.T.);
#747=FACE_BOUND('',#670,.T.);
#748=FACE_BOUND('',#671,.T.);
#749=FACE_BOUND('',#672,.T.);
#750=FACE_BOUND('',#673,.T.);
#751=FACE_BOUND('',#674,.T.);
#752=FACE_BOUND('',#675,.T.);
#753=FACE_BOUND('',#676,.T.);
#754=FACE_BOUND('',#677,.T.);
#755=FACE_BOUND('',#678,.T.);
#756=FACE_BOUND('',#679,.T.);
#757=FACE_BOUND('',#680,.T.);
#758=FACE_BOUND('',#681,.T.);
#759=FACE_BOUND('',#682,.T.);
#760=FACE_BOUND('',#683,.T.);
#761=FACE_BOUND('',#684,.T.);
#762=FACE_BOUND('',#685,.T.);
#763=CYLINDRICAL_SURFACE('',#834,0.01);
#764=CYLINDRICAL_SURFACE('',#837,0.0015);
#765=CYLINDRICAL_SURFACE('',#840,0.003175);
#766=CYLINDRICAL_SURFACE('',#843,0.003175);
#767=CYLINDRICAL_SURFACE('',#846,0.0015);
#768=CYLINDRICAL_SURFACE('',#849,0.0015);
#769=CYLINDRICAL_SURFACE('',#872,0.0014);
#770=CYLINDRICAL_SURFACE('',#874,0.0014);
#771=CYLINDRICAL_SURFACE('',#876,0.0014);
#772=CYLINDRICAL_SURFACE('',#877,0.0014);
#773=CYLINDRICAL_SURFACE('',#887,0.003175);
#774=CYLINDRICAL_SURFACE('',#891,0.00135);
#775=CYLINDRICAL_SURFACE('',#904,0.01);
#776=CYLINDRICAL_SURFACE('',#905,0.0015);
#777=CYLINDRICAL_SURFACE('',#906,0.003175);
#778=CYLINDRICAL_SURFACE('',#907,0.003175);
#779=ADVANCED_FACE('',(#686),#763,.T.);
#780=ADVANCED_FACE('',(#687,#688),#764,.F.);
#781=ADVANCED_FACE('',(#689,#690),#765,.F.);
#782=ADVANCED_FACE('',(#691,#692),#766,.F.);
#783=ADVANCED_FACE('',(#693,#694),#767,.F.);
#784=ADVANCED_FACE('',(#695,#696),#768,.F.);
#785=ADVANCED_FACE('',(#697),#12,.T.);
#786=ADVANCED_FACE('',(#698),#13,.F.);
#787=ADVANCED_FACE('',(#699),#14,.F.);
#788=ADVANCED_FACE('',(#700,#701,#702,#703,#704),#15,.T.);
#789=ADVANCED_FACE('',(#705),#16,.F.);
#790=ADVANCED_FACE('',(#706),#17,.T.);
#791=ADVANCED_FACE('',(#707),#18,.T.);
#792=ADVANCED_FACE('',(#708),#19,.F.);
#793=ADVANCED_FACE('',(#709),#20,.F.);
#794=ADVANCED_FACE('',(#710),#21,.T.);
#795=ADVANCED_FACE('',(#711),#22,.T.);
#796=ADVANCED_FACE('',(#712,#713,#714),#23,.F.);
#797=ADVANCED_FACE('',(#715,#716),#769,.F.);
#798=ADVANCED_FACE('',(#717,#718),#770,.F.);
#799=ADVANCED_FACE('',(#719,#720),#771,.F.);
#800=ADVANCED_FACE('',(#721,#722),#772,.F.);
#801=ADVANCED_FACE('',(#723,#724,#725),#24,.F.);
#802=ADVANCED_FACE('',(#726),#25,.T.);
#803=ADVANCED_FACE('',(#727,#728),#26,.T.);
#804=ADVANCED_FACE('',(#729,#730),#27,.F.);
#805=ADVANCED_FACE('',(#731),#28,.T.);
#806=ADVANCED_FACE('',(#732,#733),#773,.T.);
#807=ADVANCED_FACE('',(#734,#735),#29,.T.);
#808=ADVANCED_FACE('',(#736,#737),#774,.F.);
#809=ADVANCED_FACE('',(#738),#30,.T.);
#810=ADVANCED_FACE('',(#739),#31,.F.);
#811=ADVANCED_FACE('',(#740,#741,#742,#743),#32,.T.);
#812=ADVANCED_FACE('',(#744,#745,#746,#747),#33,.F.);
#813=ADVANCED_FACE('',(#748,#749,#750,#751),#34,.T.);
#814=ADVANCED_FACE('',(#752,#753,#754,#755),#35,.T.);
#815=ADVANCED_FACE('',(#756),#36,.T.);
#816=ADVANCED_FACE('',(#757),#37,.T.);
#817=ADVANCED_FACE('',(#758),#775,.T.);
#818=ADVANCED_FACE('',(#759,#760),#776,.F.);
#819=ADVANCED_FACE('',(#761),#777,.F.);
#820=ADVANCED_FACE('',(#762),#778,.F.);
#821=CLOSED_SHELL('',(#779,#780,#781,#782,#783,#784,#785,#786,#787,#788,
#789,#790,#791,#792,#793,#794,#795,#796,#797,#798,#799,#800,#801,#802,#803,
#804,#805,#806,#807,#808,#809,#810,#811,#812,#813,#814,#815,#816,#817,#818,
#819,#820));
#822=STYLED_ITEM('',(#823),#830);
#823=PRESENTATION_STYLE_ASSIGNMENT((#824));
#824=SURFACE_STYLE_USAGE(.BOTH.,#825);
#825=SURFACE_SIDE_STYLE('',(#826));
#826=SURFACE_STYLE_FILL_AREA(#827);
#827=FILL_AREA_STYLE('',(#828));
#828=FILL_AREA_STYLE_COLOUR('',#829);
#829=COLOUR_RGB('',0.615686274509804,0.811764705882353,0.929411764705882);
#830=MANIFOLD_SOLID_BREP('Part 1',#821);
#831=SHAPE_DEFINITION_REPRESENTATION(#1363,#832);
#832=SHAPE_REPRESENTATION('Part 1',(#833),#1358);
#833=AXIS2_PLACEMENT_3D('',#1131,#908,#909);
#834=AXIS2_PLACEMENT_3D('',#1132,#910,#911);
#835=AXIS2_PLACEMENT_3D('',#1133,#912,#913);
#836=AXIS2_PLACEMENT_3D('',#1138,#915,#916);
#837=AXIS2_PLACEMENT_3D('',#1141,#918,#919);
#838=AXIS2_PLACEMENT_3D('',#1142,#920,#921);
#839=AXIS2_PLACEMENT_3D('',#1144,#922,#923);
#840=AXIS2_PLACEMENT_3D('',#1146,#924,#925);
#841=AXIS2_PLACEMENT_3D('',#1147,#926,#927);
#842=AXIS2_PLACEMENT_3D('',#1149,#928,#929);
#843=AXIS2_PLACEMENT_3D('',#1151,#930,#931);
#844=AXIS2_PLACEMENT_3D('',#1152,#932,#933);
#845=AXIS2_PLACEMENT_3D('',#1154,#934,#935);
#846=AXIS2_PLACEMENT_3D('',#1156,#936,#937);
#847=AXIS2_PLACEMENT_3D('',#1157,#938,#939);
#848=AXIS2_PLACEMENT_3D('',#1159,#940,#941);
#849=AXIS2_PLACEMENT_3D('',#1161,#942,#943);
#850=AXIS2_PLACEMENT_3D('',#1162,#944,#945);
#851=AXIS2_PLACEMENT_3D('',#1164,#946,#947);
#852=AXIS2_PLACEMENT_3D('',#1166,#948,#949);
#853=AXIS2_PLACEMENT_3D('',#1175,#954,#955);
#854=AXIS2_PLACEMENT_3D('',#1192,#964,#965);
#855=AXIS2_PLACEMENT_3D('',#1201,#970,#971);
#856=AXIS2_PLACEMENT_3D('',#1212,#978,#979);
#857=AXIS2_PLACEMENT_3D('',#1214,#980,#981);
#858=AXIS2_PLACEMENT_3D('',#1216,#982,#983);
#859=AXIS2_PLACEMENT_3D('',#1218,#984,#985);
#860=AXIS2_PLACEMENT_3D('',#1220,#986,#987);
#861=AXIS2_PLACEMENT_3D('',#1224,#990,#991);
#862=AXIS2_PLACEMENT_3D('',#1234,#997,#998);
#863=AXIS2_PLACEMENT_3D('',#1240,#1002,#1003);
#864=AXIS2_PLACEMENT_3D('',#1249,#1008,#1009);
#865=AXIS2_PLACEMENT_3D('',#1257,#1013,#1014);
#866=AXIS2_PLACEMENT_3D('',#1258,#1015,#1016);
#867=AXIS2_PLACEMENT_3D('',#1264,#1020,#1021);
#868=AXIS2_PLACEMENT_3D('',#1269,#1025,#1026);
#869=AXIS2_PLACEMENT_3D('',#1271,#1028,#1029);
#870=AXIS2_PLACEMENT_3D('',#1272,#1030,#1031);
#871=AXIS2_PLACEMENT_3D('',#1274,#1032,#1033);
#872=AXIS2_PLACEMENT_3D('',#1277,#1035,#1036);
#873=AXIS2_PLACEMENT_3D('',#1278,#1037,#1038);
#874=AXIS2_PLACEMENT_3D('',#1280,#1039,#1040);
#875=AXIS2_PLACEMENT_3D('',#1281,#1041,#1042);
#876=AXIS2_PLACEMENT_3D('',#1283,#1043,#1044);
#877=AXIS2_PLACEMENT_3D('',#1284,#1045,#1046);
#878=AXIS2_PLACEMENT_3D('',#1285,#1047,#1048);
#879=AXIS2_PLACEMENT_3D('',#1286,#1049,#1050);
#880=AXIS2_PLACEMENT_3D('',#1288,#1052,#1053);
#881=AXIS2_PLACEMENT_3D('',#1296,#1057,#1058);
#882=AXIS2_PLACEMENT_3D('',#1297,#1059,#1060);
#883=AXIS2_PLACEMENT_3D('',#1298,#1061,#1062);
#884=AXIS2_PLACEMENT_3D('',#1301,#1064,#1065);
#885=AXIS2_PLACEMENT_3D('',#1302,#1066,#1067);
#886=AXIS2_PLACEMENT_3D('',#1305,#1069,#1070);
#887=AXIS2_PLACEMENT_3D('',#1306,#1071,#1072);
#888=AXIS2_PLACEMENT_3D('',#1307,#1073,#1074);
#889=AXIS2_PLACEMENT_3D('',#1309,#1075,#1076);
#890=AXIS2_PLACEMENT_3D('',#1310,#1077,#1078);
#891=AXIS2_PLACEMENT_3D('',#1312,#1079,#1080);
#892=AXIS2_PLACEMENT_3D('',#1313,#1081,#1082);
#893=AXIS2_PLACEMENT_3D('',#1326,#1091,#1092);
#894=AXIS2_PLACEMENT_3D('',#1339,#1101,#1102);
#895=AXIS2_PLACEMENT_3D('',#1341,#1104,#1105);
#896=AXIS2_PLACEMENT_3D('',#1342,#1106,#1107);
#897=AXIS2_PLACEMENT_3D('',#1343,#1108,#1109);
#898=AXIS2_PLACEMENT_3D('',#1344,#1110,#1111);
#899=AXIS2_PLACEMENT_3D('',#1346,#1112,#1113);
#900=AXIS2_PLACEMENT_3D('',#1347,#1114,#1115);
#901=AXIS2_PLACEMENT_3D('',#1349,#1116,#1117);
#902=AXIS2_PLACEMENT_3D('',#1351,#1119,#1120);
#903=AXIS2_PLACEMENT_3D('',#1352,#1121,#1122);
#904=AXIS2_PLACEMENT_3D('',#1353,#1123,#1124);
#905=AXIS2_PLACEMENT_3D('',#1354,#1125,#1126);
#906=AXIS2_PLACEMENT_3D('',#1355,#1127,#1128);
#907=AXIS2_PLACEMENT_3D('',#1356,#1129,#1130);
#908=DIRECTION('',(0.,0.,1.));
#909=DIRECTION('',(1.,0.,0.));
#910=DIRECTION('',(1.,1.26161707343768E-16,0.));
#911=DIRECTION('',(-1.26161707343768E-16,1.,0.));
#912=DIRECTION('',(-1.,-1.26161707343768E-16,0.));
#913=DIRECTION('',(1.26161707343768E-16,-1.,0.));
#914=DIRECTION('',(1.,1.26161707343768E-16,0.));
#915=DIRECTION('',(1.,1.26161707343768E-16,0.));
#916=DIRECTION('',(-1.26161707343768E-16,1.,0.));
#917=DIRECTION('',(1.,1.26161707343768E-16,0.));
#918=DIRECTION('',(-1.,-1.26161707343768E-16,0.));
#919=DIRECTION('',(1.26161707343768E-16,-1.,0.));
#920=DIRECTION('',(1.,1.26161707343768E-16,0.));
#921=DIRECTION('',(-1.26161707343768E-16,1.,0.));
#922=DIRECTION('',(-1.,-1.26161707343768E-16,0.));
#923=DIRECTION('',(1.26161707343768E-16,-1.,0.));
#924=DIRECTION('',(1.,1.26161707343768E-16,0.));
#925=DIRECTION('',(-1.26161707343768E-16,1.,0.));
#926=DIRECTION('',(1.,1.26161707343768E-16,0.));
#927=DIRECTION('',(-1.26161707343768E-16,1.,0.));
#928=DIRECTION('',(-1.,-1.26161707343768E-16,0.));
#929=DIRECTION('',(1.26161707343768E-16,-1.,0.));
#930=DIRECTION('',(1.,1.26161707343768E-16,0.));
#931=DIRECTION('',(-1.26161707343768E-16,1.,0.));
#932=DIRECTION('',(-1.,-1.26161707343768E-16,0.));
#933=DIRECTION('',(1.26161707343768E-16,-1.,0.));
#934=DIRECTION('',(1.,0.,0.));
#935=DIRECTION('',(0.,0.,-1.));
#936=DIRECTION('',(-1.,-1.26161707343768E-16,0.));
#937=DIRECTION('',(1.26161707343768E-16,-1.,0.));
#938=DIRECTION('',(-1.,-1.26161707343768E-16,0.));
#939=DIRECTION('',(1.26161707343768E-16,-1.,0.));
#940=DIRECTION('',(-1.,-1.26161707343768E-16,0.));
#941=DIRECTION('',(1.26161707343768E-16,-1.,0.));
#942=DIRECTION('',(-1.,-1.26161707343768E-16,0.));
#943=DIRECTION('',(1.26161707343768E-16,-1.,0.));
#944=DIRECTION('',(-1.,-1.26161707343768E-16,0.));
#945=DIRECTION('',(1.26161707343768E-16,-1.,0.));
#946=DIRECTION('',(1.,0.,0.));
#947=DIRECTION('',(0.,0.,-1.));
#948=DIRECTION('',(-1.26161707343768E-16,1.,0.));
#949=DIRECTION('',(-1.,-1.26161707343768E-16,0.));
#950=DIRECTION('',(1.,1.26161707343768E-16,0.));
#951=DIRECTION('',(0.,0.,1.));
#952=DIRECTION('',(1.,1.26161707343768E-16,0.));
#953=DIRECTION('',(0.,0.,1.));
#954=DIRECTION('',(1.26161707343768E-16,-1.,0.));
#955=DIRECTION('',(1.,1.26161707343768E-16,0.));
#956=DIRECTION('',(0.,0.,-1.));
#957=DIRECTION('',(1.,1.26161707343768E-16,0.));
#958=DIRECTION('',(0.,0.,-1.));
#959=DIRECTION('',(-1.,-1.26161707343768E-16,0.));
#960=DIRECTION('',(0.,0.,-1.));
#961=DIRECTION('',(-1.,0.,0.));
#962=DIRECTION('',(0.,0.,-1.));
#963=DIRECTION('',(-1.,-1.26161707343768E-16,0.));
#964=DIRECTION('',(-1.,0.,0.));
#965=DIRECTION('',(0.,0.,1.));
#966=DIRECTION('',(0.,0.,-1.));
#967=DIRECTION('',(0.,1.,0.));
#968=DIRECTION('',(0.,0.,1.));
#969=DIRECTION('',(0.,1.,0.));
#970=DIRECTION('',(0.,0.,1.));
#971=DIRECTION('',(1.,0.,0.));
#972=DIRECTION('',(-1.,-8.56653568383609E-17,0.));
#973=DIRECTION('',(0.,1.,0.));
#974=DIRECTION('',(-1.,-1.26161707343768E-16,0.));
#975=DIRECTION('',(0.,1.,0.));
#976=DIRECTION('',(0.,1.,0.));
#977=DIRECTION('',(-1.,-1.26161707343768E-16,0.));
#978=DIRECTION('',(0.,0.,1.));
#979=DIRECTION('',(1.,0.,0.));
#980=DIRECTION('',(0.,0.,1.));
#981=DIRECTION('',(1.,0.,0.));
#982=DIRECTION('',(0.,0.,1.));
#983=DIRECTION('',(1.,0.,0.));
#984=DIRECTION('',(0.,0.,1.));
#985=DIRECTION('',(1.,0.,0.));
#986=DIRECTION('',(-1.,0.,0.));
#987=DIRECTION('',(0.,0.,1.));
#988=DIRECTION('',(0.,1.,0.));
#989=DIRECTION('',(0.,0.,-1.));
#990=DIRECTION('',(1.26161707343768E-16,-1.,0.));
#991=DIRECTION('',(1.,1.26161707343768E-16,0.));
#992=DIRECTION('',(-1.,-1.26161707343768E-16,0.));
#993=DIRECTION('',(-1.,0.,0.));
#994=DIRECTION('',(0.,0.,-1.));
#995=DIRECTION('',(-1.,-1.26161707343768E-16,0.));
#996=DIRECTION('',(0.,0.,-1.));
#997=DIRECTION('',(1.26161707343768E-16,-1.,0.));
#998=DIRECTION('',(1.,1.26161707343768E-16,0.));
#999=DIRECTION('',(-1.,0.,0.));
#1000=DIRECTION('',(0.,0.,-1.));
#1001=DIRECTION('',(0.,0.,1.));
#1002=DIRECTION('',(-1.,0.,0.));
#1003=DIRECTION('',(0.,0.,1.));
#1004=DIRECTION('',(0.,1.,1.2519429686797E-16));
#1005=DIRECTION('',(0.,0.,-1.));
#1006=DIRECTION('',(0.,1.,0.));
#1007=DIRECTION('',(0.,0.,-1.));
#1008=DIRECTION('',(-1.,0.,0.));
#1009=DIRECTION('',(0.,0.,1.));
#1010=DIRECTION('',(1.26161707343768E-16,-1.,0.));
#1011=DIRECTION('',(0.,0.,1.));
#1012=DIRECTION('',(1.26161707343768E-16,-1.,0.));
#1013=DIRECTION('',(-1.,0.,0.));
#1014=DIRECTION('',(0.,0.,1.));
#1015=DIRECTION('',(1.26161707343768E-16,-1.,0.));
#1016=DIRECTION('',(1.,1.26161707343768E-16,0.));
#1017=DIRECTION('',(0.,0.,-1.));
#1018=DIRECTION('',(1.,1.26161707343768E-16,0.));
#1019=DIRECTION('',(-1.,-1.26161707343768E-16,0.));
#1020=DIRECTION('',(8.56653568383608E-17,-1.,0.));
#1021=DIRECTION('',(1.,8.56653568383609E-17,0.));
#1022=DIRECTION('',(-1.,-8.56653568383609E-17,0.));
#1023=DIRECTION('',(-1.,0.,0.));
#1024=DIRECTION('',(0.,0.,-1.));
#1025=DIRECTION('',(-1.,0.,0.));
#1026=DIRECTION('',(0.,0.,1.));
#1027=DIRECTION('',(0.,1.,1.2519429686797E-16));
#1028=DIRECTION('',(0.,0.,1.));
#1029=DIRECTION('',(1.,0.,0.));
#1030=DIRECTION('',(0.,0.,1.));
#1031=DIRECTION('',(1.,0.,0.));
#1032=DIRECTION('',(0.,0.,1.));
#1033=DIRECTION('',(1.,0.,0.));
#1034=DIRECTION('',(0.,1.,0.));
#1035=DIRECTION('',(0.,0.,1.));
#1036=DIRECTION('',(1.,0.,0.));
#1037=DIRECTION('',(0.,-1.2519429686797E-16,1.));
#1038=DIRECTION('',(0.,-1.,-1.2519429686797E-16));
#1039=DIRECTION('',(0.,0.,1.));
#1040=DIRECTION('',(1.,0.,0.));
#1041=DIRECTION('',(0.,-1.2519429686797E-16,1.));
#1042=DIRECTION('',(0.,-1.,-1.2519429686797E-16));
#1043=DIRECTION('',(0.,0.,1.));
#1044=DIRECTION('',(1.,0.,0.));
#1045=DIRECTION('',(0.,0.,1.));
#1046=DIRECTION('',(1.,0.,0.));
#1047=DIRECTION('',(0.,-1.2519429686797E-16,1.));
#1048=DIRECTION('',(0.,-1.,-1.2519429686797E-16));
#1049=DIRECTION('',(-1.,0.,0.));
#1050=DIRECTION('',(0.,0.,1.));
#1051=DIRECTION('',(0.,1.,0.));
#1052=DIRECTION('',(-1.,0.,0.));
#1053=DIRECTION('',(0.,0.,1.));
#1054=DIRECTION('',(1.26161707343768E-16,-1.,0.));
#1055=DIRECTION('',(0.,0.,-1.));
#1056=DIRECTION('',(1.26161707343768E-16,-1.,0.));
#1057=DIRECTION('',(-1.,0.,0.));
#1058=DIRECTION('',(0.,0.,1.));
#1059=DIRECTION('',(0.,0.,1.));
#1060=DIRECTION('',(1.,0.,0.));
#1061=DIRECTION('',(0.,0.,1.));
#1062=DIRECTION('',(1.,0.,0.));
#1063=DIRECTION('',(0.,1.,0.));
#1064=DIRECTION('',(0.,0.,1.));
#1065=DIRECTION('',(1.,0.,0.));
#1066=DIRECTION('',(0.,0.,-1.));
#1067=DIRECTION('',(-1.,0.,0.));
#1068=DIRECTION('',(0.,1.,0.));
#1069=DIRECTION('',(1.,0.,0.));
#1070=DIRECTION('',(0.,1.,0.));
#1071=DIRECTION('',(0.,0.,-1.));
#1072=DIRECTION('',(-1.,0.,0.));
#1073=DIRECTION('',(0.,0.,1.));
#1074=DIRECTION('',(1.,0.,0.));
#1075=DIRECTION('',(0.,0.,1.));
#1076=DIRECTION('',(1.,0.,0.));
#1077=DIRECTION('',(0.,0.,1.));
#1078=DIRECTION('',(1.,0.,0.));
#1079=DIRECTION('',(0.,0.,-1.));
#1080=DIRECTION('',(-1.,0.,0.));
#1081=DIRECTION('',(0.,0.,-1.));
#1082=DIRECTION('',(-1.,0.,0.));
#1083=DIRECTION('',(1.,1.26161707343768E-16,0.));
#1084=DIRECTION('',(-0.707106781186548,0.707106781186547,0.));
#1085=DIRECTION('',(1.26161707343768E-16,-1.,0.));
#1086=DIRECTION('',(1.,1.26161707343768E-16,0.));
#1087=DIRECTION('',(1.26161707343768E-16,-1.,0.));
#1088=DIRECTION('',(1.26161707343768E-16,-1.,0.));
#1089=DIRECTION('',(1.26161707343768E-16,-1.,0.));
#1090=DIRECTION('',(-0.707106781186547,-0.707106781186548,0.));
#1091=DIRECTION('',(0.,0.,-1.));
#1092=DIRECTION('',(-1.,0.,0.));
#1093=DIRECTION('',(1.,1.26161707343768E-16,0.));
#1094=DIRECTION('',(0.707106781186547,0.707106781186548,0.));
#1095=DIRECTION('',(1.26161707343768E-16,-1.,0.));
#1096=DIRECTION('',(1.26161707343768E-16,-1.,0.));
#1097=DIRECTION('',(1.26161707343768E-16,-1.,0.));
#1098=DIRECTION('',(1.,1.26161707343768E-16,0.));
#1099=DIRECTION('',(1.26161707343768E-16,-1.,0.));
#1100=DIRECTION('',(0.707106781186548,-0.707106781186547,0.));
#1101=DIRECTION('',(1.,1.26161707343768E-16,0.));
#1102=DIRECTION('',(-1.26161707343768E-16,1.,0.));
#1103=DIRECTION('',(0.,0.,-1.));
#1104=DIRECTION('',(1.,1.26161707343768E-16,0.));
#1105=DIRECTION('',(-1.26161707343768E-16,1.,0.));
#1106=DIRECTION('',(1.,1.26161707343768E-16,0.));
#1107=DIRECTION('',(-1.26161707343768E-16,1.,0.));
#1108=DIRECTION('',(1.,0.,0.));
#1109=DIRECTION('',(0.,0.,-1.));
#1110=DIRECTION('',(-1.,0.,0.));
#1111=DIRECTION('',(0.,0.,1.));
#1112=DIRECTION('',(-1.,-1.26161707343768E-16,0.));
#1113=DIRECTION('',(1.26161707343768E-16,-1.,0.));
#1114=DIRECTION('',(-1.,-1.26161707343768E-16,0.));
#1115=DIRECTION('',(1.26161707343768E-16,-1.,0.));
#1116=DIRECTION('',(-1.,-1.26161707343768E-16,0.));
#1117=DIRECTION('',(1.26161707343768E-16,-1.,0.));
#1118=DIRECTION('',(0.,0.,1.));
#1119=DIRECTION('',(0.707106781186548,-0.707106781186547,0.));
#1120=DIRECTION('',(0.,0.,-1.));
#1121=DIRECTION('',(-0.707106781186547,-0.707106781186548,0.));
#1122=DIRECTION('',(0.,0.,1.));
#1123=DIRECTION('',(1.,1.26161707343768E-16,0.));
#1124=DIRECTION('',(-1.26161707343768E-16,1.,0.));
#1125=DIRECTION('',(-1.,-1.26161707343768E-16,0.));
#1126=DIRECTION('',(1.26161707343768E-16,-1.,0.));
#1127=DIRECTION('',(1.,1.26161707343768E-16,0.));
#1128=DIRECTION('',(-1.26161707343768E-16,1.,0.));
#1129=DIRECTION('',(-1.,-1.26161707343768E-16,0.));
#1130=DIRECTION('',(1.26161707343768E-16,-1.,0.));
#1131=CARTESIAN_POINT('',(0.,0.,0.));
#1132=CARTESIAN_POINT('',(-0.034527,0.0873125,0.01425));
#1133=CARTESIAN_POINT('',(0.021825,0.0873125,0.01425));
#1134=CARTESIAN_POINT('',(0.021825,0.078519400788118,0.0094875));
#1135=CARTESIAN_POINT('',(0.021825,0.078519400788118,0.0190125));
#1136=CARTESIAN_POINT('',(-0.034527,0.078519400788118,0.0190125));
#1137=CARTESIAN_POINT('',(0.028175,0.078519400788118,0.0190125));
#1138=CARTESIAN_POINT('',(0.028175,0.0873125,0.01425));
#1139=CARTESIAN_POINT('',(0.028175,0.078519400788118,0.0094875));
#1140=CARTESIAN_POINT('',(-0.034527,0.078519400788118,0.0094875));
#1141=CARTESIAN_POINT('',(0.028175,0.0873125,0.02175));
#1142=CARTESIAN_POINT('',(0.021825,0.0873125,0.02175));
#1143=CARTESIAN_POINT('',(0.021825,0.0888125,0.02175));
#1144=CARTESIAN_POINT('',(0.028175,0.0873125,0.02175));
#1145=CARTESIAN_POINT('',(0.028175,0.0858125,0.02175));
#1146=CARTESIAN_POINT('',(-0.034527,0.0873125,0.01425));
#1147=CARTESIAN_POINT('',(0.028175,0.0873125,0.01425));
#1148=CARTESIAN_POINT('',(0.028175,0.0904875,0.01425));
#1149=CARTESIAN_POINT('',(0.021825,0.0873125,0.01425));
#1150=CARTESIAN_POINT('',(0.021825,0.0841375,0.01425));
#1151=CARTESIAN_POINT('',(-0.034527,0.0873125,0.01425));
#1152=CARTESIAN_POINT('',(-0.034525,0.0873125,0.01425));
#1153=CARTESIAN_POINT('',(-0.034525,0.0841375,0.01425));
#1154=CARTESIAN_POINT('',(-0.028175,0.0873125,0.01425));
#1155=CARTESIAN_POINT('',(-0.028175,0.0873125,0.011075));
#1156=CARTESIAN_POINT('',(0.028175,0.0873125,0.00675));
#1157=CARTESIAN_POINT('',(0.028175,0.0873125,0.00675));
#1158=CARTESIAN_POINT('',(0.028175,0.0858125,0.00675));
#1159=CARTESIAN_POINT('',(0.021825,0.0873125,0.00675));
#1160=CARTESIAN_POINT('',(0.021825,0.0858125,0.00675));
#1161=CARTESIAN_POINT('',(0.028175,0.0873125,0.00675));
#1162=CARTESIAN_POINT('',(-0.034525,0.0873125,0.00675));
#1163=CARTESIAN_POINT('',(-0.034525,0.0858125,0.00675));
#1164=CARTESIAN_POINT('',(-0.028175,0.0873125,0.00675));
#1165=CARTESIAN_POINT('',(-0.028175,0.0873125,0.00525));
#1166=CARTESIAN_POINT('',(0.0275,0.0238125,0.02385));
#1167=CARTESIAN_POINT('',(0.0275,0.0238125,0.0094875));
#1168=CARTESIAN_POINT('',(-0.028175,0.0238125,0.0094875));
#1169=CARTESIAN_POINT('',(0.021825,0.0238125,0.0094875));
#1170=CARTESIAN_POINT('',(-0.028175,0.0238125,0.01425));
#1171=CARTESIAN_POINT('',(-0.028175,0.0238125,0.0190125));
#1172=CARTESIAN_POINT('',(0.0275,0.0238125,0.0190125));
#1173=CARTESIAN_POINT('',(0.021825,0.0238125,0.0190125));
#1174=CARTESIAN_POINT('',(0.021825,0.0238125,0.01425));
#1175=CARTESIAN_POINT('',(0.,0.0174625,0.0285));
#1176=CARTESIAN_POINT('',(0.0275,0.0174625,0.0285));
#1177=CARTESIAN_POINT('',(0.0275,0.0174625,0.0285));
#1178=CARTESIAN_POINT('',(0.0275,0.0174625,0.0221875));
#1179=CARTESIAN_POINT('',(-0.03385,0.0174625,0.0221875));
#1180=CARTESIAN_POINT('',(-0.03385,0.0174625,0.0221875));
#1181=CARTESIAN_POINT('',(-0.03385,0.0174625,0.0285));
#1182=CARTESIAN_POINT('',(-0.03385,0.0174625,0.0477));
#1183=CARTESIAN_POINT('',(0.,0.0174625,0.0477));
#1184=CARTESIAN_POINT('',(-0.0021,0.0174625,0.0477));
#1185=CARTESIAN_POINT('',(-0.0021,0.0174625,0.0477));
#1186=CARTESIAN_POINT('',(-0.0021,0.0174625,0.044525));
#1187=CARTESIAN_POINT('',(-0.0021,0.0174625,0.044525));
#1188=CARTESIAN_POINT('',(-0.0275,0.0174625,0.044525));
#1189=CARTESIAN_POINT('',(-0.0275,0.0174625,0.0477));
#1190=CARTESIAN_POINT('',(-0.0275,0.0174625,0.0285));
#1191=CARTESIAN_POINT('',(0.,0.0174625,0.0285));
#1192=CARTESIAN_POINT('',(-0.02025,-0.007625,0.0285));
#1193=CARTESIAN_POINT('',(-0.02025,0.01025,0.0285));
#1194=CARTESIAN_POINT('',(-0.02025,0.01025,0.0285));
#1195=CARTESIAN_POINT('',(-0.02025,0.01025,0.));
#1196=CARTESIAN_POINT('',(-0.02025,-0.007625,0.0285));
#1197=CARTESIAN_POINT('',(-0.02025,-0.0174625,0.0285));
#1198=CARTESIAN_POINT('',(-0.02025,-0.0174625,0.0285));
#1199=CARTESIAN_POINT('',(-0.02025,-0.0174625,0.));
#1200=CARTESIAN_POINT('',(-0.02025,-0.007625,0.));
#1201=CARTESIAN_POINT('',(0.,0.,0.0285));
#1202=CARTESIAN_POINT('',(0.,0.01025,0.0285));
#1203=CARTESIAN_POINT('',(0.02025,0.01025,0.0285));
#1204=CARTESIAN_POINT('',(0.02025,-0.007625,0.0285));
#1205=CARTESIAN_POINT('',(0.02025,-0.0174625,0.0285));
#1206=CARTESIAN_POINT('',(0.,-0.0174625,0.0285));
#1207=CARTESIAN_POINT('',(0.0275,-0.0174625,0.0285));
#1208=CARTESIAN_POINT('',(0.0275,3.46944695195361E-18,0.0285));
#1209=CARTESIAN_POINT('',(-0.0275,0.,0.0285));
#1210=CARTESIAN_POINT('',(-0.0275,-0.0174625,0.0285));
#1211=CARTESIAN_POINT('',(0.,-0.0174625,0.0285));
#1212=CARTESIAN_POINT('',(-0.0245,-0.005,0.0285));
#1213=CARTESIAN_POINT('',(-0.0231,-0.005,0.0285));
#1214=CARTESIAN_POINT('',(-0.0245,0.005,0.0285));
#1215=CARTESIAN_POINT('',(-0.0231,0.005,0.0285));
#1216=CARTESIAN_POINT('',(0.0245,0.005,0.0285));
#1217=CARTESIAN_POINT('',(0.0259,0.005,0.0285));
#1218=CARTESIAN_POINT('',(0.0245,-0.005,0.0285));
#1219=CARTESIAN_POINT('',(0.0259,-0.005,0.0285));
#1220=CARTESIAN_POINT('',(-0.0275,0.,0.0477));
#1221=CARTESIAN_POINT('',(-0.0275,-3.46944695195361E-18,0.044525));
#1222=CARTESIAN_POINT('',(-0.0275,-0.0174625,0.044525));
#1223=CARTESIAN_POINT('',(-0.0275,-0.0174625,0.0477));
#1224=CARTESIAN_POINT('',(0.,-0.0174625,0.0285));
#1225=CARTESIAN_POINT('',(0.,-0.0174625,0.));
#1226=CARTESIAN_POINT('',(-0.03385,-0.0174625,0.));
#1227=CARTESIAN_POINT('',(-0.0021,-0.0174625,0.044525));
#1228=CARTESIAN_POINT('',(-0.0021,-0.0174625,0.044525));
#1229=CARTESIAN_POINT('',(-0.0021,-0.0174625,0.0477));
#1230=CARTESIAN_POINT('',(-0.0021,-0.0174625,0.0477));
#1231=CARTESIAN_POINT('',(0.,-0.0174625,0.0477));
#1232=CARTESIAN_POINT('',(-0.03385,-0.0174625,0.0477));
#1233=CARTESIAN_POINT('',(-0.03385,-0.0174625,0.0285));
#1234=CARTESIAN_POINT('',(0.,-0.0174625,0.0285));
#1235=CARTESIAN_POINT('',(0.04565,-0.0174625,0.007125));
#1236=CARTESIAN_POINT('',(0.0275,-0.0174625,0.007125));
#1237=CARTESIAN_POINT('',(0.02025,-0.0174625,0.007125));
#1238=CARTESIAN_POINT('',(0.0275,-0.0174625,0.0285));
#1239=CARTESIAN_POINT('',(0.02025,-0.0174625,0.0285));
#1240=CARTESIAN_POINT('',(0.0275,3.46944695195361E-18,0.0285));
#1241=CARTESIAN_POINT('',(0.0275,6.14547504750647E-18,0.007125));
#1242=CARTESIAN_POINT('',(0.0275,0.01025,0.007125));
#1243=CARTESIAN_POINT('',(0.0275,0.01025,0.0285));
#1244=CARTESIAN_POINT('',(0.0275,0.01025,0.));
#1245=CARTESIAN_POINT('',(0.0275,3.46944695195361E-18,0.));
#1246=CARTESIAN_POINT('',(0.0275,0.0174625,0.));
#1247=CARTESIAN_POINT('',(0.0275,0.0174625,0.0285));
#1248=CARTESIAN_POINT('',(0.0275,0.0174625,0.0063125));
#1249=CARTESIAN_POINT('',(0.0275,0.0206375,0.0063125));
#1250=CARTESIAN_POINT('',(0.0275,0.0206375,0.0094875));
#1251=CARTESIAN_POINT('',(0.0275,0.0238125,0.0094875));
#1252=CARTESIAN_POINT('',(0.0275,0.0409175,0.0094875));
#1253=CARTESIAN_POINT('',(0.0275,0.0409175,0.0285));
#1254=CARTESIAN_POINT('',(0.0275,0.0409175,0.0190125));
#1255=CARTESIAN_POINT('',(0.0275,0.0238125,0.0190125));
#1256=CARTESIAN_POINT('',(0.0275,0.0206375,0.0190125));
#1257=CARTESIAN_POINT('',(0.0275,0.0206375,0.0221875));
#1258=CARTESIAN_POINT('',(0.,0.0174625,0.0285));
#1259=CARTESIAN_POINT('',(-0.03385,0.0174625,0.0285));
#1260=CARTESIAN_POINT('',(-0.03385,0.0174625,0.0063125));
#1261=CARTESIAN_POINT('',(-0.03385,0.0174625,0.));
#1262=CARTESIAN_POINT('',(0.,0.0174625,0.0063125));
#1263=CARTESIAN_POINT('',(0.,0.0174625,0.));
#1264=CARTESIAN_POINT('',(0.,0.01025,0.0285));
#1265=CARTESIAN_POINT('',(0.,0.01025,0.));
#1266=CARTESIAN_POINT('',(0.04565,0.01025,0.007125));
#1267=CARTESIAN_POINT('',(0.02025,0.01025,0.007125));
#1268=CARTESIAN_POINT('',(0.02025,0.01025,0.0285));
#1269=CARTESIAN_POINT('',(0.02025,-0.007625,0.0285));
#1270=CARTESIAN_POINT('',(0.02025,-0.00360625,0.007125));
#1271=CARTESIAN_POINT('',(0.,0.,0.));
#1272=CARTESIAN_POINT('',(-0.0245,-0.005,0.));
#1273=CARTESIAN_POINT('',(-0.0231,-0.005,0.));
#1274=CARTESIAN_POINT('',(-0.0245,0.005,0.));
#1275=CARTESIAN_POINT('',(-0.0231,0.005,0.));
#1276=CARTESIAN_POINT('',(-0.03385,-3.46944695195361E-18,0.));
#1277=CARTESIAN_POINT('',(0.0245,-0.005,0.));
#1278=CARTESIAN_POINT('',(0.0245,-0.005,0.007125));
#1279=CARTESIAN_POINT('',(0.0245,-0.0064,0.007125));
#1280=CARTESIAN_POINT('',(0.0245,0.005,0.));
#1281=CARTESIAN_POINT('',(0.0245,0.005,0.007125));
#1282=CARTESIAN_POINT('',(0.0245,0.0036,0.007125));
#1283=CARTESIAN_POINT('',(-0.0245,0.005,0.));
#1284=CARTESIAN_POINT('',(-0.0245,-0.005,0.));
#1285=CARTESIAN_POINT('',(0.04565,-0.00360625,0.007125));
#1286=CARTESIAN_POINT('',(-0.03385,-3.46944695195361E-18,0.0285));
#1287=CARTESIAN_POINT('',(-0.03385,-3.46944695195361E-18,0.0477));
#1288=CARTESIAN_POINT('',(-0.03385,0.0206375,0.0221875));
#1289=CARTESIAN_POINT('',(-0.03385,0.0206375,0.0190125));
#1290=CARTESIAN_POINT('',(-0.03385,0.0238125,0.0190125));
#1291=CARTESIAN_POINT('',(-0.03385,0.0409175,0.0190125));
#1292=CARTESIAN_POINT('',(-0.03385,0.0409175,0.0190125));
#1293=CARTESIAN_POINT('',(-0.03385,0.0409175,0.0094875));
#1294=CARTESIAN_POINT('',(-0.03385,0.0238125,0.0094875));
#1295=CARTESIAN_POINT('',(-0.03385,0.0206375,0.0094875));
#1296=CARTESIAN_POINT('',(-0.03385,0.0206375,0.0063125));
#1297=CARTESIAN_POINT('',(-0.003175,0.,0.0477));
#1298=CARTESIAN_POINT('',(-0.018,1.94412679364643E-19,0.0477));
#1299=CARTESIAN_POINT('',(-0.014825,1.94412679364643E-19,0.0477));
#1300=CARTESIAN_POINT('',(-0.0021,0.,0.0477));
#1301=CARTESIAN_POINT('',(-0.0021,-3.46944695195361E-18,0.044525));
#1302=CARTESIAN_POINT('',(-0.018,6.12601653186377E-19,0.044525));
#1303=CARTESIAN_POINT('',(-0.01935,6.12601653186377E-19,0.044525));
#1304=CARTESIAN_POINT('',(-0.0021,-3.46944695195361E-18,0.044525));
#1305=CARTESIAN_POINT('',(-0.0021,-3.46944695195361E-18,0.0381));
#1306=CARTESIAN_POINT('',(-0.018,1.94412679364643E-19,0.0539));
#1307=CARTESIAN_POINT('',(-0.018,1.94412679364643E-19,0.055424));
#1308=CARTESIAN_POINT('',(-0.014825,1.94412679364643E-19,0.055424));
#1309=CARTESIAN_POINT('',(-0.0025,0.,0.055424));
#1310=CARTESIAN_POINT('',(-0.018,6.12601653186377E-19,0.055424));
#1311=CARTESIAN_POINT('',(-0.01665,6.12601653186377E-19,0.055424));
#1312=CARTESIAN_POINT('',(-0.018,6.12601653186377E-19,0.058599));
#1313=CARTESIAN_POINT('',(0.0275,0.0238125,0.0094875));
#1314=CARTESIAN_POINT('',(0.0275,0.0206375,0.0094875));
#1315=CARTESIAN_POINT('',(0.0053775,0.00169,0.0094875));
#1316=CARTESIAN_POINT('',(-0.034525,0.0415925,0.0094875));
#1317=CARTESIAN_POINT('',(-0.034525,0.0873125,0.0094875));
#1318=CARTESIAN_POINT('',(-0.034525,0.078519400788118,0.0094875));
#1319=CARTESIAN_POINT('',(-0.034527,0.078519400788118,0.0094875));
#1320=CARTESIAN_POINT('',(-0.028175,0.078519400788118,0.0094875));
#1321=CARTESIAN_POINT('',(-0.028175,0.0873125,0.0094875));
#1322=CARTESIAN_POINT('',(0.021825,0.0873125,0.0094875));
#1323=CARTESIAN_POINT('',(0.028175,0.0873125,0.0094875));
#1324=CARTESIAN_POINT('',(0.028175,0.0415925,0.0094875));
#1325=CARTESIAN_POINT('',(0.0189475,0.032365,0.0094875));
#1326=CARTESIAN_POINT('',(0.0275,0.0238125,0.0190125));
#1327=CARTESIAN_POINT('',(0.0275,0.0206375,0.0190125));
#1328=CARTESIAN_POINT('',(0.010395,0.0238125,0.0190125));
#1329=CARTESIAN_POINT('',(0.028175,0.0415925,0.0190125));
#1330=CARTESIAN_POINT('',(0.028175,0.0873125,0.0190125));
#1331=CARTESIAN_POINT('',(0.021825,0.0873125,0.0190125));
#1332=CARTESIAN_POINT('',(-0.028175,0.0873125,0.0190125));
#1333=CARTESIAN_POINT('',(-0.028175,0.078519400788118,0.0190125));
#1334=CARTESIAN_POINT('',(-0.034527,0.078519400788118,0.0190125));
#1335=CARTESIAN_POINT('',(-0.034525,0.078519400788118,0.0190125));
#1336=CARTESIAN_POINT('',(-0.034525,0.0873125,0.0190125));
#1337=CARTESIAN_POINT('',(-0.034525,0.0415925,0.0190125));
#1338=CARTESIAN_POINT('',(-0.016745,0.0238125,0.0190125));
#1339=CARTESIAN_POINT('',(0.028175,0.0873125,0.01425));
#1340=CARTESIAN_POINT('',(0.028175,0.0415925,0.0094875));
#1341=CARTESIAN_POINT('',(0.021825,0.0873125,0.01425));
#1342=CARTESIAN_POINT('',(-0.028175,0.0873125,0.01425));
#1343=CARTESIAN_POINT('',(-0.028175,0.0873125,0.01425));
#1344=CARTESIAN_POINT('',(-0.028175,0.0873125,0.02175));
#1345=CARTESIAN_POINT('',(-0.028175,0.0873125,0.02325));
#1346=CARTESIAN_POINT('',(-0.034525,0.0873125,0.01425));
#1347=CARTESIAN_POINT('',(-0.034525,0.0873125,0.02175));
#1348=CARTESIAN_POINT('',(-0.034525,0.0858125,0.02175));
#1349=CARTESIAN_POINT('',(-0.034525,0.0873125,0.01425));
#1350=CARTESIAN_POINT('',(-0.034525,0.0415925,0.0190125));
#1351=CARTESIAN_POINT('',(0.010395,0.0238125,0.0190125));
#1352=CARTESIAN_POINT('',(-0.016745,0.0238125,0.0190125));
#1353=CARTESIAN_POINT('',(-0.034527,0.0873125,0.01425));
#1354=CARTESIAN_POINT('',(0.028175,0.0873125,0.02175));
#1355=CARTESIAN_POINT('',(-4.00563420816463E-19,0.0206375,0.0063125));
#1356=CARTESIAN_POINT('',(0.0275,0.0206375,0.0221875));
#1357=MECHANICAL_DESIGN_GEOMETRIC_PRESENTATION_REPRESENTATION('',(#822),
#1358);
#1358=(
GEOMETRIC_REPRESENTATION_CONTEXT(3)
GLOBAL_UNCERTAINTY_ASSIGNED_CONTEXT((#1359))
GLOBAL_UNIT_ASSIGNED_CONTEXT((#1362,#1361,#1360))
REPRESENTATION_CONTEXT('Part 1','TOP_LEVEL_ASSEMBLY_PART')
);
#1359=UNCERTAINTY_MEASURE_WITH_UNIT(LENGTH_MEASURE(1.E-8),#1362,
'DISTANCE_ACCURACY_VALUE','Maximum Tolerance applied to model');
#1360=(
NAMED_UNIT(*)
SI_UNIT($,.STERADIAN.)
SOLID_ANGLE_UNIT()
);
#1361=(
NAMED_UNIT(*)
PLANE_ANGLE_UNIT()
SI_UNIT($,.RADIAN.)
);
#1362=(
LENGTH_UNIT()
NAMED_UNIT(*)
SI_UNIT($,.METRE.)
);
#1363=PRODUCT_DEFINITION_SHAPE('','',#1364);
#1364=PRODUCT_DEFINITION('','',#1366,#1365);
#1365=PRODUCT_DEFINITION_CONTEXT('',#1372,'design');
#1366=PRODUCT_DEFINITION_FORMATION_WITH_SPECIFIED_SOURCE('','',#1368,
 .NOT_KNOWN.);
#1367=PRODUCT_RELATED_PRODUCT_CATEGORY('','',(#1368));
#1368=PRODUCT('Part 1','Part 1','Part 1',(#1370));
#1369=PRODUCT_CATEGORY('','');
#1370=PRODUCT_CONTEXT('',#1372,'mechanical');
#1371=APPLICATION_PROTOCOL_DEFINITION('international standard',
'ap242_managed_model_based_3d_engineering',2020,#1372);
#1372=APPLICATION_CONTEXT('managed model based 3d engineering');
ENDSEC;
END-ISO-10303-21;
