ISO-10303-21;
HEADER;
/* Generated by software containing ST-Developer
 * from STEP Tools, Inc. (www.steptools.com) 
 */
/* OPTION: using custom renumber hook */

FILE_DESCRIPTION(
/* description */ ('STEP AP242 Edition 2',
'CAx-IF Rec.Pracs.---Representation and Presentation of Product Manufa
cturing Information (PMI)---4.0---2014-10-13',
'CAx-IF Rec.Pracs.---3D Tessellated Geometry---0.4---2014-09-14','2;1',
'CAx-IF Rec.Pracs.---User Defined Attributes---1.5---2016-08-15'),
/* implementation_level */ '2;1');

FILE_NAME(
/* name */ 'Full Assembly - Part 3 (1)',
/* time_stamp */ '2026-08-15T05:10:10Z',
/* author */ (''),
/* organization */ (''),
/* preprocessor_version */ 'ST-DEVELOPER v20',
/* originating_system */ 'ONSHAPE BY PTC INC, 1.219',
/* authorisation */ '  ');

FILE_SCHEMA (('AP242_MANAGED_MODEL_BASED_3D_ENGINEERING_MIM_LF { 1 0 10303 442 3 1 4 }'));
ENDSEC;

DATA;
#10=SHAPE_REPRESENTATION_RELATIONSHIP('','',#237,#11);
#11=ADVANCED_BREP_SHAPE_REPRESENTATION('',(#235),#379);
#12=CIRCLE('',#243,0.00535388410497963);
#13=CIRCLE('',#244,0.00535388410497963);
#14=CIRCLE('',#250,0.00135);
#15=CIRCLE('',#251,0.00135);
#16=CIRCLE('',#253,0.00135);
#17=CIRCLE('',#255,0.00135);
#18=CYLINDRICAL_SURFACE('',#242,0.00535388410497963);
#19=CYLINDRICAL_SURFACE('',#252,0.00135);
#20=CYLINDRICAL_SURFACE('',#254,0.00135);
#21=ORIENTED_EDGE('',*,*,#77,.F.);
#22=ORIENTED_EDGE('',*,*,#78,.F.);
#23=ORIENTED_EDGE('',*,*,#79,.T.);
#24=ORIENTED_EDGE('',*,*,#80,.T.);
#25=ORIENTED_EDGE('',*,*,#81,.T.);
#26=ORIENTED_EDGE('',*,*,#82,.F.);
#27=ORIENTED_EDGE('',*,*,#83,.F.);
#28=ORIENTED_EDGE('',*,*,#78,.T.);
#29=ORIENTED_EDGE('',*,*,#84,.T.);
#30=ORIENTED_EDGE('',*,*,#85,.F.);
#31=ORIENTED_EDGE('',*,*,#86,.F.);
#32=ORIENTED_EDGE('',*,*,#82,.T.);
#33=ORIENTED_EDGE('',*,*,#87,.T.);
#34=ORIENTED_EDGE('',*,*,#88,.F.);
#35=ORIENTED_EDGE('',*,*,#89,.F.);
#36=ORIENTED_EDGE('',*,*,#85,.T.);
#37=ORIENTED_EDGE('',*,*,#90,.T.);
#38=ORIENTED_EDGE('',*,*,#91,.F.);
#39=ORIENTED_EDGE('',*,*,#92,.F.);
#40=ORIENTED_EDGE('',*,*,#88,.T.);
#41=ORIENTED_EDGE('',*,*,#93,.T.);
#42=ORIENTED_EDGE('',*,*,#94,.F.);
#43=ORIENTED_EDGE('',*,*,#95,.F.);
#44=ORIENTED_EDGE('',*,*,#91,.T.);
#45=ORIENTED_EDGE('',*,*,#96,.F.);
#46=ORIENTED_EDGE('',*,*,#97,.F.);
#47=ORIENTED_EDGE('',*,*,#98,.T.);
#48=ORIENTED_EDGE('',*,*,#94,.T.);
#49=ORIENTED_EDGE('',*,*,#99,.F.);
#50=ORIENTED_EDGE('',*,*,#80,.F.);
#51=ORIENTED_EDGE('',*,*,#100,.T.);
#52=ORIENTED_EDGE('',*,*,#97,.T.);
#53=ORIENTED_EDGE('',*,*,#101,.T.);
#54=ORIENTED_EDGE('',*,*,#102,.T.);
#55=ORIENTED_EDGE('',*,*,#77,.T.);
#56=ORIENTED_EDGE('',*,*,#99,.T.);
#57=ORIENTED_EDGE('',*,*,#96,.T.);
#58=ORIENTED_EDGE('',*,*,#93,.F.);
#59=ORIENTED_EDGE('',*,*,#90,.F.);
#60=ORIENTED_EDGE('',*,*,#87,.F.);
#61=ORIENTED_EDGE('',*,*,#84,.F.);
#62=ORIENTED_EDGE('',*,*,#81,.F.);
#63=ORIENTED_EDGE('',*,*,#102,.F.);
#64=ORIENTED_EDGE('',*,*,#103,.F.);
#65=ORIENTED_EDGE('',*,*,#101,.F.);
#66=ORIENTED_EDGE('',*,*,#104,.F.);
#67=ORIENTED_EDGE('',*,*,#104,.T.);
#68=ORIENTED_EDGE('',*,*,#103,.T.);
#69=ORIENTED_EDGE('',*,*,#79,.F.);
#70=ORIENTED_EDGE('',*,*,#83,.T.);
#71=ORIENTED_EDGE('',*,*,#86,.T.);
#72=ORIENTED_EDGE('',*,*,#89,.T.);
#73=ORIENTED_EDGE('',*,*,#92,.T.);
#74=ORIENTED_EDGE('',*,*,#95,.T.);
#75=ORIENTED_EDGE('',*,*,#98,.F.);
#76=ORIENTED_EDGE('',*,*,#100,.F.);
#77=EDGE_CURVE('',#105,#106,#125,.T.);
#78=EDGE_CURVE('',#107,#105,#126,.T.);
#79=EDGE_CURVE('',#107,#108,#127,.T.);
#80=EDGE_CURVE('',#108,#106,#128,.T.);
#81=EDGE_CURVE('',#105,#109,#129,.T.);
#82=EDGE_CURVE('',#110,#109,#130,.T.);
#83=EDGE_CURVE('',#107,#110,#131,.T.);
#84=EDGE_CURVE('',#109,#111,#132,.T.);
#85=EDGE_CURVE('',#112,#111,#133,.T.);
#86=EDGE_CURVE('',#110,#112,#134,.T.);
#87=EDGE_CURVE('',#111,#113,#12,.T.);
#88=EDGE_CURVE('',#114,#113,#135,.T.);
#89=EDGE_CURVE('',#112,#114,#13,.T.);
#90=EDGE_CURVE('',#113,#115,#136,.T.);
#91=EDGE_CURVE('',#116,#115,#137,.T.);
#92=EDGE_CURVE('',#114,#116,#138,.T.);
#93=EDGE_CURVE('',#115,#117,#139,.T.);
#94=EDGE_CURVE('',#118,#117,#140,.T.);
#95=EDGE_CURVE('',#116,#118,#141,.T.);
#96=EDGE_CURVE('',#119,#117,#142,.T.);
#97=EDGE_CURVE('',#120,#119,#143,.T.);
#98=EDGE_CURVE('',#120,#118,#144,.T.);
#99=EDGE_CURVE('',#106,#119,#145,.T.);
#100=EDGE_CURVE('',#108,#120,#146,.T.);
#101=EDGE_CURVE('',#121,#121,#14,.T.);
#102=EDGE_CURVE('',#122,#122,#15,.T.);
#103=EDGE_CURVE('',#123,#123,#16,.F.);
#104=EDGE_CURVE('',#124,#124,#17,.F.);
#105=VERTEX_POINT('',#320);
#106=VERTEX_POINT('',#321);
#107=VERTEX_POINT('',#323);
#108=VERTEX_POINT('',#325);
#109=VERTEX_POINT('',#329);
#110=VERTEX_POINT('',#331);
#111=VERTEX_POINT('',#335);
#112=VERTEX_POINT('',#337);
#113=VERTEX_POINT('',#341);
#114=VERTEX_POINT('',#343);
#115=VERTEX_POINT('',#347);
#116=VERTEX_POINT('',#349);
#117=VERTEX_POINT('',#353);
#118=VERTEX_POINT('',#355);
#119=VERTEX_POINT('',#359);
#120=VERTEX_POINT('',#361);
#121=VERTEX_POINT('',#368);
#122=VERTEX_POINT('',#370);
#123=VERTEX_POINT('',#373);
#124=VERTEX_POINT('',#376);
#125=LINE('',#319,#147);
#126=LINE('',#322,#148);
#127=LINE('',#324,#149);
#128=LINE('',#326,#150);
#129=LINE('',#328,#151);
#130=LINE('',#330,#152);
#131=LINE('',#332,#153);
#132=LINE('',#334,#154);
#133=LINE('',#336,#155);
#134=LINE('',#338,#156);
#135=LINE('',#342,#157);
#136=LINE('',#346,#158);
#137=LINE('',#348,#159);
#138=LINE('',#350,#160);
#139=LINE('',#352,#161);
#140=LINE('',#354,#162);
#141=LINE('',#356,#163);
#142=LINE('',#358,#164);
#143=LINE('',#360,#165);
#144=LINE('',#362,#166);
#145=LINE('',#364,#167);
#146=LINE('',#365,#168);
#147=VECTOR('',#261,1.);
#148=VECTOR('',#262,1.);
#149=VECTOR('',#263,1.);
#150=VECTOR('',#264,1.);
#151=VECTOR('',#267,1.);
#152=VECTOR('',#268,1.);
#153=VECTOR('',#269,1.);
#154=VECTOR('',#272,1.);
#155=VECTOR('',#273,1.);
#156=VECTOR('',#274,1.);
#157=VECTOR('',#279,1.);
#158=VECTOR('',#284,1.);
#159=VECTOR('',#285,1.);
#160=VECTOR('',#286,1.);
#161=VECTOR('',#289,1.);
#162=VECTOR('',#290,1.);
#163=VECTOR('',#291,1.);
#164=VECTOR('',#294,1.);
#165=VECTOR('',#295,1.);
#166=VECTOR('',#296,1.);
#167=VECTOR('',#299,1.);
#168=VECTOR('',#300,1.);
#169=EDGE_LOOP('',(#21,#22,#23,#24));
#170=EDGE_LOOP('',(#25,#26,#27,#28));
#171=EDGE_LOOP('',(#29,#30,#31,#32));
#172=EDGE_LOOP('',(#33,#34,#35,#36));
#173=EDGE_LOOP('',(#37,#38,#39,#40));
#174=EDGE_LOOP('',(#41,#42,#43,#44));
#175=EDGE_LOOP('',(#45,#46,#47,#48));
#176=EDGE_LOOP('',(#49,#50,#51,#52));
#177=EDGE_LOOP('',(#53));
#178=EDGE_LOOP('',(#54));
#179=EDGE_LOOP('',(#55,#56,#57,#58,#59,#60,#61,#62));
#180=EDGE_LOOP('',(#63));
#181=EDGE_LOOP('',(#64));
#182=EDGE_LOOP('',(#65));
#183=EDGE_LOOP('',(#66));
#184=EDGE_LOOP('',(#67));
#185=EDGE_LOOP('',(#68));
#186=EDGE_LOOP('',(#69,#70,#71,#72,#73,#74,#75,#76));
#187=FACE_BOUND('',#169,.T.);
#188=FACE_BOUND('',#170,.T.);
#189=FACE_BOUND('',#171,.T.);
#190=FACE_BOUND('',#172,.T.);
#191=FACE_BOUND('',#173,.T.);
#192=FACE_BOUND('',#174,.T.);
#193=FACE_BOUND('',#175,.T.);
#194=FACE_BOUND('',#176,.T.);
#195=FACE_BOUND('',#177,.T.);
#196=FACE_BOUND('',#178,.T.);
#197=FACE_BOUND('',#179,.T.);
#198=FACE_BOUND('',#180,.T.);
#199=FACE_BOUND('',#181,.T.);
#200=FACE_BOUND('',#182,.T.);
#201=FACE_BOUND('',#183,.T.);
#202=FACE_BOUND('',#184,.T.);
#203=FACE_BOUND('',#185,.T.);
#204=FACE_BOUND('',#186,.T.);
#205=PLANE('',#239);
#206=PLANE('',#240);
#207=PLANE('',#241);
#208=PLANE('',#245);
#209=PLANE('',#246);
#210=PLANE('',#247);
#211=PLANE('',#248);
#212=PLANE('',#249);
#213=PLANE('',#256);
#214=ADVANCED_FACE('',(#187),#205,.T.);
#215=ADVANCED_FACE('',(#188),#206,.F.);
#216=ADVANCED_FACE('',(#189),#207,.F.);
#217=ADVANCED_FACE('',(#190),#18,.T.);
#218=ADVANCED_FACE('',(#191),#208,.F.);
#219=ADVANCED_FACE('',(#192),#209,.F.);
#220=ADVANCED_FACE('',(#193),#210,.T.);
#221=ADVANCED_FACE('',(#194),#211,.T.);
#222=ADVANCED_FACE('',(#195,#196,#197),#212,.F.);
#223=ADVANCED_FACE('',(#198,#199),#19,.F.);
#224=ADVANCED_FACE('',(#200,#201),#20,.F.);
#225=ADVANCED_FACE('',(#202,#203,#204),#213,.T.);
#226=CLOSED_SHELL('',(#214,#215,#216,#217,#218,#219,#220,#221,#222,#223,
#224,#225));
#227=STYLED_ITEM('',(#228),#235);
#228=PRESENTATION_STYLE_ASSIGNMENT((#229));
#229=SURFACE_STYLE_USAGE(.BOTH.,#230);
#230=SURFACE_SIDE_STYLE('',(#231));
#231=SURFACE_STYLE_FILL_AREA(#232);
#232=FILL_AREA_STYLE('',(#233));
#233=FILL_AREA_STYLE_COLOUR('',#234);
#234=COLOUR_RGB('',0.231372549019608,0.380392156862745,0.705882352941177);
#235=MANIFOLD_SOLID_BREP('Part 3',#226);
#236=SHAPE_DEFINITION_REPRESENTATION(#384,#237);
#237=SHAPE_REPRESENTATION('Part 3',(#238),#379);
#238=AXIS2_PLACEMENT_3D('',#317,#257,#258);
#239=AXIS2_PLACEMENT_3D('',#318,#259,#260);
#240=AXIS2_PLACEMENT_3D('',#327,#265,#266);
#241=AXIS2_PLACEMENT_3D('',#333,#270,#271);
#242=AXIS2_PLACEMENT_3D('',#339,#275,#276);
#243=AXIS2_PLACEMENT_3D('',#340,#277,#278);
#244=AXIS2_PLACEMENT_3D('',#344,#280,#281);
#245=AXIS2_PLACEMENT_3D('',#345,#282,#283);
#246=AXIS2_PLACEMENT_3D('',#351,#287,#288);
#247=AXIS2_PLACEMENT_3D('',#357,#292,#293);
#248=AXIS2_PLACEMENT_3D('',#363,#297,#298);
#249=AXIS2_PLACEMENT_3D('',#366,#301,#302);
#250=AXIS2_PLACEMENT_3D('',#367,#303,#304);
#251=AXIS2_PLACEMENT_3D('',#369,#305,#306);
#252=AXIS2_PLACEMENT_3D('',#371,#307,#308);
#253=AXIS2_PLACEMENT_3D('',#372,#309,#310);
#254=AXIS2_PLACEMENT_3D('',#374,#311,#312);
#255=AXIS2_PLACEMENT_3D('',#375,#313,#314);
#256=AXIS2_PLACEMENT_3D('',#377,#315,#316);
#257=DIRECTION('',(0.,0.,1.));
#258=DIRECTION('',(1.,0.,0.));
#259=DIRECTION('',(0.,0.,-1.));
#260=DIRECTION('',(-1.,0.,0.));
#261=DIRECTION('',(1.,0.,0.));
#262=DIRECTION('',(0.,-1.,0.));
#263=DIRECTION('',(1.,0.,0.));
#264=DIRECTION('',(0.,-1.,0.));
#265=DIRECTION('',(1.,0.,0.));
#266=DIRECTION('',(0.,0.,-1.));
#267=DIRECTION('',(0.,0.,1.));
#268=DIRECTION('',(0.,-1.,0.));
#269=DIRECTION('',(0.,0.,1.));
#270=DIRECTION('',(0.,0.,-1.));
#271=DIRECTION('',(-1.,0.,0.));
#272=DIRECTION('',(1.,0.,0.));
#273=DIRECTION('',(0.,-1.,0.));
#274=DIRECTION('',(1.,0.,0.));
#275=DIRECTION('',(0.,-1.,0.));
#276=DIRECTION('',(0.,0.,-1.));
#277=DIRECTION('',(0.,1.,0.));
#278=DIRECTION('',(0.,0.,1.));
#279=DIRECTION('',(0.,-1.,0.));
#280=DIRECTION('',(0.,1.,0.));
#281=DIRECTION('',(0.,0.,1.));
#282=DIRECTION('',(0.,0.,-1.));
#283=DIRECTION('',(-1.,0.,0.));
#284=DIRECTION('',(1.,0.,0.));
#285=DIRECTION('',(0.,-1.,0.));
#286=DIRECTION('',(1.,0.,0.));
#287=DIRECTION('',(-1.,0.,0.));
#288=DIRECTION('',(0.,0.,1.));
#289=DIRECTION('',(0.,0.,-1.));
#290=DIRECTION('',(0.,-1.,0.));
#291=DIRECTION('',(0.,0.,-1.));
#292=DIRECTION('',(0.,0.,-1.));
#293=DIRECTION('',(-1.,0.,0.));
#294=DIRECTION('',(1.,0.,0.));
#295=DIRECTION('',(0.,-1.,0.));
#296=DIRECTION('',(1.,0.,0.));
#297=DIRECTION('',(-1.,0.,0.));
#298=DIRECTION('',(0.,0.,1.));
#299=DIRECTION('',(0.,0.,-1.));
#300=DIRECTION('',(0.,0.,-1.));
#301=DIRECTION('',(0.,1.,0.));
#302=DIRECTION('',(-1.,0.,0.));
#303=DIRECTION('',(0.,1.,0.));
#304=DIRECTION('',(0.,0.,1.));
#305=DIRECTION('',(0.,1.,0.));
#306=DIRECTION('',(0.,0.,1.));
#307=DIRECTION('',(0.,1.,0.));
#308=DIRECTION('',(0.,0.,1.));
#309=DIRECTION('',(0.,1.,0.));
#310=DIRECTION('',(0.,0.,1.));
#311=DIRECTION('',(0.,1.,0.));
#312=DIRECTION('',(0.,0.,1.));
#313=DIRECTION('',(0.,1.,0.));
#314=DIRECTION('',(0.,0.,1.));
#315=DIRECTION('',(0.,1.,0.));
#316=DIRECTION('',(-1.,0.,0.));
#317=CARTESIAN_POINT('',(0.,0.,0.));
#318=CARTESIAN_POINT('',(0.0386768601081013,0.0254,-0.00267694205248982));
#319=CARTESIAN_POINT('',(0.0386768601081013,0.,-0.00267694205248982));
#320=CARTESIAN_POINT('',(0.0288378611845575,0.,-0.00267694205248982));
#321=CARTESIAN_POINT('',(0.0538697431366246,0.,-0.00267694205248982));
#322=CARTESIAN_POINT('',(0.0288378611845575,0.0254,-0.00267694205248982));
#323=CARTESIAN_POINT('',(0.0288378611845575,0.04064,-0.00267694205248982));
#324=CARTESIAN_POINT('',(0.0386768601081013,0.04064,-0.00267694205248982));
#325=CARTESIAN_POINT('',(0.0538697431366246,0.04064,-0.00267694205248982));
#326=CARTESIAN_POINT('',(0.0538697431366246,0.0254,-0.00267694205248982));
#327=CARTESIAN_POINT('',(0.0288378611845575,0.0254,0.));
#328=CARTESIAN_POINT('',(0.0288378611845575,0.,0.));
#329=CARTESIAN_POINT('',(0.0288378611845575,0.,0.00267694205248982));
#330=CARTESIAN_POINT('',(0.0288378611845575,0.0254,0.00267694205248982));
#331=CARTESIAN_POINT('',(0.0288378611845575,0.04064,0.00267694205248982));
#332=CARTESIAN_POINT('',(0.0288378611845575,0.04064,0.));
#333=CARTESIAN_POINT('',(0.0413538021605911,0.0254,0.00267694205248982));
#334=CARTESIAN_POINT('',(0.0413538021605911,0.,0.00267694205248982));
#335=CARTESIAN_POINT('',(0.0538697431366246,0.,0.00267694205248982));
#336=CARTESIAN_POINT('',(0.0538697431366246,0.0254,0.00267694205248982));
#337=CARTESIAN_POINT('',(0.0538697431366246,0.04064,0.00267694205248982));
#338=CARTESIAN_POINT('',(0.0413538021605911,0.04064,0.00267694205248982));
#339=CARTESIAN_POINT('',(0.0538697431366246,0.0254,-0.00267694205248982));
#340=CARTESIAN_POINT('',(0.0538697431366246,0.,-0.00267694205248982));
#341=CARTESIAN_POINT('',(0.0592236272416043,0.,-0.00267694205248982));
#342=CARTESIAN_POINT('',(0.0592236272416043,0.0254,-0.00267694205248982));
#343=CARTESIAN_POINT('',(0.0592236272416043,0.04064,-0.00267694205248982));
#344=CARTESIAN_POINT('',(0.0538697431366246,0.04064,-0.00267694205248982));
#345=CARTESIAN_POINT('',(0.0592263851891145,0.0254,-0.00267694205248982));
#346=CARTESIAN_POINT('',(0.0592263851891145,0.,-0.00267694205248982));
#347=CARTESIAN_POINT('',(0.0592291431366246,0.,-0.00267694205248982));
#348=CARTESIAN_POINT('',(0.0592291431366246,0.0254,-0.00267694205248982));
#349=CARTESIAN_POINT('',(0.0592291431366246,0.04064,-0.00267694205248982));
#350=CARTESIAN_POINT('',(0.0592263851891145,0.04064,-0.00267694205248982));
#351=CARTESIAN_POINT('',(0.0592291431366246,0.0254,-0.0122019420524898));
#352=CARTESIAN_POINT('',(0.0592291431366246,0.,-0.0122019420524898));
#353=CARTESIAN_POINT('',(0.0592291431366246,0.,-0.0217269420524898));
#354=CARTESIAN_POINT('',(0.0592291431366246,0.0254,-0.0217269420524898));
#355=CARTESIAN_POINT('',(0.0592291431366246,0.04064,-0.0217269420524898));
#356=CARTESIAN_POINT('',(0.0592291431366246,0.04064,-0.0122019420524898));
#357=CARTESIAN_POINT('',(0.0565494431366246,0.0254,-0.0217269420524898));
#358=CARTESIAN_POINT('',(0.0565494431366246,0.,-0.0217269420524898));
#359=CARTESIAN_POINT('',(0.0538697431366246,0.,-0.0217269420524898));
#360=CARTESIAN_POINT('',(0.0538697431366246,0.0254,-0.0217269420524898));
#361=CARTESIAN_POINT('',(0.0538697431366246,0.04064,-0.0217269420524898));
#362=CARTESIAN_POINT('',(0.0565494431366246,0.04064,-0.0217269420524898));
#363=CARTESIAN_POINT('',(0.0538697431366246,0.0254,-0.00535388410497963));
#364=CARTESIAN_POINT('',(0.0538697431366246,0.,-0.00535388410497963));
#365=CARTESIAN_POINT('',(0.0538697431366246,0.04064,-0.00535388410497963));
#366=CARTESIAN_POINT('',(0.0221434878504152,0.,-0.00339238730834782));
#367=CARTESIAN_POINT('',(0.0325099098706209,-3.46944695195361E-18,0.));
#368=CARTESIAN_POINT('',(0.0325099098706209,-3.46944695195361E-18,0.00135));
#369=CARTESIAN_POINT('',(0.0388599098706209,-3.46944695195361E-18,0.));
#370=CARTESIAN_POINT('',(0.0388599098706209,-3.46944695195361E-18,0.00135));
#371=CARTESIAN_POINT('',(0.0388599098706209,-0.00508,0.));
#372=CARTESIAN_POINT('',(0.0388599098706209,0.04064,0.));
#373=CARTESIAN_POINT('',(0.0388599098706209,0.04064,0.00135));
#374=CARTESIAN_POINT('',(0.0325099098706209,-0.00508,0.));
#375=CARTESIAN_POINT('',(0.0325099098706209,0.04064,0.));
#376=CARTESIAN_POINT('',(0.0325099098706209,0.04064,0.00135));
#377=CARTESIAN_POINT('',(0.0221434878504152,0.04064,-0.00339238730834782));
#378=MECHANICAL_DESIGN_GEOMETRIC_PRESENTATION_REPRESENTATION('',(#227),
#379);
#379=(
GEOMETRIC_REPRESENTATION_CONTEXT(3)
GLOBAL_UNCERTAINTY_ASSIGNED_CONTEXT((#380))
GLOBAL_UNIT_ASSIGNED_CONTEXT((#383,#382,#381))
REPRESENTATION_CONTEXT('Part 3','TOP_LEVEL_ASSEMBLY_PART')
);
#380=UNCERTAINTY_MEASURE_WITH_UNIT(LENGTH_MEASURE(1.E-8),#383,
'DISTANCE_ACCURACY_VALUE','Maximum Tolerance applied to model');
#381=(
NAMED_UNIT(*)
SI_UNIT($,.STERADIAN.)
SOLID_ANGLE_UNIT()
);
#382=(
NAMED_UNIT(*)
PLANE_ANGLE_UNIT()
SI_UNIT($,.RADIAN.)
);
#383=(
LENGTH_UNIT()
NAMED_UNIT(*)
SI_UNIT($,.METRE.)
);
#384=PRODUCT_DEFINITION_SHAPE('','',#385);
#385=PRODUCT_DEFINITION('','',#387,#386);
#386=PRODUCT_DEFINITION_CONTEXT('',#393,'design');
#387=PRODUCT_DEFINITION_FORMATION_WITH_SPECIFIED_SOURCE('','',#389,
 .NOT_KNOWN.);
#388=PRODUCT_RELATED_PRODUCT_CATEGORY('','',(#389));
#389=PRODUCT('Part 3','Part 3','Part 3',(#391));
#390=PRODUCT_CATEGORY('','');
#391=PRODUCT_CONTEXT('',#393,'mechanical');
#392=APPLICATION_PROTOCOL_DEFINITION('international standard',
'ap242_managed_model_based_3d_engineering',2020,#393);
#393=APPLICATION_CONTEXT('managed model based 3d engineering');
ENDSEC;
END-ISO-10303-21;
