ISO-10303-21;
HEADER;
/* Generated by software containing ST-Developer
 * from STEP Tools, Inc. (www.steptools.com) 
 */
/* OPTION: using custom renumber hook */

FILE_DESCRIPTION(
/* description */ ('STEP AP242 Edition 2',
'CAx-IF Rec.Pracs.---Representation and Presentation of Product Manufa
cturing Information (PMI)---4.0---2014-10-13',
'CAx-IF Rec.Pracs.---3D Tessellated Geometry---0.4---2014-09-14','2;1',
'CAx-IF Rec.Pracs.---User Defined Attributes---1.5---2016-08-15'),
/* implementation_level */ '2;1');

FILE_NAME(
/* name */ 'Full Assembly - Motor Retainer',
/* time_stamp */ '2026-08-15T05:10:10Z',
/* author */ (''),
/* organization */ (''),
/* preprocessor_version */ 'ST-DEVELOPER v20',
/* originating_system */ 'ONSHAPE BY PTC INC, 1.219',
/* authorisation */ '  ');

FILE_SCHEMA (('AP242_MANAGED_MODEL_BASED_3D_ENGINEERING_MIM_LF { 1 0 10303 442 3 1 4 }'));
ENDSEC;

DATA;
#10=SHAPE_REPRESENTATION_RELATIONSHIP('','',#311,#11);
#11=ADVANCED_BREP_SHAPE_REPRESENTATION('',(#309),#491);
#12=CYLINDRICAL_SURFACE('',#326,0.0014);
#13=CYLINDRICAL_SURFACE('',#327,0.0014);
#14=CIRCLE('',#321,0.0014);
#15=CIRCLE('',#322,0.0014);
#16=CIRCLE('',#324,0.0014);
#17=CIRCLE('',#325,0.0014);
#18=ORIENTED_EDGE('',*,*,#94,.F.);
#19=ORIENTED_EDGE('',*,*,#95,.F.);
#20=ORIENTED_EDGE('',*,*,#96,.T.);
#21=ORIENTED_EDGE('',*,*,#97,.T.);
#22=ORIENTED_EDGE('',*,*,#98,.F.);
#23=ORIENTED_EDGE('',*,*,#99,.F.);
#24=ORIENTED_EDGE('',*,*,#100,.T.);
#25=ORIENTED_EDGE('',*,*,#101,.T.);
#26=ORIENTED_EDGE('',*,*,#95,.T.);
#27=ORIENTED_EDGE('',*,*,#99,.T.);
#28=ORIENTED_EDGE('',*,*,#102,.T.);
#29=ORIENTED_EDGE('',*,*,#103,.F.);
#30=ORIENTED_EDGE('',*,*,#104,.F.);
#31=ORIENTED_EDGE('',*,*,#101,.F.);
#32=ORIENTED_EDGE('',*,*,#105,.F.);
#33=ORIENTED_EDGE('',*,*,#106,.T.);
#34=ORIENTED_EDGE('',*,*,#107,.T.);
#35=ORIENTED_EDGE('',*,*,#108,.T.);
#36=ORIENTED_EDGE('',*,*,#109,.T.);
#37=ORIENTED_EDGE('',*,*,#110,.F.);
#38=ORIENTED_EDGE('',*,*,#111,.F.);
#39=ORIENTED_EDGE('',*,*,#112,.F.);
#40=ORIENTED_EDGE('',*,*,#106,.F.);
#41=ORIENTED_EDGE('',*,*,#113,.T.);
#42=ORIENTED_EDGE('',*,*,#111,.T.);
#43=ORIENTED_EDGE('',*,*,#103,.T.);
#44=ORIENTED_EDGE('',*,*,#114,.T.);
#45=ORIENTED_EDGE('',*,*,#97,.F.);
#46=ORIENTED_EDGE('',*,*,#115,.T.);
#47=ORIENTED_EDGE('',*,*,#116,.T.);
#48=ORIENTED_EDGE('',*,*,#117,.F.);
#49=ORIENTED_EDGE('',*,*,#118,.F.);
#50=ORIENTED_EDGE('',*,*,#119,.F.);
#51=ORIENTED_EDGE('',*,*,#120,.T.);
#52=ORIENTED_EDGE('',*,*,#121,.T.);
#53=ORIENTED_EDGE('',*,*,#113,.F.);
#54=ORIENTED_EDGE('',*,*,#105,.T.);
#55=ORIENTED_EDGE('',*,*,#100,.F.);
#56=ORIENTED_EDGE('',*,*,#104,.T.);
#57=ORIENTED_EDGE('',*,*,#119,.T.);
#58=ORIENTED_EDGE('',*,*,#122,.F.);
#59=ORIENTED_EDGE('',*,*,#123,.T.);
#60=ORIENTED_EDGE('',*,*,#108,.F.);
#61=ORIENTED_EDGE('',*,*,#124,.T.);
#62=ORIENTED_EDGE('',*,*,#125,.T.);
#63=ORIENTED_EDGE('',*,*,#112,.T.);
#64=ORIENTED_EDGE('',*,*,#110,.T.);
#65=ORIENTED_EDGE('',*,*,#126,.T.);
#66=ORIENTED_EDGE('',*,*,#115,.F.);
#67=ORIENTED_EDGE('',*,*,#96,.F.);
#68=ORIENTED_EDGE('',*,*,#107,.F.);
#69=ORIENTED_EDGE('',*,*,#121,.F.);
#70=ORIENTED_EDGE('',*,*,#125,.F.);
#71=ORIENTED_EDGE('',*,*,#120,.F.);
#72=ORIENTED_EDGE('',*,*,#124,.F.);
#73=ORIENTED_EDGE('',*,*,#109,.F.);
#74=ORIENTED_EDGE('',*,*,#123,.F.);
#75=ORIENTED_EDGE('',*,*,#127,.T.);
#76=ORIENTED_EDGE('',*,*,#128,.T.);
#77=ORIENTED_EDGE('',*,*,#129,.F.);
#78=ORIENTED_EDGE('',*,*,#130,.T.);
#79=ORIENTED_EDGE('',*,*,#128,.F.);
#80=ORIENTED_EDGE('',*,*,#131,.F.);
#81=ORIENTED_EDGE('',*,*,#117,.T.);
#82=ORIENTED_EDGE('',*,*,#127,.F.);
#83=ORIENTED_EDGE('',*,*,#122,.T.);
#84=ORIENTED_EDGE('',*,*,#118,.T.);
#85=ORIENTED_EDGE('',*,*,#131,.T.);
#86=ORIENTED_EDGE('',*,*,#126,.F.);
#87=ORIENTED_EDGE('',*,*,#129,.T.);
#88=ORIENTED_EDGE('',*,*,#130,.F.);
#89=ORIENTED_EDGE('',*,*,#116,.F.);
#90=ORIENTED_EDGE('',*,*,#94,.T.);
#91=ORIENTED_EDGE('',*,*,#114,.F.);
#92=ORIENTED_EDGE('',*,*,#102,.F.);
#93=ORIENTED_EDGE('',*,*,#98,.T.);
#94=EDGE_CURVE('',#132,#133,#158,.T.);
#95=EDGE_CURVE('',#134,#132,#159,.T.);
#96=EDGE_CURVE('',#134,#135,#160,.T.);
#97=EDGE_CURVE('',#135,#133,#161,.T.);
#98=EDGE_CURVE('',#136,#132,#162,.T.);
#99=EDGE_CURVE('',#137,#136,#163,.T.);
#100=EDGE_CURVE('',#137,#138,#164,.T.);
#101=EDGE_CURVE('',#138,#134,#165,.T.);
#102=EDGE_CURVE('',#136,#139,#166,.T.);
#103=EDGE_CURVE('',#140,#139,#167,.T.);
#104=EDGE_CURVE('',#137,#140,#168,.T.);
#105=EDGE_CURVE('',#141,#138,#169,.T.);
#106=EDGE_CURVE('',#141,#142,#170,.T.);
#107=EDGE_CURVE('',#142,#134,#171,.T.);
#108=EDGE_CURVE('',#143,#144,#172,.T.);
#109=EDGE_CURVE('',#144,#145,#173,.T.);
#110=EDGE_CURVE('',#146,#145,#174,.T.);
#111=EDGE_CURVE('',#143,#146,#175,.T.);
#112=EDGE_CURVE('',#142,#146,#176,.T.);
#113=EDGE_CURVE('',#141,#143,#177,.T.);
#114=EDGE_CURVE('',#139,#133,#178,.T.);
#115=EDGE_CURVE('',#135,#147,#179,.T.);
#116=EDGE_CURVE('',#147,#148,#180,.T.);
#117=EDGE_CURVE('',#149,#148,#181,.T.);
#118=EDGE_CURVE('',#150,#149,#182,.T.);
#119=EDGE_CURVE('',#140,#150,#183,.T.);
#120=EDGE_CURVE('',#151,#151,#14,.F.);
#121=EDGE_CURVE('',#152,#152,#15,.F.);
#122=EDGE_CURVE('',#153,#150,#184,.T.);
#123=EDGE_CURVE('',#153,#144,#185,.T.);
#124=EDGE_CURVE('',#154,#154,#16,.T.);
#125=EDGE_CURVE('',#155,#155,#17,.T.);
#126=EDGE_CURVE('',#145,#147,#186,.T.);
#127=EDGE_CURVE('',#153,#156,#187,.T.);
#128=EDGE_CURVE('',#156,#157,#188,.T.);
#129=EDGE_CURVE('',#145,#157,#189,.T.);
#130=EDGE_CURVE('',#148,#157,#190,.T.);
#131=EDGE_CURVE('',#149,#156,#191,.T.);
#132=VERTEX_POINT('',#412);
#133=VERTEX_POINT('',#413);
#134=VERTEX_POINT('',#415);
#135=VERTEX_POINT('',#417);
#136=VERTEX_POINT('',#421);
#137=VERTEX_POINT('',#423);
#138=VERTEX_POINT('',#425);
#139=VERTEX_POINT('',#429);
#140=VERTEX_POINT('',#431);
#141=VERTEX_POINT('',#435);
#142=VERTEX_POINT('',#437);
#143=VERTEX_POINT('',#441);
#144=VERTEX_POINT('',#442);
#145=VERTEX_POINT('',#444);
#146=VERTEX_POINT('',#446);
#147=VERTEX_POINT('',#454);
#148=VERTEX_POINT('',#456);
#149=VERTEX_POINT('',#458);
#150=VERTEX_POINT('',#460);
#151=VERTEX_POINT('',#464);
#152=VERTEX_POINT('',#466);
#153=VERTEX_POINT('',#468);
#154=VERTEX_POINT('',#472);
#155=VERTEX_POINT('',#474);
#156=VERTEX_POINT('',#480);
#157=VERTEX_POINT('',#482);
#158=LINE('',#411,#192);
#159=LINE('',#414,#193);
#160=LINE('',#416,#194);
#161=LINE('',#418,#195);
#162=LINE('',#420,#196);
#163=LINE('',#422,#197);
#164=LINE('',#424,#198);
#165=LINE('',#426,#199);
#166=LINE('',#428,#200);
#167=LINE('',#430,#201);
#168=LINE('',#432,#202);
#169=LINE('',#434,#203);
#170=LINE('',#436,#204);
#171=LINE('',#438,#205);
#172=LINE('',#440,#206);
#173=LINE('',#443,#207);
#174=LINE('',#445,#208);
#175=LINE('',#447,#209);
#176=LINE('',#449,#210);
#177=LINE('',#450,#211);
#178=LINE('',#452,#212);
#179=LINE('',#453,#213);
#180=LINE('',#455,#214);
#181=LINE('',#457,#215);
#182=LINE('',#459,#216);
#183=LINE('',#461,#217);
#184=LINE('',#467,#218);
#185=LINE('',#469,#219);
#186=LINE('',#475,#220);
#187=LINE('',#479,#221);
#188=LINE('',#481,#222);
#189=LINE('',#483,#223);
#190=LINE('',#485,#224);
#191=LINE('',#486,#225);
#192=VECTOR('',#337,1.);
#193=VECTOR('',#338,1.);
#194=VECTOR('',#339,1.);
#195=VECTOR('',#340,1.);
#196=VECTOR('',#343,1.);
#197=VECTOR('',#344,1.);
#198=VECTOR('',#345,1.);
#199=VECTOR('',#346,1.);
#200=VECTOR('',#349,1.);
#201=VECTOR('',#350,1.);
#202=VECTOR('',#351,1.);
#203=VECTOR('',#354,1.);
#204=VECTOR('',#355,1.);
#205=VECTOR('',#356,1.);
#206=VECTOR('',#359,1.);
#207=VECTOR('',#360,1.);
#208=VECTOR('',#361,1.);
#209=VECTOR('',#362,1.);
#210=VECTOR('',#365,1.);
#211=VECTOR('',#366,1.);
#212=VECTOR('',#369,1.);
#213=VECTOR('',#370,1.);
#214=VECTOR('',#371,1.);
#215=VECTOR('',#372,1.);
#216=VECTOR('',#373,1.);
#217=VECTOR('',#374,1.);
#218=VECTOR('',#381,1.);
#219=VECTOR('',#382,1.);
#220=VECTOR('',#389,1.);
#221=VECTOR('',#396,1.);
#222=VECTOR('',#397,1.);
#223=VECTOR('',#398,1.);
#224=VECTOR('',#401,1.);
#225=VECTOR('',#402,1.);
#226=EDGE_LOOP('',(#18,#19,#20,#21));
#227=EDGE_LOOP('',(#22,#23,#24,#25,#26));
#228=EDGE_LOOP('',(#27,#28,#29,#30));
#229=EDGE_LOOP('',(#31,#32,#33,#34));
#230=EDGE_LOOP('',(#35,#36,#37,#38));
#231=EDGE_LOOP('',(#39,#40,#41,#42));
#232=EDGE_LOOP('',(#43,#44,#45,#46,#47,#48,#49,#50));
#233=EDGE_LOOP('',(#51));
#234=EDGE_LOOP('',(#52));
#235=EDGE_LOOP('',(#53,#54,#55,#56,#57,#58,#59,#60));
#236=EDGE_LOOP('',(#61));
#237=EDGE_LOOP('',(#62));
#238=EDGE_LOOP('',(#63,#64,#65,#66,#67,#68));
#239=EDGE_LOOP('',(#69));
#240=EDGE_LOOP('',(#70));
#241=EDGE_LOOP('',(#71));
#242=EDGE_LOOP('',(#72));
#243=EDGE_LOOP('',(#73,#74,#75,#76,#77));
#244=EDGE_LOOP('',(#78,#79,#80,#81));
#245=EDGE_LOOP('',(#82,#83,#84,#85));
#246=EDGE_LOOP('',(#86,#87,#88,#89));
#247=EDGE_LOOP('',(#90,#91,#92,#93));
#248=FACE_BOUND('',#226,.T.);
#249=FACE_BOUND('',#227,.T.);
#250=FACE_BOUND('',#228,.T.);
#251=FACE_BOUND('',#229,.T.);
#252=FACE_BOUND('',#230,.T.);
#253=FACE_BOUND('',#231,.T.);
#254=FACE_BOUND('',#232,.T.);
#255=FACE_BOUND('',#233,.T.);
#256=FACE_BOUND('',#234,.T.);
#257=FACE_BOUND('',#235,.T.);
#258=FACE_BOUND('',#236,.T.);
#259=FACE_BOUND('',#237,.T.);
#260=FACE_BOUND('',#238,.T.);
#261=FACE_BOUND('',#239,.T.);
#262=FACE_BOUND('',#240,.T.);
#263=FACE_BOUND('',#241,.T.);
#264=FACE_BOUND('',#242,.T.);
#265=FACE_BOUND('',#243,.T.);
#266=FACE_BOUND('',#244,.T.);
#267=FACE_BOUND('',#245,.T.);
#268=FACE_BOUND('',#246,.T.);
#269=FACE_BOUND('',#247,.T.);
#270=PLANE('',#313);
#271=PLANE('',#314);
#272=PLANE('',#315);
#273=PLANE('',#316);
#274=PLANE('',#317);
#275=PLANE('',#318);
#276=PLANE('',#319);
#277=PLANE('',#320);
#278=PLANE('',#323);
#279=PLANE('',#328);
#280=PLANE('',#329);
#281=PLANE('',#330);
#282=PLANE('',#331);
#283=PLANE('',#332);
#284=ADVANCED_FACE('',(#248),#270,.F.);
#285=ADVANCED_FACE('',(#249),#271,.F.);
#286=ADVANCED_FACE('',(#250),#272,.T.);
#287=ADVANCED_FACE('',(#251),#273,.F.);
#288=ADVANCED_FACE('',(#252),#274,.T.);
#289=ADVANCED_FACE('',(#253),#275,.T.);
#290=ADVANCED_FACE('',(#254),#276,.F.);
#291=ADVANCED_FACE('',(#255,#256,#257),#277,.T.);
#292=ADVANCED_FACE('',(#258,#259,#260),#278,.F.);
#293=ADVANCED_FACE('',(#261,#262),#12,.F.);
#294=ADVANCED_FACE('',(#263,#264),#13,.F.);
#295=ADVANCED_FACE('',(#265),#279,.T.);
#296=ADVANCED_FACE('',(#266),#280,.F.);
#297=ADVANCED_FACE('',(#267),#281,.T.);
#298=ADVANCED_FACE('',(#268),#282,.F.);
#299=ADVANCED_FACE('',(#269),#283,.F.);
#300=CLOSED_SHELL('',(#284,#285,#286,#287,#288,#289,#290,#291,#292,#293,
#294,#295,#296,#297,#298,#299));
#301=STYLED_ITEM('',(#302),#309);
#302=PRESENTATION_STYLE_ASSIGNMENT((#303));
#303=SURFACE_STYLE_USAGE(.BOTH.,#304);
#304=SURFACE_SIDE_STYLE('',(#305));
#305=SURFACE_STYLE_FILL_AREA(#306);
#306=FILL_AREA_STYLE('',(#307));
#307=FILL_AREA_STYLE_COLOUR('',#308);
#308=COLOUR_RGB('',0.231372549019608,0.380392156862745,0.705882352941177);
#309=MANIFOLD_SOLID_BREP('Motor Retainer',#300);
#310=SHAPE_DEFINITION_REPRESENTATION(#496,#311);
#311=SHAPE_REPRESENTATION('Motor Retainer',(#312),#491);
#312=AXIS2_PLACEMENT_3D('',#409,#333,#334);
#313=AXIS2_PLACEMENT_3D('',#410,#335,#336);
#314=AXIS2_PLACEMENT_3D('',#419,#341,#342);
#315=AXIS2_PLACEMENT_3D('',#427,#347,#348);
#316=AXIS2_PLACEMENT_3D('',#433,#352,#353);
#317=AXIS2_PLACEMENT_3D('',#439,#357,#358);
#318=AXIS2_PLACEMENT_3D('',#448,#363,#364);
#319=AXIS2_PLACEMENT_3D('',#451,#367,#368);
#320=AXIS2_PLACEMENT_3D('',#462,#375,#376);
#321=AXIS2_PLACEMENT_3D('',#463,#377,#378);
#322=AXIS2_PLACEMENT_3D('',#465,#379,#380);
#323=AXIS2_PLACEMENT_3D('',#470,#383,#384);
#324=AXIS2_PLACEMENT_3D('',#471,#385,#386);
#325=AXIS2_PLACEMENT_3D('',#473,#387,#388);
#326=AXIS2_PLACEMENT_3D('',#476,#390,#391);
#327=AXIS2_PLACEMENT_3D('',#477,#392,#393);
#328=AXIS2_PLACEMENT_3D('',#478,#394,#395);
#329=AXIS2_PLACEMENT_3D('',#484,#399,#400);
#330=AXIS2_PLACEMENT_3D('',#487,#403,#404);
#331=AXIS2_PLACEMENT_3D('',#488,#405,#406);
#332=AXIS2_PLACEMENT_3D('',#489,#407,#408);
#333=DIRECTION('',(0.,0.,1.));
#334=DIRECTION('',(1.,0.,0.));
#335=DIRECTION('',(-1.,0.,0.));
#336=DIRECTION('',(0.,-1.,0.));
#337=DIRECTION('',(0.,-1.,0.));
#338=DIRECTION('',(0.,0.,-1.));
#339=DIRECTION('',(0.,-1.,0.));
#340=DIRECTION('',(0.,0.,-1.));
#341=DIRECTION('',(0.,-1.,0.));
#342=DIRECTION('',(0.,0.,-1.));
#343=DIRECTION('',(1.,0.,0.));
#344=DIRECTION('',(0.,0.,-1.));
#345=DIRECTION('',(1.,0.,0.));
#346=DIRECTION('',(0.,0.,-1.));
#347=DIRECTION('',(-1.,0.,0.));
#348=DIRECTION('',(0.,-1.,0.));
#349=DIRECTION('',(0.,-1.,0.));
#350=DIRECTION('',(0.,0.,-1.));
#351=DIRECTION('',(0.,-1.,0.));
#352=DIRECTION('',(1.,0.,0.));
#353=DIRECTION('',(0.,0.,-1.));
#354=DIRECTION('',(0.,-1.,0.));
#355=DIRECTION('',(0.,0.,-1.));
#356=DIRECTION('',(0.,-1.,0.));
#357=DIRECTION('',(1.,0.,0.));
#358=DIRECTION('',(0.,0.,-1.));
#359=DIRECTION('',(0.,-1.,0.));
#360=DIRECTION('',(0.,0.,-1.));
#361=DIRECTION('',(0.,-1.,0.));
#362=DIRECTION('',(0.,0.,-1.));
#363=DIRECTION('',(0.,1.,0.));
#364=DIRECTION('',(0.,0.,1.));
#365=DIRECTION('',(1.,0.,0.));
#366=DIRECTION('',(1.,0.,0.));
#367=DIRECTION('',(0.,1.,0.));
#368=DIRECTION('',(0.,0.,1.));
#369=DIRECTION('',(1.,0.,0.));
#370=DIRECTION('',(1.,0.,0.));
#371=DIRECTION('',(0.,0.,-1.));
#372=DIRECTION('',(-1.,0.,0.));
#373=DIRECTION('',(0.,0.,-1.));
#374=DIRECTION('',(1.,0.,0.));
#375=DIRECTION('',(0.,0.,1.));
#376=DIRECTION('',(1.,0.,0.));
#377=DIRECTION('',(0.,0.,1.));
#378=DIRECTION('',(1.,0.,0.));
#379=DIRECTION('',(0.,0.,1.));
#380=DIRECTION('',(1.,0.,0.));
#381=DIRECTION('',(0.,-1.,0.));
#382=DIRECTION('',(-1.,0.,0.));
#383=DIRECTION('',(0.,0.,1.));
#384=DIRECTION('',(1.,0.,0.));
#385=DIRECTION('',(0.,0.,1.));
#386=DIRECTION('',(1.,0.,0.));
#387=DIRECTION('',(0.,0.,1.));
#388=DIRECTION('',(1.,0.,0.));
#389=DIRECTION('',(0.,-1.,0.));
#390=DIRECTION('',(0.,0.,1.));
#391=DIRECTION('',(1.,0.,0.));
#392=DIRECTION('',(0.,0.,1.));
#393=DIRECTION('',(1.,0.,0.));
#394=DIRECTION('',(0.,1.,0.));
#395=DIRECTION('',(0.,0.,1.));
#396=DIRECTION('',(0.,0.,-1.));
#397=DIRECTION('',(-1.,0.,0.));
#398=DIRECTION('',(0.,0.,-1.));
#399=DIRECTION('',(0.,0.,1.));
#400=DIRECTION('',(1.,0.,0.));
#401=DIRECTION('',(0.,1.,0.));
#402=DIRECTION('',(0.,1.,0.));
#403=DIRECTION('',(1.,0.,0.));
#404=DIRECTION('',(0.,1.,0.));
#405=DIRECTION('',(1.,0.,0.));
#406=DIRECTION('',(0.,1.,0.));
#407=DIRECTION('',(0.,0.,1.));
#408=DIRECTION('',(1.,0.,0.));
#409=CARTESIAN_POINT('',(0.,0.,0.));
#410=CARTESIAN_POINT('',(0.04455,0.03715,0.0358948202336678));
#411=CARTESIAN_POINT('',(0.04455,0.03235,0.0328508278599383));
#412=CARTESIAN_POINT('',(0.04455,0.05255,0.0328508278599383));
#413=CARTESIAN_POINT('',(0.04455,0.01215,0.0328508278599383));
#414=CARTESIAN_POINT('',(0.04455,0.05255,0.0358948202336678));
#415=CARTESIAN_POINT('',(0.04455,0.05255,0.03755));
#416=CARTESIAN_POINT('',(0.04455,0.03715,0.03755));
#417=CARTESIAN_POINT('',(0.04455,0.01215,0.03755));
#418=CARTESIAN_POINT('',(0.04455,0.01215,0.040598));
#419=CARTESIAN_POINT('',(0.0428482,0.05255,0.0358948202336678));
#420=CARTESIAN_POINT('',(0.0428482,0.05255,0.0328508278599383));
#421=CARTESIAN_POINT('',(0.0428482,0.05255,0.0328508278599383));
#422=CARTESIAN_POINT('',(0.0428482,0.05255,0.0358948202336678));
#423=CARTESIAN_POINT('',(0.0428482,0.05255,0.040598));
#424=CARTESIAN_POINT('',(0.0428482,0.05255,0.040598));
#425=CARTESIAN_POINT('',(0.04455,0.05255,0.040598));
#426=CARTESIAN_POINT('',(0.04455,0.05255,0.0358948202336678));
#427=CARTESIAN_POINT('',(0.0428482,0.03715,0.0358948202336678));
#428=CARTESIAN_POINT('',(0.0428482,0.03235,0.0328508278599383));
#429=CARTESIAN_POINT('',(0.0428482,0.01215,0.0328508278599383));
#430=CARTESIAN_POINT('',(0.0428482,0.01215,0.040598));
#431=CARTESIAN_POINT('',(0.0428482,0.01215,0.040598));
#432=CARTESIAN_POINT('',(0.0428482,0.03715,0.040598));
#433=CARTESIAN_POINT('',(0.04455,0.03715,0.040598));
#434=CARTESIAN_POINT('',(0.04455,0.03715,0.040598));
#435=CARTESIAN_POINT('',(0.04455,0.06215,0.040598));
#436=CARTESIAN_POINT('',(0.04455,0.06215,0.040598));
#437=CARTESIAN_POINT('',(0.04455,0.06215,0.03755));
#438=CARTESIAN_POINT('',(0.04455,0.03715,0.03755));
#439=CARTESIAN_POINT('',(0.0635,0.03715,0.040598));
#440=CARTESIAN_POINT('',(0.0635,0.03715,0.040598));
#441=CARTESIAN_POINT('',(0.0635,0.06215,0.040598));
#442=CARTESIAN_POINT('',(0.0635,0.05255,0.040598));
#443=CARTESIAN_POINT('',(0.0635,0.05255,0.0367244139299691));
#444=CARTESIAN_POINT('',(0.0635,0.05255,0.03755));
#445=CARTESIAN_POINT('',(0.0635,0.03715,0.03755));
#446=CARTESIAN_POINT('',(0.0635,0.06215,0.03755));
#447=CARTESIAN_POINT('',(0.0635,0.06215,0.040598));
#448=CARTESIAN_POINT('',(0.054025,0.06215,0.040598));
#449=CARTESIAN_POINT('',(0.054025,0.06215,0.03755));
#450=CARTESIAN_POINT('',(0.054025,0.06215,0.040598));
#451=CARTESIAN_POINT('',(0.054025,0.01215,0.040598));
#452=CARTESIAN_POINT('',(0.0428482,0.01215,0.0328508278599383));
#453=CARTESIAN_POINT('',(0.054025,0.01215,0.03755));
#454=CARTESIAN_POINT('',(0.0635,0.01215,0.03755));
#455=CARTESIAN_POINT('',(0.0635,0.01215,0.0367244139299691));
#456=CARTESIAN_POINT('',(0.0635,0.01215,0.0328508278599383));
#457=CARTESIAN_POINT('',(0.0652018,0.01215,0.0328508278599383));
#458=CARTESIAN_POINT('',(0.0652018,0.01215,0.0328508278599383));
#459=CARTESIAN_POINT('',(0.0652018,0.01215,0.0367244139299691));
#460=CARTESIAN_POINT('',(0.0652018,0.01215,0.040598));
#461=CARTESIAN_POINT('',(0.054025,0.01215,0.040598));
#462=CARTESIAN_POINT('',(0.,0.03715,0.040598));
#463=CARTESIAN_POINT('',(0.0484875,0.05485,0.040598));
#464=CARTESIAN_POINT('',(0.0498875,0.05485,0.040598));
#465=CARTESIAN_POINT('',(0.0595625,0.05485,0.040598));
#466=CARTESIAN_POINT('',(0.0609625,0.05485,0.040598));
#467=CARTESIAN_POINT('',(0.0652018,0.03715,0.040598));
#468=CARTESIAN_POINT('',(0.0652018,0.05255,0.040598));
#469=CARTESIAN_POINT('',(0.0652018,0.05255,0.040598));
#470=CARTESIAN_POINT('',(0.,0.03715,0.03755));
#471=CARTESIAN_POINT('',(0.0484875,0.05485,0.03755));
#472=CARTESIAN_POINT('',(0.0498875,0.05485,0.03755));
#473=CARTESIAN_POINT('',(0.0595625,0.05485,0.03755));
#474=CARTESIAN_POINT('',(0.0609625,0.05485,0.03755));
#475=CARTESIAN_POINT('',(0.0635,0.03715,0.03755));
#476=CARTESIAN_POINT('',(0.0595625,0.05485,0.));
#477=CARTESIAN_POINT('',(0.0484875,0.05485,0.));
#478=CARTESIAN_POINT('',(0.0652018,0.05255,0.0367244139299691));
#479=CARTESIAN_POINT('',(0.0652018,0.05255,0.0367244139299691));
#480=CARTESIAN_POINT('',(0.0652018,0.05255,0.0328508278599383));
#481=CARTESIAN_POINT('',(0.0652018,0.05255,0.0328508278599383));
#482=CARTESIAN_POINT('',(0.0635,0.05255,0.0328508278599383));
#483=CARTESIAN_POINT('',(0.0635,0.05255,0.0367244139299691));
#484=CARTESIAN_POINT('',(0.0652018,0.03235,0.0328508278599383));
#485=CARTESIAN_POINT('',(0.0635,0.03235,0.0328508278599383));
#486=CARTESIAN_POINT('',(0.0652018,0.03235,0.0328508278599383));
#487=CARTESIAN_POINT('',(0.0652018,0.03715,0.0367244139299691));
#488=CARTESIAN_POINT('',(0.0635,0.03715,0.0367244139299691));
#489=CARTESIAN_POINT('',(0.0652018,0.03235,0.0328508278599383));
#490=MECHANICAL_DESIGN_GEOMETRIC_PRESENTATION_REPRESENTATION('',(#301),
#491);
#491=(
GEOMETRIC_REPRESENTATION_CONTEXT(3)
GLOBAL_UNCERTAINTY_ASSIGNED_CONTEXT((#492))
GLOBAL_UNIT_ASSIGNED_CONTEXT((#495,#494,#493))
REPRESENTATION_CONTEXT('Motor Retainer','TOP_LEVEL_ASSEMBLY_PART')
);
#492=UNCERTAINTY_MEASURE_WITH_UNIT(LENGTH_MEASURE(1.E-8),#495,
'DISTANCE_ACCURACY_VALUE','Maximum Tolerance applied to model');
#493=(
NAMED_UNIT(*)
SI_UNIT($,.STERADIAN.)
SOLID_ANGLE_UNIT()
);
#494=(
NAMED_UNIT(*)
PLANE_ANGLE_UNIT()
SI_UNIT($,.RADIAN.)
);
#495=(
LENGTH_UNIT()
NAMED_UNIT(*)
SI_UNIT($,.METRE.)
);
#496=PRODUCT_DEFINITION_SHAPE('','',#497);
#497=PRODUCT_DEFINITION('','',#499,#498);
#498=PRODUCT_DEFINITION_CONTEXT('',#505,'design');
#499=PRODUCT_DEFINITION_FORMATION_WITH_SPECIFIED_SOURCE('','',#501,
 .NOT_KNOWN.);
#500=PRODUCT_RELATED_PRODUCT_CATEGORY('','',(#501));
#501=PRODUCT('Motor Retainer','Motor Retainer','Motor Retainer',(#503));
#502=PRODUCT_CATEGORY('','');
#503=PRODUCT_CONTEXT('',#505,'mechanical');
#504=APPLICATION_PROTOCOL_DEFINITION('international standard',
'ap242_managed_model_based_3d_engineering',2020,#505);
#505=APPLICATION_CONTEXT('managed model based 3d engineering');
ENDSEC;
END-ISO-10303-21;
