ISO-10303-21;
HEADER;
/* Generated by software containing ST-Developer
 * from STEP Tools, Inc. (www.steptools.com) 
 */
/* OPTION: using custom renumber hook */

FILE_DESCRIPTION(
/* description */ ('STEP AP242 Edition 2',
'CAx-IF Rec.Pracs.---Representation and Presentation of Product Manufa
cturing Information (PMI)---4.0---2014-10-13',
'CAx-IF Rec.Pracs.---3D Tessellated Geometry---0.4---2014-09-14','2;1',
'CAx-IF Rec.Pracs.---User Defined Attributes---1.5---2016-08-15'),
/* implementation_level */ '2;1');

FILE_NAME(
/* name */ 'Full Assembly - Support Wheel (1)',
/* time_stamp */ '2026-08-15T05:10:13Z',
/* author */ (''),
/* organization */ (''),
/* preprocessor_version */ 'ST-DEVELOPER v20',
/* originating_system */ 'ONSHAPE BY PTC INC, 1.219',
/* authorisation */ '  ');

FILE_SCHEMA (('AP242_MANAGED_MODEL_BASED_3D_ENGINEERING_MIM_LF { 1 0 10303 442 3 1 4 }'));
ENDSEC;

DATA;
#10=SHAPE_REPRESENTATION_RELATIONSHIP('','',#707,#11);
#11=ADVANCED_BREP_SHAPE_REPRESENTATION('',(#705),#1229);
#12=CYLINDRICAL_SURFACE('',#736,0.02413);
#13=CYLINDRICAL_SURFACE('',#765,0.01909);
#14=CYLINDRICAL_SURFACE('',#767,0.008302);
#15=CYLINDRICAL_SURFACE('',#768,0.005);
#16=CYLINDRICAL_SURFACE('',#769,0.005);
#17=CYLINDRICAL_SURFACE('',#770,0.005);
#18=CYLINDRICAL_SURFACE('',#771,0.005);
#19=CYLINDRICAL_SURFACE('',#773,0.01909);
#20=CYLINDRICAL_SURFACE('',#775,0.008302);
#21=CYLINDRICAL_SURFACE('',#776,0.005);
#22=CYLINDRICAL_SURFACE('',#777,0.005);
#23=CYLINDRICAL_SURFACE('',#778,0.005);
#24=CYLINDRICAL_SURFACE('',#779,0.005);
#25=CYLINDRICAL_SURFACE('',#781,0.01909);
#26=CYLINDRICAL_SURFACE('',#783,0.008302);
#27=CYLINDRICAL_SURFACE('',#784,0.005);
#28=CYLINDRICAL_SURFACE('',#785,0.005);
#29=CYLINDRICAL_SURFACE('',#786,0.005);
#30=CYLINDRICAL_SURFACE('',#787,0.005);
#31=CYLINDRICAL_SURFACE('',#790,0.01909);
#32=CYLINDRICAL_SURFACE('',#791,0.008302);
#33=CYLINDRICAL_SURFACE('',#792,0.005);
#34=CYLINDRICAL_SURFACE('',#793,0.005);
#35=CYLINDRICAL_SURFACE('',#794,0.005);
#36=CYLINDRICAL_SURFACE('',#795,0.005);
#37=CYLINDRICAL_SURFACE('',#796,0.00367000428798045);
#38=LINE('',#1032,#86);
#39=LINE('',#1040,#87);
#40=LINE('',#1048,#88);
#41=LINE('',#1056,#89);
#42=LINE('',#1066,#90);
#43=LINE('',#1074,#91);
#44=LINE('',#1084,#92);
#45=LINE('',#1092,#93);
#46=LINE('',#1106,#94);
#47=LINE('',#1114,#95);
#48=LINE('',#1118,#96);
#49=LINE('',#1126,#97);
#50=LINE('',#1134,#98);
#51=LINE('',#1142,#99);
#52=LINE('',#1150,#100);
#53=LINE('',#1158,#101);
#54=LINE('',#1164,#102);
#55=LINE('',#1165,#103);
#56=LINE('',#1167,#104);
#57=LINE('',#1168,#105);
#58=LINE('',#1170,#106);
#59=LINE('',#1171,#107);
#60=LINE('',#1173,#108);
#61=LINE('',#1174,#109);
#62=LINE('',#1180,#110);
#63=LINE('',#1181,#111);
#64=LINE('',#1183,#112);
#65=LINE('',#1184,#113);
#66=LINE('',#1186,#114);
#67=LINE('',#1187,#115);
#68=LINE('',#1189,#116);
#69=LINE('',#1190,#117);
#70=LINE('',#1196,#118);
#71=LINE('',#1197,#119);
#72=LINE('',#1199,#120);
#73=LINE('',#1200,#121);
#74=LINE('',#1202,#122);
#75=LINE('',#1203,#123);
#76=LINE('',#1205,#124);
#77=LINE('',#1206,#125);
#78=LINE('',#1212,#126);
#79=LINE('',#1213,#127);
#80=LINE('',#1215,#128);
#81=LINE('',#1216,#129);
#82=LINE('',#1218,#130);
#83=LINE('',#1219,#131);
#84=LINE('',#1221,#132);
#85=LINE('',#1222,#133);
#86=VECTOR('',#807,1.);
#87=VECTOR('',#814,1.);
#88=VECTOR('',#821,1.);
#89=VECTOR('',#828,1.);
#90=VECTOR('',#837,1.);
#91=VECTOR('',#844,1.);
#92=VECTOR('',#853,1.);
#93=VECTOR('',#860,1.);
#94=VECTOR('',#875,1.);
#95=VECTOR('',#882,1.);
#96=VECTOR('',#885,1.);
#97=VECTOR('',#892,1.);
#98=VECTOR('',#899,1.);
#99=VECTOR('',#906,1.);
#100=VECTOR('',#913,1.);
#101=VECTOR('',#920,1.);
#102=VECTOR('',#927,1.);
#103=VECTOR('',#928,1.);
#104=VECTOR('',#931,1.);
#105=VECTOR('',#932,1.);
#106=VECTOR('',#935,1.);
#107=VECTOR('',#936,1.);
#108=VECTOR('',#939,1.);
#109=VECTOR('',#940,1.);
#110=VECTOR('',#951,1.);
#111=VECTOR('',#952,1.);
#112=VECTOR('',#955,1.);
#113=VECTOR('',#956,1.);
#114=VECTOR('',#959,1.);
#115=VECTOR('',#960,1.);
#116=VECTOR('',#963,1.);
#117=VECTOR('',#964,1.);
#118=VECTOR('',#975,1.);
#119=VECTOR('',#976,1.);
#120=VECTOR('',#979,1.);
#121=VECTOR('',#980,1.);
#122=VECTOR('',#983,1.);
#123=VECTOR('',#984,1.);
#124=VECTOR('',#987,1.);
#125=VECTOR('',#988,1.);
#126=VECTOR('',#999,1.);
#127=VECTOR('',#1000,1.);
#128=VECTOR('',#1003,1.);
#129=VECTOR('',#1004,1.);
#130=VECTOR('',#1007,1.);
#131=VECTOR('',#1008,1.);
#132=VECTOR('',#1011,1.);
#133=VECTOR('',#1012,1.);
#134=ORIENTED_EDGE('',*,*,#334,.F.);
#135=ORIENTED_EDGE('',*,*,#335,.F.);
#136=ORIENTED_EDGE('',*,*,#336,.F.);
#137=ORIENTED_EDGE('',*,*,#337,.T.);
#138=ORIENTED_EDGE('',*,*,#338,.F.);
#139=ORIENTED_EDGE('',*,*,#339,.T.);
#140=ORIENTED_EDGE('',*,*,#340,.F.);
#141=ORIENTED_EDGE('',*,*,#341,.F.);
#142=ORIENTED_EDGE('',*,*,#342,.F.);
#143=ORIENTED_EDGE('',*,*,#343,.F.);
#144=ORIENTED_EDGE('',*,*,#344,.F.);
#145=ORIENTED_EDGE('',*,*,#345,.T.);
#146=ORIENTED_EDGE('',*,*,#346,.F.);
#147=ORIENTED_EDGE('',*,*,#347,.T.);
#148=ORIENTED_EDGE('',*,*,#348,.F.);
#149=ORIENTED_EDGE('',*,*,#349,.F.);
#150=ORIENTED_EDGE('',*,*,#350,.F.);
#151=ORIENTED_EDGE('',*,*,#351,.F.);
#152=ORIENTED_EDGE('',*,*,#352,.F.);
#153=ORIENTED_EDGE('',*,*,#353,.F.);
#154=ORIENTED_EDGE('',*,*,#354,.T.);
#155=ORIENTED_EDGE('',*,*,#355,.F.);
#156=ORIENTED_EDGE('',*,*,#356,.T.);
#157=ORIENTED_EDGE('',*,*,#357,.F.);
#158=ORIENTED_EDGE('',*,*,#358,.F.);
#159=ORIENTED_EDGE('',*,*,#359,.F.);
#160=ORIENTED_EDGE('',*,*,#360,.F.);
#161=ORIENTED_EDGE('',*,*,#361,.F.);
#162=ORIENTED_EDGE('',*,*,#362,.F.);
#163=ORIENTED_EDGE('',*,*,#363,.T.);
#164=ORIENTED_EDGE('',*,*,#364,.F.);
#165=ORIENTED_EDGE('',*,*,#365,.T.);
#166=ORIENTED_EDGE('',*,*,#366,.F.);
#167=ORIENTED_EDGE('',*,*,#367,.F.);
#168=ORIENTED_EDGE('',*,*,#368,.F.);
#169=ORIENTED_EDGE('',*,*,#351,.T.);
#170=ORIENTED_EDGE('',*,*,#369,.F.);
#171=ORIENTED_EDGE('',*,*,#370,.F.);
#172=ORIENTED_EDGE('',*,*,#371,.F.);
#173=ORIENTED_EDGE('',*,*,#372,.F.);
#174=ORIENTED_EDGE('',*,*,#373,.F.);
#175=ORIENTED_EDGE('',*,*,#374,.F.);
#176=ORIENTED_EDGE('',*,*,#375,.T.);
#177=ORIENTED_EDGE('',*,*,#376,.F.);
#178=ORIENTED_EDGE('',*,*,#377,.T.);
#179=ORIENTED_EDGE('',*,*,#378,.F.);
#180=ORIENTED_EDGE('',*,*,#379,.F.);
#181=ORIENTED_EDGE('',*,*,#380,.F.);
#182=ORIENTED_EDGE('',*,*,#381,.T.);
#183=ORIENTED_EDGE('',*,*,#382,.F.);
#184=ORIENTED_EDGE('',*,*,#383,.T.);
#185=ORIENTED_EDGE('',*,*,#384,.F.);
#186=ORIENTED_EDGE('',*,*,#385,.F.);
#187=ORIENTED_EDGE('',*,*,#386,.F.);
#188=ORIENTED_EDGE('',*,*,#387,.F.);
#189=ORIENTED_EDGE('',*,*,#388,.F.);
#190=ORIENTED_EDGE('',*,*,#389,.T.);
#191=ORIENTED_EDGE('',*,*,#390,.F.);
#192=ORIENTED_EDGE('',*,*,#391,.T.);
#193=ORIENTED_EDGE('',*,*,#392,.F.);
#194=ORIENTED_EDGE('',*,*,#393,.F.);
#195=ORIENTED_EDGE('',*,*,#394,.F.);
#196=ORIENTED_EDGE('',*,*,#395,.F.);
#197=ORIENTED_EDGE('',*,*,#396,.F.);
#198=ORIENTED_EDGE('',*,*,#397,.T.);
#199=ORIENTED_EDGE('',*,*,#398,.F.);
#200=ORIENTED_EDGE('',*,*,#399,.T.);
#201=ORIENTED_EDGE('',*,*,#400,.F.);
#202=ORIENTED_EDGE('',*,*,#401,.F.);
#203=ORIENTED_EDGE('',*,*,#368,.T.);
#204=ORIENTED_EDGE('',*,*,#402,.F.);
#205=ORIENTED_EDGE('',*,*,#345,.F.);
#206=ORIENTED_EDGE('',*,*,#403,.F.);
#207=ORIENTED_EDGE('',*,*,#399,.F.);
#208=ORIENTED_EDGE('',*,*,#404,.F.);
#209=ORIENTED_EDGE('',*,*,#347,.F.);
#210=ORIENTED_EDGE('',*,*,#405,.F.);
#211=ORIENTED_EDGE('',*,*,#397,.F.);
#212=ORIENTED_EDGE('',*,*,#395,.T.);
#213=ORIENTED_EDGE('',*,*,#406,.F.);
#214=ORIENTED_EDGE('',*,*,#349,.T.);
#215=ORIENTED_EDGE('',*,*,#407,.F.);
#216=ORIENTED_EDGE('',*,*,#401,.T.);
#217=ORIENTED_EDGE('',*,*,#408,.F.);
#218=ORIENTED_EDGE('',*,*,#343,.T.);
#219=ORIENTED_EDGE('',*,*,#409,.F.);
#220=ORIENTED_EDGE('',*,*,#400,.T.);
#221=ORIENTED_EDGE('',*,*,#403,.T.);
#222=ORIENTED_EDGE('',*,*,#344,.T.);
#223=ORIENTED_EDGE('',*,*,#408,.T.);
#224=ORIENTED_EDGE('',*,*,#394,.T.);
#225=ORIENTED_EDGE('',*,*,#409,.T.);
#226=ORIENTED_EDGE('',*,*,#350,.T.);
#227=ORIENTED_EDGE('',*,*,#406,.T.);
#228=ORIENTED_EDGE('',*,*,#396,.T.);
#229=ORIENTED_EDGE('',*,*,#407,.T.);
#230=ORIENTED_EDGE('',*,*,#348,.T.);
#231=ORIENTED_EDGE('',*,*,#404,.T.);
#232=ORIENTED_EDGE('',*,*,#398,.T.);
#233=ORIENTED_EDGE('',*,*,#405,.T.);
#234=ORIENTED_EDGE('',*,*,#346,.T.);
#235=ORIENTED_EDGE('',*,*,#402,.T.);
#236=ORIENTED_EDGE('',*,*,#410,.F.);
#237=ORIENTED_EDGE('',*,*,#354,.F.);
#238=ORIENTED_EDGE('',*,*,#411,.F.);
#239=ORIENTED_EDGE('',*,*,#391,.F.);
#240=ORIENTED_EDGE('',*,*,#412,.F.);
#241=ORIENTED_EDGE('',*,*,#356,.F.);
#242=ORIENTED_EDGE('',*,*,#413,.F.);
#243=ORIENTED_EDGE('',*,*,#389,.F.);
#244=ORIENTED_EDGE('',*,*,#387,.T.);
#245=ORIENTED_EDGE('',*,*,#414,.F.);
#246=ORIENTED_EDGE('',*,*,#358,.T.);
#247=ORIENTED_EDGE('',*,*,#415,.F.);
#248=ORIENTED_EDGE('',*,*,#393,.T.);
#249=ORIENTED_EDGE('',*,*,#416,.F.);
#250=ORIENTED_EDGE('',*,*,#352,.T.);
#251=ORIENTED_EDGE('',*,*,#417,.F.);
#252=ORIENTED_EDGE('',*,*,#392,.T.);
#253=ORIENTED_EDGE('',*,*,#411,.T.);
#254=ORIENTED_EDGE('',*,*,#353,.T.);
#255=ORIENTED_EDGE('',*,*,#416,.T.);
#256=ORIENTED_EDGE('',*,*,#386,.T.);
#257=ORIENTED_EDGE('',*,*,#417,.T.);
#258=ORIENTED_EDGE('',*,*,#359,.T.);
#259=ORIENTED_EDGE('',*,*,#414,.T.);
#260=ORIENTED_EDGE('',*,*,#388,.T.);
#261=ORIENTED_EDGE('',*,*,#415,.T.);
#262=ORIENTED_EDGE('',*,*,#357,.T.);
#263=ORIENTED_EDGE('',*,*,#412,.T.);
#264=ORIENTED_EDGE('',*,*,#390,.T.);
#265=ORIENTED_EDGE('',*,*,#413,.T.);
#266=ORIENTED_EDGE('',*,*,#355,.T.);
#267=ORIENTED_EDGE('',*,*,#410,.T.);
#268=ORIENTED_EDGE('',*,*,#418,.F.);
#269=ORIENTED_EDGE('',*,*,#337,.F.);
#270=ORIENTED_EDGE('',*,*,#419,.F.);
#271=ORIENTED_EDGE('',*,*,#383,.F.);
#272=ORIENTED_EDGE('',*,*,#420,.F.);
#273=ORIENTED_EDGE('',*,*,#339,.F.);
#274=ORIENTED_EDGE('',*,*,#421,.F.);
#275=ORIENTED_EDGE('',*,*,#381,.F.);
#276=ORIENTED_EDGE('',*,*,#379,.T.);
#277=ORIENTED_EDGE('',*,*,#422,.F.);
#278=ORIENTED_EDGE('',*,*,#341,.T.);
#279=ORIENTED_EDGE('',*,*,#423,.F.);
#280=ORIENTED_EDGE('',*,*,#385,.T.);
#281=ORIENTED_EDGE('',*,*,#424,.F.);
#282=ORIENTED_EDGE('',*,*,#335,.T.);
#283=ORIENTED_EDGE('',*,*,#425,.F.);
#284=ORIENTED_EDGE('',*,*,#384,.T.);
#285=ORIENTED_EDGE('',*,*,#419,.T.);
#286=ORIENTED_EDGE('',*,*,#336,.T.);
#287=ORIENTED_EDGE('',*,*,#424,.T.);
#288=ORIENTED_EDGE('',*,*,#378,.T.);
#289=ORIENTED_EDGE('',*,*,#425,.T.);
#290=ORIENTED_EDGE('',*,*,#342,.T.);
#291=ORIENTED_EDGE('',*,*,#422,.T.);
#292=ORIENTED_EDGE('',*,*,#380,.T.);
#293=ORIENTED_EDGE('',*,*,#423,.T.);
#294=ORIENTED_EDGE('',*,*,#340,.T.);
#295=ORIENTED_EDGE('',*,*,#420,.T.);
#296=ORIENTED_EDGE('',*,*,#382,.T.);
#297=ORIENTED_EDGE('',*,*,#421,.T.);
#298=ORIENTED_EDGE('',*,*,#338,.T.);
#299=ORIENTED_EDGE('',*,*,#418,.T.);
#300=ORIENTED_EDGE('',*,*,#373,.T.);
#301=ORIENTED_EDGE('',*,*,#426,.F.);
#302=ORIENTED_EDGE('',*,*,#367,.T.);
#303=ORIENTED_EDGE('',*,*,#427,.F.);
#304=ORIENTED_EDGE('',*,*,#428,.F.);
#305=ORIENTED_EDGE('',*,*,#363,.F.);
#306=ORIENTED_EDGE('',*,*,#429,.F.);
#307=ORIENTED_EDGE('',*,*,#377,.F.);
#308=ORIENTED_EDGE('',*,*,#430,.F.);
#309=ORIENTED_EDGE('',*,*,#365,.F.);
#310=ORIENTED_EDGE('',*,*,#431,.F.);
#311=ORIENTED_EDGE('',*,*,#375,.F.);
#312=ORIENTED_EDGE('',*,*,#371,.T.);
#313=ORIENTED_EDGE('',*,*,#432,.F.);
#314=ORIENTED_EDGE('',*,*,#361,.T.);
#315=ORIENTED_EDGE('',*,*,#433,.F.);
#316=ORIENTED_EDGE('',*,*,#372,.T.);
#317=ORIENTED_EDGE('',*,*,#433,.T.);
#318=ORIENTED_EDGE('',*,*,#360,.T.);
#319=ORIENTED_EDGE('',*,*,#426,.T.);
#320=ORIENTED_EDGE('',*,*,#370,.T.);
#321=ORIENTED_EDGE('',*,*,#429,.T.);
#322=ORIENTED_EDGE('',*,*,#362,.T.);
#323=ORIENTED_EDGE('',*,*,#432,.T.);
#324=ORIENTED_EDGE('',*,*,#376,.T.);
#325=ORIENTED_EDGE('',*,*,#431,.T.);
#326=ORIENTED_EDGE('',*,*,#364,.T.);
#327=ORIENTED_EDGE('',*,*,#428,.T.);
#328=ORIENTED_EDGE('',*,*,#374,.T.);
#329=ORIENTED_EDGE('',*,*,#427,.T.);
#330=ORIENTED_EDGE('',*,*,#366,.T.);
#331=ORIENTED_EDGE('',*,*,#430,.T.);
#332=ORIENTED_EDGE('',*,*,#369,.T.);
#333=ORIENTED_EDGE('',*,*,#334,.T.);
#334=EDGE_CURVE('',#434,#434,#502,.T.);
#335=EDGE_CURVE('',#435,#436,#503,.T.);
#336=EDGE_CURVE('',#437,#435,#504,.F.);
#337=EDGE_CURVE('',#437,#438,#38,.T.);
#338=EDGE_CURVE('',#439,#438,#505,.F.);
#339=EDGE_CURVE('',#439,#440,#506,.T.);
#340=EDGE_CURVE('',#441,#440,#507,.F.);
#341=EDGE_CURVE('',#442,#441,#39,.T.);
#342=EDGE_CURVE('',#436,#442,#508,.F.);
#343=EDGE_CURVE('',#443,#444,#509,.T.);
#344=EDGE_CURVE('',#445,#443,#510,.F.);
#345=EDGE_CURVE('',#445,#446,#40,.T.);
#346=EDGE_CURVE('',#447,#446,#511,.F.);
#347=EDGE_CURVE('',#447,#448,#512,.T.);
#348=EDGE_CURVE('',#449,#448,#513,.F.);
#349=EDGE_CURVE('',#450,#449,#41,.T.);
#350=EDGE_CURVE('',#444,#450,#514,.F.);
#351=EDGE_CURVE('',#451,#451,#515,.T.);
#352=EDGE_CURVE('',#452,#453,#516,.T.);
#353=EDGE_CURVE('',#454,#452,#517,.F.);
#354=EDGE_CURVE('',#454,#455,#42,.T.);
#355=EDGE_CURVE('',#456,#455,#518,.F.);
#356=EDGE_CURVE('',#456,#457,#519,.T.);
#357=EDGE_CURVE('',#458,#457,#520,.F.);
#358=EDGE_CURVE('',#459,#458,#43,.T.);
#359=EDGE_CURVE('',#453,#459,#521,.F.);
#360=EDGE_CURVE('',#460,#461,#522,.F.);
#361=EDGE_CURVE('',#462,#460,#523,.T.);
#362=EDGE_CURVE('',#463,#462,#524,.F.);
#363=EDGE_CURVE('',#463,#464,#44,.T.);
#364=EDGE_CURVE('',#465,#464,#525,.F.);
#365=EDGE_CURVE('',#465,#466,#526,.T.);
#366=EDGE_CURVE('',#467,#466,#527,.F.);
#367=EDGE_CURVE('',#461,#467,#45,.T.);
#368=EDGE_CURVE('',#468,#468,#528,.T.);
#369=EDGE_CURVE('',#469,#469,#529,.T.);
#370=EDGE_CURVE('',#470,#471,#530,.T.);
#371=EDGE_CURVE('',#472,#470,#531,.F.);
#372=EDGE_CURVE('',#473,#472,#532,.T.);
#373=EDGE_CURVE('',#474,#473,#46,.T.);
#374=EDGE_CURVE('',#475,#474,#533,.T.);
#375=EDGE_CURVE('',#475,#476,#534,.F.);
#376=EDGE_CURVE('',#477,#476,#535,.T.);
#377=EDGE_CURVE('',#477,#471,#47,.T.);
#378=EDGE_CURVE('',#478,#479,#536,.T.);
#379=EDGE_CURVE('',#480,#478,#48,.T.);
#380=EDGE_CURVE('',#481,#480,#537,.T.);
#381=EDGE_CURVE('',#481,#482,#538,.F.);
#382=EDGE_CURVE('',#483,#482,#539,.T.);
#383=EDGE_CURVE('',#483,#484,#49,.T.);
#384=EDGE_CURVE('',#485,#484,#540,.T.);
#385=EDGE_CURVE('',#479,#485,#541,.F.);
#386=EDGE_CURVE('',#486,#487,#542,.T.);
#387=EDGE_CURVE('',#488,#486,#50,.T.);
#388=EDGE_CURVE('',#489,#488,#543,.T.);
#389=EDGE_CURVE('',#489,#490,#544,.F.);
#390=EDGE_CURVE('',#491,#490,#545,.T.);
#391=EDGE_CURVE('',#491,#492,#51,.T.);
#392=EDGE_CURVE('',#493,#492,#546,.T.);
#393=EDGE_CURVE('',#487,#493,#547,.F.);
#394=EDGE_CURVE('',#494,#495,#548,.T.);
#395=EDGE_CURVE('',#496,#494,#52,.T.);
#396=EDGE_CURVE('',#497,#496,#549,.T.);
#397=EDGE_CURVE('',#497,#498,#550,.F.);
#398=EDGE_CURVE('',#499,#498,#551,.T.);
#399=EDGE_CURVE('',#499,#500,#53,.T.);
#400=EDGE_CURVE('',#501,#500,#552,.T.);
#401=EDGE_CURVE('',#495,#501,#553,.F.);
#402=EDGE_CURVE('',#446,#499,#54,.F.);
#403=EDGE_CURVE('',#500,#445,#55,.F.);
#404=EDGE_CURVE('',#448,#497,#56,.F.);
#405=EDGE_CURVE('',#498,#447,#57,.T.);
#406=EDGE_CURVE('',#450,#494,#58,.F.);
#407=EDGE_CURVE('',#496,#449,#59,.F.);
#408=EDGE_CURVE('',#443,#501,#60,.F.);
#409=EDGE_CURVE('',#495,#444,#61,.T.);
#410=EDGE_CURVE('',#455,#491,#62,.F.);
#411=EDGE_CURVE('',#492,#454,#63,.F.);
#412=EDGE_CURVE('',#457,#489,#64,.F.);
#413=EDGE_CURVE('',#490,#456,#65,.T.);
#414=EDGE_CURVE('',#459,#486,#66,.F.);
#415=EDGE_CURVE('',#488,#458,#67,.F.);
#416=EDGE_CURVE('',#452,#493,#68,.F.);
#417=EDGE_CURVE('',#487,#453,#69,.T.);
#418=EDGE_CURVE('',#438,#483,#70,.F.);
#419=EDGE_CURVE('',#484,#437,#71,.F.);
#420=EDGE_CURVE('',#440,#481,#72,.F.);
#421=EDGE_CURVE('',#482,#439,#73,.T.);
#422=EDGE_CURVE('',#442,#478,#74,.F.);
#423=EDGE_CURVE('',#480,#441,#75,.F.);
#424=EDGE_CURVE('',#435,#485,#76,.F.);
#425=EDGE_CURVE('',#479,#436,#77,.T.);
#426=EDGE_CURVE('',#461,#473,#78,.F.);
#427=EDGE_CURVE('',#474,#467,#79,.F.);
#428=EDGE_CURVE('',#464,#477,#80,.F.);
#429=EDGE_CURVE('',#471,#463,#81,.F.);
#430=EDGE_CURVE('',#466,#475,#82,.F.);
#431=EDGE_CURVE('',#476,#465,#83,.T.);
#432=EDGE_CURVE('',#462,#470,#84,.F.);
#433=EDGE_CURVE('',#472,#460,#85,.T.);
#434=VERTEX_POINT('',#1026);
#435=VERTEX_POINT('',#1028);
#436=VERTEX_POINT('',#1029);
#437=VERTEX_POINT('',#1031);
#438=VERTEX_POINT('',#1033);
#439=VERTEX_POINT('',#1035);
#440=VERTEX_POINT('',#1037);
#441=VERTEX_POINT('',#1039);
#442=VERTEX_POINT('',#1041);
#443=VERTEX_POINT('',#1044);
#444=VERTEX_POINT('',#1045);
#445=VERTEX_POINT('',#1047);
#446=VERTEX_POINT('',#1049);
#447=VERTEX_POINT('',#1051);
#448=VERTEX_POINT('',#1053);
#449=VERTEX_POINT('',#1055);
#450=VERTEX_POINT('',#1057);
#451=VERTEX_POINT('',#1060);
#452=VERTEX_POINT('',#1062);
#453=VERTEX_POINT('',#1063);
#454=VERTEX_POINT('',#1065);
#455=VERTEX_POINT('',#1067);
#456=VERTEX_POINT('',#1069);
#457=VERTEX_POINT('',#1071);
#458=VERTEX_POINT('',#1073);
#459=VERTEX_POINT('',#1075);
#460=VERTEX_POINT('',#1078);
#461=VERTEX_POINT('',#1079);
#462=VERTEX_POINT('',#1081);
#463=VERTEX_POINT('',#1083);
#464=VERTEX_POINT('',#1085);
#465=VERTEX_POINT('',#1087);
#466=VERTEX_POINT('',#1089);
#467=VERTEX_POINT('',#1091);
#468=VERTEX_POINT('',#1095);
#469=VERTEX_POINT('',#1098);
#470=VERTEX_POINT('',#1100);
#471=VERTEX_POINT('',#1101);
#472=VERTEX_POINT('',#1103);
#473=VERTEX_POINT('',#1105);
#474=VERTEX_POINT('',#1107);
#475=VERTEX_POINT('',#1109);
#476=VERTEX_POINT('',#1111);
#477=VERTEX_POINT('',#1113);
#478=VERTEX_POINT('',#1116);
#479=VERTEX_POINT('',#1117);
#480=VERTEX_POINT('',#1119);
#481=VERTEX_POINT('',#1121);
#482=VERTEX_POINT('',#1123);
#483=VERTEX_POINT('',#1125);
#484=VERTEX_POINT('',#1127);
#485=VERTEX_POINT('',#1129);
#486=VERTEX_POINT('',#1132);
#487=VERTEX_POINT('',#1133);
#488=VERTEX_POINT('',#1135);
#489=VERTEX_POINT('',#1137);
#490=VERTEX_POINT('',#1139);
#491=VERTEX_POINT('',#1141);
#492=VERTEX_POINT('',#1143);
#493=VERTEX_POINT('',#1145);
#494=VERTEX_POINT('',#1148);
#495=VERTEX_POINT('',#1149);
#496=VERTEX_POINT('',#1151);
#497=VERTEX_POINT('',#1153);
#498=VERTEX_POINT('',#1155);
#499=VERTEX_POINT('',#1157);
#500=VERTEX_POINT('',#1159);
#501=VERTEX_POINT('',#1161);
#502=CIRCLE('',#710,0.00367000428798045);
#503=CIRCLE('',#711,0.008302);
#504=CIRCLE('',#712,0.005);
#505=CIRCLE('',#713,0.005);
#506=CIRCLE('',#714,0.01909);
#507=CIRCLE('',#715,0.005);
#508=CIRCLE('',#716,0.005);
#509=CIRCLE('',#717,0.008302);
#510=CIRCLE('',#718,0.005);
#511=CIRCLE('',#719,0.005);
#512=CIRCLE('',#720,0.01909);
#513=CIRCLE('',#721,0.005);
#514=CIRCLE('',#722,0.005);
#515=CIRCLE('',#723,0.02413);
#516=CIRCLE('',#724,0.008302);
#517=CIRCLE('',#725,0.005);
#518=CIRCLE('',#726,0.005);
#519=CIRCLE('',#727,0.01909);
#520=CIRCLE('',#728,0.005);
#521=CIRCLE('',#729,0.005);
#522=CIRCLE('',#730,0.005);
#523=CIRCLE('',#731,0.008302);
#524=CIRCLE('',#732,0.005);
#525=CIRCLE('',#733,0.005);
#526=CIRCLE('',#734,0.01909);
#527=CIRCLE('',#735,0.005);
#528=CIRCLE('',#737,0.02413);
#529=CIRCLE('',#739,0.00367000428798045);
#530=CIRCLE('',#740,0.005);
#531=CIRCLE('',#741,0.008302);
#532=CIRCLE('',#742,0.005);
#533=CIRCLE('',#743,0.005);
#534=CIRCLE('',#744,0.01909);
#535=CIRCLE('',#745,0.005);
#536=CIRCLE('',#746,0.005);
#537=CIRCLE('',#747,0.005);
#538=CIRCLE('',#748,0.01909);
#539=CIRCLE('',#749,0.005);
#540=CIRCLE('',#750,0.005);
#541=CIRCLE('',#751,0.008302);
#542=CIRCLE('',#752,0.005);
#543=CIRCLE('',#753,0.005);
#544=CIRCLE('',#754,0.01909);
#545=CIRCLE('',#755,0.005);
#546=CIRCLE('',#756,0.005);
#547=CIRCLE('',#757,0.008302);
#548=CIRCLE('',#758,0.005);
#549=CIRCLE('',#759,0.005);
#550=CIRCLE('',#760,0.01909);
#551=CIRCLE('',#761,0.005);
#552=CIRCLE('',#762,0.005);
#553=CIRCLE('',#763,0.008302);
#554=EDGE_LOOP('',(#134));
#555=EDGE_LOOP('',(#135,#136,#137,#138,#139,#140,#141,#142));
#556=EDGE_LOOP('',(#143,#144,#145,#146,#147,#148,#149,#150));
#557=EDGE_LOOP('',(#151));
#558=EDGE_LOOP('',(#152,#153,#154,#155,#156,#157,#158,#159));
#559=EDGE_LOOP('',(#160,#161,#162,#163,#164,#165,#166,#167));
#560=EDGE_LOOP('',(#168));
#561=EDGE_LOOP('',(#169));
#562=EDGE_LOOP('',(#170));
#563=EDGE_LOOP('',(#171,#172,#173,#174,#175,#176,#177,#178));
#564=EDGE_LOOP('',(#179,#180,#181,#182,#183,#184,#185,#186));
#565=EDGE_LOOP('',(#187,#188,#189,#190,#191,#192,#193,#194));
#566=EDGE_LOOP('',(#195,#196,#197,#198,#199,#200,#201,#202));
#567=EDGE_LOOP('',(#203));
#568=EDGE_LOOP('',(#204,#205,#206,#207));
#569=EDGE_LOOP('',(#208,#209,#210,#211));
#570=EDGE_LOOP('',(#212,#213,#214,#215));
#571=EDGE_LOOP('',(#216,#217,#218,#219));
#572=EDGE_LOOP('',(#220,#221,#222,#223));
#573=EDGE_LOOP('',(#224,#225,#226,#227));
#574=EDGE_LOOP('',(#228,#229,#230,#231));
#575=EDGE_LOOP('',(#232,#233,#234,#235));
#576=EDGE_LOOP('',(#236,#237,#238,#239));
#577=EDGE_LOOP('',(#240,#241,#242,#243));
#578=EDGE_LOOP('',(#244,#245,#246,#247));
#579=EDGE_LOOP('',(#248,#249,#250,#251));
#580=EDGE_LOOP('',(#252,#253,#254,#255));
#581=EDGE_LOOP('',(#256,#257,#258,#259));
#582=EDGE_LOOP('',(#260,#261,#262,#263));
#583=EDGE_LOOP('',(#264,#265,#266,#267));
#584=EDGE_LOOP('',(#268,#269,#270,#271));
#585=EDGE_LOOP('',(#272,#273,#274,#275));
#586=EDGE_LOOP('',(#276,#277,#278,#279));
#587=EDGE_LOOP('',(#280,#281,#282,#283));
#588=EDGE_LOOP('',(#284,#285,#286,#287));
#589=EDGE_LOOP('',(#288,#289,#290,#291));
#590=EDGE_LOOP('',(#292,#293,#294,#295));
#591=EDGE_LOOP('',(#296,#297,#298,#299));
#592=EDGE_LOOP('',(#300,#301,#302,#303));
#593=EDGE_LOOP('',(#304,#305,#306,#307));
#594=EDGE_LOOP('',(#308,#309,#310,#311));
#595=EDGE_LOOP('',(#312,#313,#314,#315));
#596=EDGE_LOOP('',(#316,#317,#318,#319));
#597=EDGE_LOOP('',(#320,#321,#322,#323));
#598=EDGE_LOOP('',(#324,#325,#326,#327));
#599=EDGE_LOOP('',(#328,#329,#330,#331));
#600=EDGE_LOOP('',(#332));
#601=EDGE_LOOP('',(#333));
#602=FACE_BOUND('',#554,.T.);
#603=FACE_BOUND('',#555,.T.);
#604=FACE_BOUND('',#556,.T.);
#605=FACE_BOUND('',#557,.T.);
#606=FACE_BOUND('',#558,.T.);
#607=FACE_BOUND('',#559,.T.);
#608=FACE_BOUND('',#560,.T.);
#609=FACE_BOUND('',#561,.T.);
#610=FACE_BOUND('',#562,.T.);
#611=FACE_BOUND('',#563,.T.);
#612=FACE_BOUND('',#564,.T.);
#613=FACE_BOUND('',#565,.T.);
#614=FACE_BOUND('',#566,.T.);
#615=FACE_BOUND('',#567,.T.);
#616=FACE_BOUND('',#568,.T.);
#617=FACE_BOUND('',#569,.T.);
#618=FACE_BOUND('',#570,.T.);
#619=FACE_BOUND('',#571,.T.);
#620=FACE_BOUND('',#572,.T.);
#621=FACE_BOUND('',#573,.T.);
#622=FACE_BOUND('',#574,.T.);
#623=FACE_BOUND('',#575,.T.);
#624=FACE_BOUND('',#576,.T.);
#625=FACE_BOUND('',#577,.T.);
#626=FACE_BOUND('',#578,.T.);
#627=FACE_BOUND('',#579,.T.);
#628=FACE_BOUND('',#580,.T.);
#629=FACE_BOUND('',#581,.T.);
#630=FACE_BOUND('',#582,.T.);
#631=FACE_BOUND('',#583,.T.);
#632=FACE_BOUND('',#584,.T.);
#633=FACE_BOUND('',#585,.T.);
#634=FACE_BOUND('',#586,.T.);
#635=FACE_BOUND('',#587,.T.);
#636=FACE_BOUND('',#588,.T.);
#637=FACE_BOUND('',#589,.T.);
#638=FACE_BOUND('',#590,.T.);
#639=FACE_BOUND('',#591,.T.);
#640=FACE_BOUND('',#592,.T.);
#641=FACE_BOUND('',#593,.T.);
#642=FACE_BOUND('',#594,.T.);
#643=FACE_BOUND('',#595,.T.);
#644=FACE_BOUND('',#596,.T.);
#645=FACE_BOUND('',#597,.T.);
#646=FACE_BOUND('',#598,.T.);
#647=FACE_BOUND('',#599,.T.);
#648=FACE_BOUND('',#600,.T.);
#649=FACE_BOUND('',#601,.T.);
#650=PLANE('',#709);
#651=PLANE('',#738);
#652=PLANE('',#764);
#653=PLANE('',#766);
#654=PLANE('',#772);
#655=PLANE('',#774);
#656=PLANE('',#780);
#657=PLANE('',#782);
#658=PLANE('',#788);
#659=PLANE('',#789);
#660=ADVANCED_FACE('',(#602,#603,#604,#605,#606,#607),#650,.F.);
#661=ADVANCED_FACE('',(#608,#609),#12,.T.);
#662=ADVANCED_FACE('',(#610,#611,#612,#613,#614,#615),#651,.T.);
#663=ADVANCED_FACE('',(#616),#652,.T.);
#664=ADVANCED_FACE('',(#617),#13,.F.);
#665=ADVANCED_FACE('',(#618),#653,.F.);
#666=ADVANCED_FACE('',(#619),#14,.T.);
#667=ADVANCED_FACE('',(#620),#15,.F.);
#668=ADVANCED_FACE('',(#621),#16,.F.);
#669=ADVANCED_FACE('',(#622),#17,.F.);
#670=ADVANCED_FACE('',(#623),#18,.F.);
#671=ADVANCED_FACE('',(#624),#654,.T.);
#672=ADVANCED_FACE('',(#625),#19,.F.);
#673=ADVANCED_FACE('',(#626),#655,.F.);
#674=ADVANCED_FACE('',(#627),#20,.T.);
#675=ADVANCED_FACE('',(#628),#21,.F.);
#676=ADVANCED_FACE('',(#629),#22,.F.);
#677=ADVANCED_FACE('',(#630),#23,.F.);
#678=ADVANCED_FACE('',(#631),#24,.F.);
#679=ADVANCED_FACE('',(#632),#656,.T.);
#680=ADVANCED_FACE('',(#633),#25,.F.);
#681=ADVANCED_FACE('',(#634),#657,.F.);
#682=ADVANCED_FACE('',(#635),#26,.T.);
#683=ADVANCED_FACE('',(#636),#27,.F.);
#684=ADVANCED_FACE('',(#637),#28,.F.);
#685=ADVANCED_FACE('',(#638),#29,.F.);
#686=ADVANCED_FACE('',(#639),#30,.F.);
#687=ADVANCED_FACE('',(#640),#658,.F.);
#688=ADVANCED_FACE('',(#641),#659,.T.);
#689=ADVANCED_FACE('',(#642),#31,.F.);
#690=ADVANCED_FACE('',(#643),#32,.T.);
#691=ADVANCED_FACE('',(#644),#33,.F.);
#692=ADVANCED_FACE('',(#645),#34,.F.);
#693=ADVANCED_FACE('',(#646),#35,.F.);
#694=ADVANCED_FACE('',(#647),#36,.F.);
#695=ADVANCED_FACE('',(#648,#649),#37,.F.);
#696=CLOSED_SHELL('',(#660,#661,#662,#663,#664,#665,#666,#667,#668,#669,
#670,#671,#672,#673,#674,#675,#676,#677,#678,#679,#680,#681,#682,#683,#684,
#685,#686,#687,#688,#689,#690,#691,#692,#693,#694,#695));
#697=STYLED_ITEM('',(#698),#705);
#698=PRESENTATION_STYLE_ASSIGNMENT((#699));
#699=SURFACE_STYLE_USAGE(.BOTH.,#700);
#700=SURFACE_SIDE_STYLE('',(#701));
#701=SURFACE_STYLE_FILL_AREA(#702);
#702=FILL_AREA_STYLE('',(#703));
#703=FILL_AREA_STYLE_COLOUR('',#704);
#704=COLOUR_RGB('',0.917647058823529,0.917647058823529,0.917647058823529);
#705=MANIFOLD_SOLID_BREP('Support Wheel',#696);
#706=SHAPE_DEFINITION_REPRESENTATION(#1234,#707);
#707=SHAPE_REPRESENTATION('Support Wheel',(#708),#1229);
#708=AXIS2_PLACEMENT_3D('',#1023,#797,#798);
#709=AXIS2_PLACEMENT_3D('',#1024,#799,#800);
#710=AXIS2_PLACEMENT_3D('',#1025,#801,#802);
#711=AXIS2_PLACEMENT_3D('',#1027,#803,#804);
#712=AXIS2_PLACEMENT_3D('',#1030,#805,#806);
#713=AXIS2_PLACEMENT_3D('',#1034,#808,#809);
#714=AXIS2_PLACEMENT_3D('',#1036,#810,#811);
#715=AXIS2_PLACEMENT_3D('',#1038,#812,#813);
#716=AXIS2_PLACEMENT_3D('',#1042,#815,#816);
#717=AXIS2_PLACEMENT_3D('',#1043,#817,#818);
#718=AXIS2_PLACEMENT_3D('',#1046,#819,#820);
#719=AXIS2_PLACEMENT_3D('',#1050,#822,#823);
#720=AXIS2_PLACEMENT_3D('',#1052,#824,#825);
#721=AXIS2_PLACEMENT_3D('',#1054,#826,#827);
#722=AXIS2_PLACEMENT_3D('',#1058,#829,#830);
#723=AXIS2_PLACEMENT_3D('',#1059,#831,#832);
#724=AXIS2_PLACEMENT_3D('',#1061,#833,#834);
#725=AXIS2_PLACEMENT_3D('',#1064,#835,#836);
#726=AXIS2_PLACEMENT_3D('',#1068,#838,#839);
#727=AXIS2_PLACEMENT_3D('',#1070,#840,#841);
#728=AXIS2_PLACEMENT_3D('',#1072,#842,#843);
#729=AXIS2_PLACEMENT_3D('',#1076,#845,#846);
#730=AXIS2_PLACEMENT_3D('',#1077,#847,#848);
#731=AXIS2_PLACEMENT_3D('',#1080,#849,#850);
#732=AXIS2_PLACEMENT_3D('',#1082,#851,#852);
#733=AXIS2_PLACEMENT_3D('',#1086,#854,#855);
#734=AXIS2_PLACEMENT_3D('',#1088,#856,#857);
#735=AXIS2_PLACEMENT_3D('',#1090,#858,#859);
#736=AXIS2_PLACEMENT_3D('',#1093,#861,#862);
#737=AXIS2_PLACEMENT_3D('',#1094,#863,#864);
#738=AXIS2_PLACEMENT_3D('',#1096,#865,#866);
#739=AXIS2_PLACEMENT_3D('',#1097,#867,#868);
#740=AXIS2_PLACEMENT_3D('',#1099,#869,#870);
#741=AXIS2_PLACEMENT_3D('',#1102,#871,#872);
#742=AXIS2_PLACEMENT_3D('',#1104,#873,#874);
#743=AXIS2_PLACEMENT_3D('',#1108,#876,#877);
#744=AXIS2_PLACEMENT_3D('',#1110,#878,#879);
#745=AXIS2_PLACEMENT_3D('',#1112,#880,#881);
#746=AXIS2_PLACEMENT_3D('',#1115,#883,#884);
#747=AXIS2_PLACEMENT_3D('',#1120,#886,#887);
#748=AXIS2_PLACEMENT_3D('',#1122,#888,#889);
#749=AXIS2_PLACEMENT_3D('',#1124,#890,#891);
#750=AXIS2_PLACEMENT_3D('',#1128,#893,#894);
#751=AXIS2_PLACEMENT_3D('',#1130,#895,#896);
#752=AXIS2_PLACEMENT_3D('',#1131,#897,#898);
#753=AXIS2_PLACEMENT_3D('',#1136,#900,#901);
#754=AXIS2_PLACEMENT_3D('',#1138,#902,#903);
#755=AXIS2_PLACEMENT_3D('',#1140,#904,#905);
#756=AXIS2_PLACEMENT_3D('',#1144,#907,#908);
#757=AXIS2_PLACEMENT_3D('',#1146,#909,#910);
#758=AXIS2_PLACEMENT_3D('',#1147,#911,#912);
#759=AXIS2_PLACEMENT_3D('',#1152,#914,#915);
#760=AXIS2_PLACEMENT_3D('',#1154,#916,#917);
#761=AXIS2_PLACEMENT_3D('',#1156,#918,#919);
#762=AXIS2_PLACEMENT_3D('',#1160,#921,#922);
#763=AXIS2_PLACEMENT_3D('',#1162,#923,#924);
#764=AXIS2_PLACEMENT_3D('',#1163,#925,#926);
#765=AXIS2_PLACEMENT_3D('',#1166,#929,#930);
#766=AXIS2_PLACEMENT_3D('',#1169,#933,#934);
#767=AXIS2_PLACEMENT_3D('',#1172,#937,#938);
#768=AXIS2_PLACEMENT_3D('',#1175,#941,#942);
#769=AXIS2_PLACEMENT_3D('',#1176,#943,#944);
#770=AXIS2_PLACEMENT_3D('',#1177,#945,#946);
#771=AXIS2_PLACEMENT_3D('',#1178,#947,#948);
#772=AXIS2_PLACEMENT_3D('',#1179,#949,#950);
#773=AXIS2_PLACEMENT_3D('',#1182,#953,#954);
#774=AXIS2_PLACEMENT_3D('',#1185,#957,#958);
#775=AXIS2_PLACEMENT_3D('',#1188,#961,#962);
#776=AXIS2_PLACEMENT_3D('',#1191,#965,#966);
#777=AXIS2_PLACEMENT_3D('',#1192,#967,#968);
#778=AXIS2_PLACEMENT_3D('',#1193,#969,#970);
#779=AXIS2_PLACEMENT_3D('',#1194,#971,#972);
#780=AXIS2_PLACEMENT_3D('',#1195,#973,#974);
#781=AXIS2_PLACEMENT_3D('',#1198,#977,#978);
#782=AXIS2_PLACEMENT_3D('',#1201,#981,#982);
#783=AXIS2_PLACEMENT_3D('',#1204,#985,#986);
#784=AXIS2_PLACEMENT_3D('',#1207,#989,#990);
#785=AXIS2_PLACEMENT_3D('',#1208,#991,#992);
#786=AXIS2_PLACEMENT_3D('',#1209,#993,#994);
#787=AXIS2_PLACEMENT_3D('',#1210,#995,#996);
#788=AXIS2_PLACEMENT_3D('',#1211,#997,#998);
#789=AXIS2_PLACEMENT_3D('',#1214,#1001,#1002);
#790=AXIS2_PLACEMENT_3D('',#1217,#1005,#1006);
#791=AXIS2_PLACEMENT_3D('',#1220,#1009,#1010);
#792=AXIS2_PLACEMENT_3D('',#1223,#1013,#1014);
#793=AXIS2_PLACEMENT_3D('',#1224,#1015,#1016);
#794=AXIS2_PLACEMENT_3D('',#1225,#1017,#1018);
#795=AXIS2_PLACEMENT_3D('',#1226,#1019,#1020);
#796=AXIS2_PLACEMENT_3D('',#1227,#1021,#1022);
#797=DIRECTION('',(0.,0.,1.));
#798=DIRECTION('',(1.,0.,0.));
#799=DIRECTION('',(0.,-1.,0.));
#800=DIRECTION('',(1.,0.,0.));
#801=DIRECTION('',(0.,1.,0.));
#802=DIRECTION('',(0.,0.,1.));
#803=DIRECTION('',(0.,-1.,0.));
#804=DIRECTION('',(0.,0.,-1.));
#805=DIRECTION('',(0.,-1.,0.));
#806=DIRECTION('',(0.,0.,-1.));
#807=DIRECTION('',(0.,0.,-1.));
#808=DIRECTION('',(0.,-1.,0.));
#809=DIRECTION('',(0.,0.,-1.));
#810=DIRECTION('',(0.,-1.,0.));
#811=DIRECTION('',(0.,0.,-1.));
#812=DIRECTION('',(0.,-1.,0.));
#813=DIRECTION('',(0.,0.,-1.));
#814=DIRECTION('',(1.,0.,0.));
#815=DIRECTION('',(0.,-1.,0.));
#816=DIRECTION('',(0.,0.,-1.));
#817=DIRECTION('',(0.,-1.,0.));
#818=DIRECTION('',(0.,0.,-1.));
#819=DIRECTION('',(0.,-1.,0.));
#820=DIRECTION('',(0.,0.,-1.));
#821=DIRECTION('',(0.,0.,1.));
#822=DIRECTION('',(0.,-1.,0.));
#823=DIRECTION('',(0.,0.,-1.));
#824=DIRECTION('',(0.,-1.,0.));
#825=DIRECTION('',(0.,0.,-1.));
#826=DIRECTION('',(0.,-1.,0.));
#827=DIRECTION('',(0.,0.,-1.));
#828=DIRECTION('',(-1.,0.,0.));
#829=DIRECTION('',(0.,-1.,0.));
#830=DIRECTION('',(0.,0.,-1.));
#831=DIRECTION('',(0.,-1.,0.));
#832=DIRECTION('',(0.,0.,-1.));
#833=DIRECTION('',(0.,-1.,0.));
#834=DIRECTION('',(0.,0.,-1.));
#835=DIRECTION('',(0.,-1.,0.));
#836=DIRECTION('',(0.,0.,-1.));
#837=DIRECTION('',(-1.,0.,0.));
#838=DIRECTION('',(0.,-1.,0.));
#839=DIRECTION('',(0.,0.,-1.));
#840=DIRECTION('',(0.,-1.,0.));
#841=DIRECTION('',(0.,0.,-1.));
#842=DIRECTION('',(0.,-1.,0.));
#843=DIRECTION('',(0.,0.,-1.));
#844=DIRECTION('',(0.,0.,-1.));
#845=DIRECTION('',(0.,-1.,0.));
#846=DIRECTION('',(0.,0.,-1.));
#847=DIRECTION('',(0.,-1.,0.));
#848=DIRECTION('',(0.,0.,-1.));
#849=DIRECTION('',(0.,-1.,0.));
#850=DIRECTION('',(0.,0.,-1.));
#851=DIRECTION('',(0.,-1.,0.));
#852=DIRECTION('',(0.,0.,-1.));
#853=DIRECTION('',(1.,0.,0.));
#854=DIRECTION('',(0.,-1.,0.));
#855=DIRECTION('',(0.,0.,-1.));
#856=DIRECTION('',(0.,-1.,0.));
#857=DIRECTION('',(0.,0.,-1.));
#858=DIRECTION('',(0.,-1.,0.));
#859=DIRECTION('',(0.,0.,-1.));
#860=DIRECTION('',(0.,0.,1.));
#861=DIRECTION('',(0.,1.,0.));
#862=DIRECTION('',(0.,0.,1.));
#863=DIRECTION('',(0.,-1.,0.));
#864=DIRECTION('',(0.,0.,-1.));
#865=DIRECTION('',(0.,-1.,0.));
#866=DIRECTION('',(1.,0.,0.));
#867=DIRECTION('',(0.,-1.,0.));
#868=DIRECTION('',(0.,0.,-1.));
#869=DIRECTION('',(0.,-1.,0.));
#870=DIRECTION('',(0.,0.,-1.));
#871=DIRECTION('',(0.,-1.,0.));
#872=DIRECTION('',(0.,0.,-1.));
#873=DIRECTION('',(0.,-1.,0.));
#874=DIRECTION('',(0.,0.,-1.));
#875=DIRECTION('',(0.,0.,-1.));
#876=DIRECTION('',(0.,-1.,0.));
#877=DIRECTION('',(0.,0.,-1.));
#878=DIRECTION('',(0.,-1.,0.));
#879=DIRECTION('',(0.,0.,-1.));
#880=DIRECTION('',(0.,-1.,0.));
#881=DIRECTION('',(0.,0.,-1.));
#882=DIRECTION('',(-1.,0.,0.));
#883=DIRECTION('',(0.,-1.,0.));
#884=DIRECTION('',(0.,0.,-1.));
#885=DIRECTION('',(-1.,0.,0.));
#886=DIRECTION('',(0.,-1.,0.));
#887=DIRECTION('',(0.,0.,-1.));
#888=DIRECTION('',(0.,-1.,0.));
#889=DIRECTION('',(0.,0.,-1.));
#890=DIRECTION('',(0.,-1.,0.));
#891=DIRECTION('',(0.,0.,-1.));
#892=DIRECTION('',(0.,0.,1.));
#893=DIRECTION('',(0.,-1.,0.));
#894=DIRECTION('',(0.,0.,-1.));
#895=DIRECTION('',(0.,-1.,0.));
#896=DIRECTION('',(0.,0.,-1.));
#897=DIRECTION('',(0.,-1.,0.));
#898=DIRECTION('',(0.,0.,-1.));
#899=DIRECTION('',(0.,0.,1.));
#900=DIRECTION('',(0.,-1.,0.));
#901=DIRECTION('',(0.,0.,-1.));
#902=DIRECTION('',(0.,-1.,0.));
#903=DIRECTION('',(0.,0.,-1.));
#904=DIRECTION('',(0.,-1.,0.));
#905=DIRECTION('',(0.,0.,-1.));
#906=DIRECTION('',(1.,0.,0.));
#907=DIRECTION('',(0.,-1.,0.));
#908=DIRECTION('',(0.,0.,-1.));
#909=DIRECTION('',(0.,-1.,0.));
#910=DIRECTION('',(0.,0.,-1.));
#911=DIRECTION('',(0.,-1.,0.));
#912=DIRECTION('',(0.,0.,-1.));
#913=DIRECTION('',(1.,0.,0.));
#914=DIRECTION('',(0.,-1.,0.));
#915=DIRECTION('',(0.,0.,-1.));
#916=DIRECTION('',(0.,-1.,0.));
#917=DIRECTION('',(0.,0.,-1.));
#918=DIRECTION('',(0.,-1.,0.));
#919=DIRECTION('',(0.,0.,-1.));
#920=DIRECTION('',(0.,0.,-1.));
#921=DIRECTION('',(0.,-1.,0.));
#922=DIRECTION('',(0.,0.,-1.));
#923=DIRECTION('',(0.,-1.,0.));
#924=DIRECTION('',(0.,0.,-1.));
#925=DIRECTION('',(-1.,0.,0.));
#926=DIRECTION('',(0.,0.,1.));
#927=DIRECTION('',(0.,1.,0.));
#928=DIRECTION('',(0.,-1.,0.));
#929=DIRECTION('',(0.,1.,0.));
#930=DIRECTION('',(0.,0.,1.));
#931=DIRECTION('',(0.,1.,0.));
#932=DIRECTION('',(0.,1.,0.));
#933=DIRECTION('',(0.,0.,-1.));
#934=DIRECTION('',(-1.,0.,0.));
#935=DIRECTION('',(0.,1.,0.));
#936=DIRECTION('',(0.,-1.,0.));
#937=DIRECTION('',(0.,1.,0.));
#938=DIRECTION('',(0.,0.,1.));
#939=DIRECTION('',(0.,1.,0.));
#940=DIRECTION('',(0.,1.,0.));
#941=DIRECTION('',(0.,1.,0.));
#942=DIRECTION('',(0.,0.,1.));
#943=DIRECTION('',(0.,1.,0.));
#944=DIRECTION('',(0.,0.,1.));
#945=DIRECTION('',(0.,1.,0.));
#946=DIRECTION('',(0.,0.,1.));
#947=DIRECTION('',(0.,1.,0.));
#948=DIRECTION('',(0.,0.,1.));
#949=DIRECTION('',(0.,0.,-1.));
#950=DIRECTION('',(-1.,0.,0.));
#951=DIRECTION('',(0.,1.,0.));
#952=DIRECTION('',(0.,-1.,0.));
#953=DIRECTION('',(0.,1.,0.));
#954=DIRECTION('',(0.,0.,1.));
#955=DIRECTION('',(0.,1.,0.));
#956=DIRECTION('',(0.,1.,0.));
#957=DIRECTION('',(1.,0.,0.));
#958=DIRECTION('',(0.,0.,-1.));
#959=DIRECTION('',(0.,1.,0.));
#960=DIRECTION('',(0.,-1.,0.));
#961=DIRECTION('',(0.,1.,0.));
#962=DIRECTION('',(0.,0.,1.));
#963=DIRECTION('',(0.,1.,0.));
#964=DIRECTION('',(0.,1.,0.));
#965=DIRECTION('',(0.,1.,0.));
#966=DIRECTION('',(0.,0.,1.));
#967=DIRECTION('',(0.,1.,0.));
#968=DIRECTION('',(0.,0.,1.));
#969=DIRECTION('',(0.,1.,0.));
#970=DIRECTION('',(0.,0.,1.));
#971=DIRECTION('',(0.,1.,0.));
#972=DIRECTION('',(0.,0.,1.));
#973=DIRECTION('',(1.,0.,0.));
#974=DIRECTION('',(0.,0.,-1.));
#975=DIRECTION('',(0.,1.,0.));
#976=DIRECTION('',(0.,-1.,0.));
#977=DIRECTION('',(0.,1.,0.));
#978=DIRECTION('',(0.,0.,1.));
#979=DIRECTION('',(0.,1.,0.));
#980=DIRECTION('',(0.,1.,0.));
#981=DIRECTION('',(0.,0.,1.));
#982=DIRECTION('',(1.,0.,0.));
#983=DIRECTION('',(0.,1.,0.));
#984=DIRECTION('',(0.,-1.,0.));
#985=DIRECTION('',(0.,1.,0.));
#986=DIRECTION('',(0.,0.,1.));
#987=DIRECTION('',(0.,1.,0.));
#988=DIRECTION('',(0.,1.,0.));
#989=DIRECTION('',(0.,1.,0.));
#990=DIRECTION('',(0.,0.,1.));
#991=DIRECTION('',(0.,1.,0.));
#992=DIRECTION('',(0.,0.,1.));
#993=DIRECTION('',(0.,1.,0.));
#994=DIRECTION('',(0.,0.,1.));
#995=DIRECTION('',(0.,1.,0.));
#996=DIRECTION('',(0.,0.,1.));
#997=DIRECTION('',(-1.,0.,0.));
#998=DIRECTION('',(0.,0.,1.));
#999=DIRECTION('',(0.,1.,0.));
#1000=DIRECTION('',(0.,-1.,0.));
#1001=DIRECTION('',(0.,0.,1.));
#1002=DIRECTION('',(1.,0.,0.));
#1003=DIRECTION('',(0.,1.,0.));
#1004=DIRECTION('',(0.,-1.,0.));
#1005=DIRECTION('',(0.,1.,0.));
#1006=DIRECTION('',(0.,0.,1.));
#1007=DIRECTION('',(0.,1.,0.));
#1008=DIRECTION('',(0.,1.,0.));
#1009=DIRECTION('',(0.,1.,0.));
#1010=DIRECTION('',(0.,0.,1.));
#1011=DIRECTION('',(0.,1.,0.));
#1012=DIRECTION('',(0.,1.,0.));
#1013=DIRECTION('',(0.,1.,0.));
#1014=DIRECTION('',(0.,0.,1.));
#1015=DIRECTION('',(0.,1.,0.));
#1016=DIRECTION('',(0.,0.,1.));
#1017=DIRECTION('',(0.,1.,0.));
#1018=DIRECTION('',(0.,0.,1.));
#1019=DIRECTION('',(0.,1.,0.));
#1020=DIRECTION('',(0.,0.,1.));
#1021=DIRECTION('',(0.,1.,0.));
#1022=DIRECTION('',(0.,0.,1.));
#1023=CARTESIAN_POINT('',(0.,0.,0.));
#1024=CARTESIAN_POINT('',(0.156480691079784,0.,-0.0785429294727438));
#1025=CARTESIAN_POINT('',(0.156480691079784,0.,-0.0785429294727438));
#1026=CARTESIAN_POINT('',(0.156480691079784,0.,-0.0748729251847634));
#1027=CARTESIAN_POINT('',(0.156480691079784,0.,-0.0785429294727438));
#1028=CARTESIAN_POINT('',(0.161161566136166,0.,-0.0853995038876055));
#1029=CARTESIAN_POINT('',(0.163337265494646,0.,-0.0832238045291263));
#1030=CARTESIAN_POINT('',(0.163980691079784,0.,-0.0895289753492182));
#1031=CARTESIAN_POINT('',(0.158980691079784,0.,-0.0895289753492182));
#1032=CARTESIAN_POINT('',(0.158980691079784,0.,-0.0909889294727438));
#1033=CARTESIAN_POINT('',(0.158980691079784,0.,-0.0904709678697309));
#1034=CARTESIAN_POINT('',(0.163980691079784,0.,-0.0904709678697309));
#1035=CARTESIAN_POINT('',(0.166642153109592,0.,-0.0947037707075546));
#1036=CARTESIAN_POINT('',(0.156480691079784,0.,-0.0785429294727437));
#1037=CARTESIAN_POINT('',(0.172641532314595,0.,-0.0887043915025522));
#1038=CARTESIAN_POINT('',(0.168408729476771,0.,-0.0860429294727438));
#1039=CARTESIAN_POINT('',(0.168408729476771,0.,-0.0810429294727438));
#1040=CARTESIAN_POINT('',(0.168926691079784,0.,-0.0810429294727438));
#1041=CARTESIAN_POINT('',(0.167466736956258,0.,-0.0810429294727438));
#1042=CARTESIAN_POINT('',(0.167466736956258,0.,-0.0860429294727438));
#1043=CARTESIAN_POINT('',(0.156480691079784,0.,-0.0785429294727438));
#1044=CARTESIAN_POINT('',(0.151799816023402,0.,-0.0716863550578821));
#1045=CARTESIAN_POINT('',(0.149624116664922,0.,-0.0738620544163613));
#1046=CARTESIAN_POINT('',(0.148980691079784,0.,-0.0675568835962694));
#1047=CARTESIAN_POINT('',(0.153980691079784,0.,-0.0675568835962694));
#1048=CARTESIAN_POINT('',(0.153980691079784,0.,-0.0698378396873535));
#1049=CARTESIAN_POINT('',(0.153980691079784,0.,-0.0666148910757566));
#1050=CARTESIAN_POINT('',(0.148980691079784,0.,-0.0666148910757566));
#1051=CARTESIAN_POINT('',(0.146319229049975,0.,-0.0623820882379329));
#1052=CARTESIAN_POINT('',(0.156480691079784,0.,-0.0785429294727438));
#1053=CARTESIAN_POINT('',(0.140319849844973,0.,-0.0683814674429354));
#1054=CARTESIAN_POINT('',(0.144552652682797,0.,-0.0710429294727438));
#1055=CARTESIAN_POINT('',(0.144552652682797,0.,-0.0760429294727438));
#1056=CARTESIAN_POINT('',(0.144034691079784,0.,-0.0760429294727438));
#1057=CARTESIAN_POINT('',(0.145494645203309,0.,-0.0760429294727438));
#1058=CARTESIAN_POINT('',(0.145494645203309,0.,-0.0710429294727438));
#1059=CARTESIAN_POINT('',(0.156480691079784,0.,-0.0785429294727438));
#1060=CARTESIAN_POINT('',(0.156480691079784,0.,-0.102672929472744));
#1061=CARTESIAN_POINT('',(0.156480691079784,0.,-0.0785429294727438));
#1062=CARTESIAN_POINT('',(0.149624116664922,0.,-0.0832238045291263));
#1063=CARTESIAN_POINT('',(0.151799816023402,0.,-0.0853995038876055));
#1064=CARTESIAN_POINT('',(0.145494645203309,0.,-0.0860429294727438));
#1065=CARTESIAN_POINT('',(0.145494645203309,0.,-0.0810429294727438));
#1066=CARTESIAN_POINT('',(0.144034691079784,0.,-0.0810429294727438));
#1067=CARTESIAN_POINT('',(0.144552652682797,0.,-0.0810429294727438));
#1068=CARTESIAN_POINT('',(0.144552652682797,0.,-0.0860429294727438));
#1069=CARTESIAN_POINT('',(0.140319849844973,0.,-0.0887043915025521));
#1070=CARTESIAN_POINT('',(0.156480691079784,0.,-0.0785429294727438));
#1071=CARTESIAN_POINT('',(0.146319229049975,0.,-0.0947037707075546));
#1072=CARTESIAN_POINT('',(0.148980691079784,0.,-0.0904709678697309));
#1073=CARTESIAN_POINT('',(0.153980691079784,0.,-0.0904709678697309));
#1074=CARTESIAN_POINT('',(0.153980691079784,0.,-0.0909889294727438));
#1075=CARTESIAN_POINT('',(0.153980691079784,0.,-0.0895289753492182));
#1076=CARTESIAN_POINT('',(0.148980691079784,0.,-0.0895289753492182));
#1077=CARTESIAN_POINT('',(0.163980691079784,0.,-0.0675568835962694));
#1078=CARTESIAN_POINT('',(0.161161566136166,0.,-0.0716863550578821));
#1079=CARTESIAN_POINT('',(0.158980691079784,0.,-0.0675568835962694));
#1080=CARTESIAN_POINT('',(0.156480691079784,0.,-0.0785429294727438));
#1081=CARTESIAN_POINT('',(0.163337265494646,0.,-0.0738620544163613));
#1082=CARTESIAN_POINT('',(0.167466736956258,0.,-0.0710429294727438));
#1083=CARTESIAN_POINT('',(0.167466736956258,0.,-0.0760429294727438));
#1084=CARTESIAN_POINT('',(0.168926691079784,0.,-0.0760429294727438));
#1085=CARTESIAN_POINT('',(0.168408729476771,0.,-0.0760429294727438));
#1086=CARTESIAN_POINT('',(0.168408729476771,0.,-0.0710429294727438));
#1087=CARTESIAN_POINT('',(0.172641532314595,0.,-0.0683814674429354));
#1088=CARTESIAN_POINT('',(0.156480691079784,0.,-0.0785429294727438));
#1089=CARTESIAN_POINT('',(0.166642153109592,0.,-0.062382088237933));
#1090=CARTESIAN_POINT('',(0.163980691079784,0.,-0.0666148910757566));
#1091=CARTESIAN_POINT('',(0.158980691079784,0.,-0.0666148910757566));
#1092=CARTESIAN_POINT('',(0.158980691079784,0.,-0.0606938396873534));
#1093=CARTESIAN_POINT('',(0.156480691079784,-0.00635,-0.0785429294727438));
#1094=CARTESIAN_POINT('',(0.156480691079784,-0.00635,-0.0785429294727438));
#1095=CARTESIAN_POINT('',(0.156480691079784,-0.00635,-0.102672929472744));
#1096=CARTESIAN_POINT('',(0.156480691079784,-0.00635,-0.0785429294727438));
#1097=CARTESIAN_POINT('',(0.156480691079784,-0.00635,-0.0785429294727438));
#1098=CARTESIAN_POINT('',(0.156480691079784,-0.00635,-0.0822129337607242));
#1099=CARTESIAN_POINT('',(0.167466736956258,-0.00635,-0.0710429294727438));
#1100=CARTESIAN_POINT('',(0.163337265494646,-0.00635,-0.0738620544163613));
#1101=CARTESIAN_POINT('',(0.167466736956258,-0.00635,-0.0760429294727438));
#1102=CARTESIAN_POINT('',(0.156480691079784,-0.00635,-0.0785429294727438));
#1103=CARTESIAN_POINT('',(0.161161566136166,-0.00635,-0.0716863550578821));
#1104=CARTESIAN_POINT('',(0.163980691079784,-0.00635,-0.0675568835962694));
#1105=CARTESIAN_POINT('',(0.158980691079784,-0.00635,-0.0675568835962694));
#1106=CARTESIAN_POINT('',(0.158980691079784,-0.00635,-0.0785429294727438));
#1107=CARTESIAN_POINT('',(0.158980691079784,-0.00635,-0.0666148910757566));
#1108=CARTESIAN_POINT('',(0.163980691079784,-0.00635,-0.0666148910757566));
#1109=CARTESIAN_POINT('',(0.166642153109592,-0.00635,-0.062382088237933));
#1110=CARTESIAN_POINT('',(0.156480691079784,-0.00635,-0.0785429294727438));
#1111=CARTESIAN_POINT('',(0.172641532314595,-0.00635,-0.0683814674429354));
#1112=CARTESIAN_POINT('',(0.168408729476771,-0.00635,-0.0710429294727438));
#1113=CARTESIAN_POINT('',(0.168408729476771,-0.00635,-0.0760429294727438));
#1114=CARTESIAN_POINT('',(0.156480691079784,-0.00635,-0.0760429294727438));
#1115=CARTESIAN_POINT('',(0.167466736956258,-0.00635,-0.0860429294727438));
#1116=CARTESIAN_POINT('',(0.167466736956258,-0.00635,-0.0810429294727438));
#1117=CARTESIAN_POINT('',(0.163337265494646,-0.00635,-0.0832238045291263));
#1118=CARTESIAN_POINT('',(0.156480691079784,-0.00635,-0.0810429294727438));
#1119=CARTESIAN_POINT('',(0.168408729476771,-0.00635,-0.0810429294727438));
#1120=CARTESIAN_POINT('',(0.168408729476771,-0.00635,-0.0860429294727438));
#1121=CARTESIAN_POINT('',(0.172641532314595,-0.00635,-0.0887043915025522));
#1122=CARTESIAN_POINT('',(0.156480691079784,-0.00635,-0.0785429294727437));
#1123=CARTESIAN_POINT('',(0.166642153109592,-0.00635,-0.0947037707075546));
#1124=CARTESIAN_POINT('',(0.163980691079784,-0.00635,-0.0904709678697309));
#1125=CARTESIAN_POINT('',(0.158980691079784,-0.00635,-0.0904709678697309));
#1126=CARTESIAN_POINT('',(0.158980691079784,-0.00635,-0.0785429294727438));
#1127=CARTESIAN_POINT('',(0.158980691079784,-0.00635,-0.0895289753492182));
#1128=CARTESIAN_POINT('',(0.163980691079784,-0.00635,-0.0895289753492182));
#1129=CARTESIAN_POINT('',(0.161161566136166,-0.00635,-0.0853995038876055));
#1130=CARTESIAN_POINT('',(0.156480691079784,-0.00635,-0.0785429294727438));
#1131=CARTESIAN_POINT('',(0.148980691079784,-0.00635,-0.0895289753492182));
#1132=CARTESIAN_POINT('',(0.153980691079784,-0.00635,-0.0895289753492182));
#1133=CARTESIAN_POINT('',(0.151799816023402,-0.00635,-0.0853995038876055));
#1134=CARTESIAN_POINT('',(0.153980691079784,-0.00635,-0.0785429294727438));
#1135=CARTESIAN_POINT('',(0.153980691079784,-0.00635,-0.0904709678697309));
#1136=CARTESIAN_POINT('',(0.148980691079784,-0.00635,-0.0904709678697309));
#1137=CARTESIAN_POINT('',(0.146319229049975,-0.00635,-0.0947037707075546));
#1138=CARTESIAN_POINT('',(0.156480691079784,-0.00635,-0.0785429294727438));
#1139=CARTESIAN_POINT('',(0.140319849844973,-0.00635,-0.0887043915025521));
#1140=CARTESIAN_POINT('',(0.144552652682797,-0.00635,-0.0860429294727438));
#1141=CARTESIAN_POINT('',(0.144552652682797,-0.00635,-0.0810429294727438));
#1142=CARTESIAN_POINT('',(0.156480691079784,-0.00635,-0.0810429294727438));
#1143=CARTESIAN_POINT('',(0.145494645203309,-0.00635,-0.0810429294727438));
#1144=CARTESIAN_POINT('',(0.145494645203309,-0.00635,-0.0860429294727438));
#1145=CARTESIAN_POINT('',(0.149624116664922,-0.00635,-0.0832238045291263));
#1146=CARTESIAN_POINT('',(0.156480691079784,-0.00635,-0.0785429294727438));
#1147=CARTESIAN_POINT('',(0.145494645203309,-0.00635,-0.0710429294727438));
#1148=CARTESIAN_POINT('',(0.145494645203309,-0.00635,-0.0760429294727438));
#1149=CARTESIAN_POINT('',(0.149624116664922,-0.00635,-0.0738620544163613));
#1150=CARTESIAN_POINT('',(0.156480691079784,-0.00635,-0.0760429294727438));
#1151=CARTESIAN_POINT('',(0.144552652682797,-0.00635,-0.0760429294727438));
#1152=CARTESIAN_POINT('',(0.144552652682797,-0.00635,-0.0710429294727438));
#1153=CARTESIAN_POINT('',(0.140319849844973,-0.00635,-0.0683814674429354));
#1154=CARTESIAN_POINT('',(0.156480691079784,-0.00635,-0.0785429294727438));
#1155=CARTESIAN_POINT('',(0.146319229049975,-0.00635,-0.0623820882379329));
#1156=CARTESIAN_POINT('',(0.148980691079784,-0.00635,-0.0666148910757566));
#1157=CARTESIAN_POINT('',(0.153980691079784,-0.00635,-0.0666148910757566));
#1158=CARTESIAN_POINT('',(0.153980691079784,-0.00635,-0.0785429294727438));
#1159=CARTESIAN_POINT('',(0.153980691079784,-0.00635,-0.0675568835962694));
#1160=CARTESIAN_POINT('',(0.148980691079784,-0.00635,-0.0675568835962694));
#1161=CARTESIAN_POINT('',(0.151799816023402,-0.00635,-0.0716863550578821));
#1162=CARTESIAN_POINT('',(0.156480691079784,-0.00635,-0.0785429294727438));
#1163=CARTESIAN_POINT('',(0.153980691079784,-0.01385,-0.0698378396873535));
#1164=CARTESIAN_POINT('',(0.153980691079784,-0.01385,-0.0666148910757566));
#1165=CARTESIAN_POINT('',(0.153980691079784,-0.01635,-0.0675568835962694));
#1166=CARTESIAN_POINT('',(0.156480691079784,-0.01385,-0.0785429294727438));
#1167=CARTESIAN_POINT('',(0.140319849844973,0.,-0.0683814674429354));
#1168=CARTESIAN_POINT('',(0.146319229049975,-0.01135,-0.0623820882379329));
#1169=CARTESIAN_POINT('',(0.144034691079784,-0.01385,-0.0760429294727438));
#1170=CARTESIAN_POINT('',(0.145494645203309,-0.01385,-0.0760429294727438));
#1171=CARTESIAN_POINT('',(0.144552652682797,-0.01385,-0.0760429294727438));
#1172=CARTESIAN_POINT('',(0.156480691079784,-0.01635,-0.0785429294727438));
#1173=CARTESIAN_POINT('',(0.151799816023402,0.,-0.0716863550578821));
#1174=CARTESIAN_POINT('',(0.149624116664922,-0.01135,-0.0738620544163613));
#1175=CARTESIAN_POINT('',(0.148980691079784,-0.01635,-0.0675568835962694));
#1176=CARTESIAN_POINT('',(0.145494645203309,-0.01635,-0.0710429294727438));
#1177=CARTESIAN_POINT('',(0.144552652682797,-0.01385,-0.0710429294727438));
#1178=CARTESIAN_POINT('',(0.148980691079784,-0.01385,-0.0666148910757566));
#1179=CARTESIAN_POINT('',(0.144034691079784,-0.01385,-0.0810429294727438));
#1180=CARTESIAN_POINT('',(0.144552652682797,-0.01385,-0.0810429294727438));
#1181=CARTESIAN_POINT('',(0.145494645203309,-0.01635,-0.0810429294727438));
#1182=CARTESIAN_POINT('',(0.156480691079784,-0.01385,-0.0785429294727438));
#1183=CARTESIAN_POINT('',(0.146319229049975,0.,-0.0947037707075546));
#1184=CARTESIAN_POINT('',(0.140319849844973,-0.01135,-0.0887043915025521));
#1185=CARTESIAN_POINT('',(0.153980691079784,-0.01385,-0.0909889294727438));
#1186=CARTESIAN_POINT('',(0.153980691079784,-0.01385,-0.0895289753492182));
#1187=CARTESIAN_POINT('',(0.153980691079784,-0.01385,-0.0904709678697309));
#1188=CARTESIAN_POINT('',(0.156480691079784,-0.01635,-0.0785429294727438));
#1189=CARTESIAN_POINT('',(0.149624116664922,0.,-0.0832238045291263));
#1190=CARTESIAN_POINT('',(0.151799816023402,-0.01135,-0.0853995038876055));
#1191=CARTESIAN_POINT('',(0.145494645203309,-0.01635,-0.0860429294727438));
#1192=CARTESIAN_POINT('',(0.148980691079784,-0.01635,-0.0895289753492182));
#1193=CARTESIAN_POINT('',(0.148980691079784,-0.01385,-0.0904709678697309));
#1194=CARTESIAN_POINT('',(0.144552652682797,-0.01385,-0.0860429294727438));
#1195=CARTESIAN_POINT('',(0.158980691079784,-0.01385,-0.0909889294727438));
#1196=CARTESIAN_POINT('',(0.158980691079784,-0.01385,-0.0904709678697309));
#1197=CARTESIAN_POINT('',(0.158980691079784,-0.01635,-0.0895289753492182));
#1198=CARTESIAN_POINT('',(0.156480691079784,-0.01385,-0.0785429294727437));
#1199=CARTESIAN_POINT('',(0.172641532314595,0.,-0.0887043915025522));
#1200=CARTESIAN_POINT('',(0.166642153109592,-0.01135,-0.0947037707075546));
#1201=CARTESIAN_POINT('',(0.168926691079784,-0.01385,-0.0810429294727438));
#1202=CARTESIAN_POINT('',(0.167466736956258,-0.01385,-0.0810429294727438));
#1203=CARTESIAN_POINT('',(0.168408729476771,-0.01385,-0.0810429294727438));
#1204=CARTESIAN_POINT('',(0.156480691079784,-0.01635,-0.0785429294727438));
#1205=CARTESIAN_POINT('',(0.161161566136166,0.,-0.0853995038876055));
#1206=CARTESIAN_POINT('',(0.163337265494646,-0.01135,-0.0832238045291263));
#1207=CARTESIAN_POINT('',(0.163980691079784,-0.01635,-0.0895289753492182));
#1208=CARTESIAN_POINT('',(0.167466736956258,-0.01635,-0.0860429294727438));
#1209=CARTESIAN_POINT('',(0.168408729476771,-0.01385,-0.0860429294727438));
#1210=CARTESIAN_POINT('',(0.163980691079784,-0.01385,-0.0904709678697309));
#1211=CARTESIAN_POINT('',(0.158980691079784,-0.01385,-0.0606938396873534));
#1212=CARTESIAN_POINT('',(0.158980691079784,-0.01385,-0.0675568835962694));
#1213=CARTESIAN_POINT('',(0.158980691079784,-0.01385,-0.0666148910757566));
#1214=CARTESIAN_POINT('',(0.168926691079784,-0.01385,-0.0760429294727438));
#1215=CARTESIAN_POINT('',(0.168408729476771,-0.01385,-0.0760429294727438));
#1216=CARTESIAN_POINT('',(0.167466736956258,-0.01635,-0.0760429294727438));
#1217=CARTESIAN_POINT('',(0.156480691079784,-0.01385,-0.0785429294727438));
#1218=CARTESIAN_POINT('',(0.166642153109592,0.,-0.062382088237933));
#1219=CARTESIAN_POINT('',(0.172641532314595,-0.01135,-0.0683814674429354));
#1220=CARTESIAN_POINT('',(0.156480691079784,-0.01635,-0.0785429294727438));
#1221=CARTESIAN_POINT('',(0.163337265494646,0.,-0.0738620544163613));
#1222=CARTESIAN_POINT('',(0.161161566136166,-0.01135,-0.0716863550578821));
#1223=CARTESIAN_POINT('',(0.163980691079784,-0.01635,-0.0675568835962694));
#1224=CARTESIAN_POINT('',(0.167466736956258,-0.01635,-0.0710429294727438));
#1225=CARTESIAN_POINT('',(0.168408729476771,-0.01385,-0.0710429294727438));
#1226=CARTESIAN_POINT('',(0.163980691079784,-0.01385,-0.0666148910757566));
#1227=CARTESIAN_POINT('',(0.156480691079784,-0.384523133217442,-0.0785429294727438));
#1228=MECHANICAL_DESIGN_GEOMETRIC_PRESENTATION_REPRESENTATION('',(#697),
#1229);
#1229=(
GEOMETRIC_REPRESENTATION_CONTEXT(3)
GLOBAL_UNCERTAINTY_ASSIGNED_CONTEXT((#1230))
GLOBAL_UNIT_ASSIGNED_CONTEXT((#1233,#1232,#1231))
REPRESENTATION_CONTEXT('Support Wheel','TOP_LEVEL_ASSEMBLY_PART')
);
#1230=UNCERTAINTY_MEASURE_WITH_UNIT(LENGTH_MEASURE(1.E-8),#1233,
'DISTANCE_ACCURACY_VALUE','Maximum Tolerance applied to model');
#1231=(
NAMED_UNIT(*)
SI_UNIT($,.STERADIAN.)
SOLID_ANGLE_UNIT()
);
#1232=(
NAMED_UNIT(*)
PLANE_ANGLE_UNIT()
SI_UNIT($,.RADIAN.)
);
#1233=(
LENGTH_UNIT()
NAMED_UNIT(*)
SI_UNIT($,.METRE.)
);
#1234=PRODUCT_DEFINITION_SHAPE('','',#1235);
#1235=PRODUCT_DEFINITION('','',#1237,#1236);
#1236=PRODUCT_DEFINITION_CONTEXT('',#1243,'design');
#1237=PRODUCT_DEFINITION_FORMATION_WITH_SPECIFIED_SOURCE('','',#1239,
 .NOT_KNOWN.);
#1238=PRODUCT_RELATED_PRODUCT_CATEGORY('','',(#1239));
#1239=PRODUCT('Support Wheel','Support Wheel','Support Wheel',(#1241));
#1240=PRODUCT_CATEGORY('','');
#1241=PRODUCT_CONTEXT('',#1243,'mechanical');
#1242=APPLICATION_PROTOCOL_DEFINITION('international standard',
'ap242_managed_model_based_3d_engineering',2020,#1243);
#1243=APPLICATION_CONTEXT('managed model based 3d engineering');
ENDSEC;
END-ISO-10303-21;
